G04 EAGLE Gerber RS-274X export*
G75*
%MOMM*%
%FSLAX34Y34*%
%LPD*%
%INBottom Copper*%
%IPPOS*%
%AMOC8*
5,1,8,0,0,1.08239X$1,22.5*%
G01*
%ADD10C,4.318000*%
%ADD11C,1.524000*%
%ADD12P,1.429621X8X22.500000*%
%ADD13P,1.429621X8X112.500000*%
%ADD14P,1.429621X8X292.500000*%
%ADD15C,1.879600*%
%ADD16C,1.625600*%
%ADD17C,1.308000*%
%ADD18C,1.651000*%
%ADD19R,1.800000X1.000000*%
%ADD20C,1.016000*%
%ADD21C,0.406400*%
%ADD22C,0.508000*%

G36*
X876826Y10163D02*
X876826Y10163D01*
X876844Y10161D01*
X877026Y10182D01*
X877209Y10201D01*
X877226Y10206D01*
X877243Y10208D01*
X877418Y10265D01*
X877594Y10319D01*
X877609Y10327D01*
X877626Y10333D01*
X877786Y10423D01*
X877948Y10511D01*
X877961Y10522D01*
X877977Y10531D01*
X878116Y10651D01*
X878257Y10768D01*
X878268Y10782D01*
X878282Y10794D01*
X878394Y10939D01*
X878509Y11082D01*
X878517Y11098D01*
X878528Y11112D01*
X878610Y11277D01*
X878695Y11439D01*
X878700Y11456D01*
X878708Y11472D01*
X878755Y11651D01*
X878806Y11826D01*
X878808Y11844D01*
X878812Y11861D01*
X878839Y12192D01*
X878839Y699008D01*
X878837Y699026D01*
X878839Y699044D01*
X878818Y699226D01*
X878799Y699409D01*
X878794Y699426D01*
X878792Y699443D01*
X878735Y699618D01*
X878681Y699794D01*
X878673Y699809D01*
X878667Y699826D01*
X878577Y699986D01*
X878489Y700148D01*
X878478Y700161D01*
X878469Y700177D01*
X878349Y700316D01*
X878232Y700457D01*
X878218Y700468D01*
X878206Y700482D01*
X878061Y700594D01*
X877918Y700709D01*
X877902Y700717D01*
X877888Y700728D01*
X877723Y700810D01*
X877561Y700895D01*
X877544Y700900D01*
X877528Y700908D01*
X877349Y700955D01*
X877174Y701006D01*
X877156Y701008D01*
X877139Y701012D01*
X876808Y701039D01*
X400000Y701039D01*
X399982Y701037D01*
X399964Y701039D01*
X399782Y701018D01*
X399599Y700999D01*
X399582Y700994D01*
X399565Y700992D01*
X399390Y700935D01*
X399214Y700881D01*
X399199Y700873D01*
X399182Y700867D01*
X399022Y700777D01*
X398860Y700689D01*
X398847Y700678D01*
X398831Y700669D01*
X398692Y700549D01*
X398551Y700432D01*
X398540Y700418D01*
X398527Y700406D01*
X398414Y700261D01*
X398299Y700118D01*
X398291Y700102D01*
X398280Y700088D01*
X398198Y699923D01*
X398113Y699761D01*
X398108Y699744D01*
X398100Y699728D01*
X398053Y699549D01*
X398002Y699374D01*
X398000Y699356D01*
X397996Y699339D01*
X397969Y699008D01*
X397969Y12192D01*
X397971Y12174D01*
X397969Y12156D01*
X397990Y11974D01*
X398009Y11791D01*
X398014Y11774D01*
X398016Y11757D01*
X398073Y11582D01*
X398127Y11406D01*
X398135Y11391D01*
X398141Y11374D01*
X398231Y11214D01*
X398319Y11052D01*
X398330Y11039D01*
X398339Y11023D01*
X398459Y10884D01*
X398576Y10743D01*
X398590Y10732D01*
X398602Y10718D01*
X398747Y10606D01*
X398890Y10491D01*
X398906Y10483D01*
X398920Y10472D01*
X399085Y10390D01*
X399247Y10305D01*
X399264Y10300D01*
X399281Y10292D01*
X399459Y10245D01*
X399634Y10194D01*
X399652Y10192D01*
X399669Y10188D01*
X400000Y10161D01*
X876808Y10161D01*
X876826Y10163D01*
G37*
%LPC*%
G36*
X841977Y356067D02*
X841977Y356067D01*
X838616Y357459D01*
X836044Y360031D01*
X835891Y360401D01*
X835880Y360421D01*
X835873Y360442D01*
X835785Y360598D01*
X835700Y360756D01*
X835686Y360773D01*
X835675Y360792D01*
X835558Y360928D01*
X835444Y361066D01*
X835427Y361080D01*
X835412Y361097D01*
X835271Y361206D01*
X835131Y361320D01*
X835112Y361330D01*
X835094Y361344D01*
X834934Y361424D01*
X834775Y361507D01*
X834754Y361513D01*
X834733Y361523D01*
X834560Y361570D01*
X834388Y361620D01*
X834366Y361622D01*
X834345Y361628D01*
X834014Y361655D01*
X812012Y361655D01*
X809489Y364178D01*
X809333Y364361D01*
X771889Y401806D01*
X771868Y401823D01*
X771850Y401843D01*
X771712Y401950D01*
X771577Y402061D01*
X771553Y402073D01*
X771532Y402090D01*
X771375Y402168D01*
X771221Y402249D01*
X771196Y402257D01*
X771172Y402269D01*
X771002Y402314D01*
X770835Y402364D01*
X770809Y402367D01*
X770783Y402373D01*
X770452Y402401D01*
X638165Y402401D01*
X638157Y402400D01*
X638148Y402401D01*
X637956Y402380D01*
X637765Y402361D01*
X637756Y402358D01*
X637747Y402357D01*
X637565Y402299D01*
X637380Y402243D01*
X637372Y402238D01*
X637363Y402236D01*
X637195Y402142D01*
X637026Y402051D01*
X637019Y402045D01*
X637011Y402041D01*
X636863Y401915D01*
X636717Y401793D01*
X636711Y401786D01*
X636704Y401780D01*
X636584Y401628D01*
X636464Y401479D01*
X636460Y401471D01*
X636455Y401464D01*
X636367Y401292D01*
X636279Y401122D01*
X636276Y401113D01*
X636272Y401105D01*
X636220Y400919D01*
X636167Y400735D01*
X636167Y400726D01*
X636164Y400718D01*
X636150Y400523D01*
X636134Y400334D01*
X636135Y400325D01*
X636135Y400316D01*
X636159Y400123D01*
X636181Y399934D01*
X636184Y399926D01*
X636185Y399917D01*
X636247Y399734D01*
X636306Y399551D01*
X636311Y399543D01*
X636313Y399535D01*
X636409Y399369D01*
X636504Y399201D01*
X636510Y399194D01*
X636514Y399186D01*
X636729Y398933D01*
X637953Y397709D01*
X638225Y397052D01*
X638236Y397032D01*
X638243Y397011D01*
X638331Y396855D01*
X638415Y396697D01*
X638430Y396680D01*
X638441Y396660D01*
X638558Y396525D01*
X638672Y396387D01*
X638689Y396373D01*
X638704Y396356D01*
X638845Y396246D01*
X638984Y396133D01*
X639004Y396123D01*
X639022Y396109D01*
X639182Y396029D01*
X639341Y395946D01*
X639362Y395940D01*
X639382Y395930D01*
X639556Y395883D01*
X639727Y395833D01*
X639749Y395831D01*
X639771Y395825D01*
X640102Y395798D01*
X647653Y395798D01*
X668431Y375021D01*
X668451Y375004D01*
X668469Y374983D01*
X668607Y374876D01*
X668742Y374765D01*
X668766Y374753D01*
X668787Y374737D01*
X668944Y374659D01*
X669098Y374577D01*
X669123Y374569D01*
X669148Y374557D01*
X669317Y374512D01*
X669484Y374462D01*
X669510Y374460D01*
X669536Y374453D01*
X669867Y374426D01*
X747167Y374426D01*
X747189Y374428D01*
X747211Y374426D01*
X747389Y374448D01*
X747567Y374466D01*
X747588Y374472D01*
X747611Y374475D01*
X747780Y374531D01*
X747952Y374584D01*
X747972Y374594D01*
X747993Y374601D01*
X748148Y374690D01*
X748306Y374775D01*
X748323Y374790D01*
X748343Y374801D01*
X748478Y374919D01*
X748615Y375033D01*
X748629Y375051D01*
X748646Y375065D01*
X748756Y375208D01*
X748868Y375347D01*
X748878Y375367D01*
X748892Y375384D01*
X749043Y375680D01*
X749196Y376049D01*
X751769Y378621D01*
X755130Y380014D01*
X774008Y380014D01*
X777369Y378621D01*
X779941Y376049D01*
X781333Y372688D01*
X781333Y369050D01*
X779941Y365689D01*
X777369Y363116D01*
X774008Y361724D01*
X755130Y361724D01*
X751769Y363116D01*
X749196Y365689D01*
X749043Y366058D01*
X749033Y366078D01*
X749026Y366099D01*
X748938Y366255D01*
X748853Y366413D01*
X748839Y366430D01*
X748828Y366450D01*
X748711Y366585D01*
X748597Y366723D01*
X748579Y366738D01*
X748565Y366754D01*
X748424Y366864D01*
X748284Y366977D01*
X748264Y366988D01*
X748247Y367001D01*
X748086Y367081D01*
X747927Y367164D01*
X747906Y367170D01*
X747886Y367180D01*
X747713Y367227D01*
X747541Y367277D01*
X747519Y367279D01*
X747497Y367285D01*
X747167Y367312D01*
X666079Y367312D01*
X645302Y388090D01*
X645281Y388107D01*
X645263Y388127D01*
X645125Y388234D01*
X644990Y388345D01*
X644966Y388357D01*
X644945Y388374D01*
X644788Y388452D01*
X644634Y388533D01*
X644609Y388541D01*
X644585Y388553D01*
X644415Y388598D01*
X644248Y388648D01*
X644222Y388651D01*
X644196Y388657D01*
X643865Y388685D01*
X640102Y388685D01*
X640080Y388682D01*
X640057Y388684D01*
X639879Y388662D01*
X639701Y388645D01*
X639680Y388638D01*
X639658Y388635D01*
X639487Y388579D01*
X639316Y388527D01*
X639297Y388516D01*
X639275Y388509D01*
X639119Y388420D01*
X638962Y388335D01*
X638945Y388321D01*
X638926Y388309D01*
X638791Y388192D01*
X638653Y388077D01*
X638639Y388060D01*
X638622Y388045D01*
X638513Y387903D01*
X638401Y387763D01*
X638390Y387744D01*
X638377Y387726D01*
X638225Y387431D01*
X637953Y386773D01*
X635238Y384058D01*
X631690Y382589D01*
X627850Y382589D01*
X624302Y384058D01*
X621587Y386773D01*
X620117Y390321D01*
X620117Y394161D01*
X621587Y397709D01*
X623431Y399554D01*
X623442Y399568D01*
X623456Y399579D01*
X623570Y399723D01*
X623686Y399865D01*
X623695Y399881D01*
X623706Y399895D01*
X623789Y400059D01*
X623875Y400221D01*
X623880Y400238D01*
X623888Y400254D01*
X623937Y400431D01*
X623990Y400607D01*
X623991Y400625D01*
X623996Y400642D01*
X624009Y400825D01*
X624026Y401008D01*
X624024Y401026D01*
X624025Y401043D01*
X624002Y401225D01*
X623983Y401408D01*
X623977Y401425D01*
X623975Y401443D01*
X623917Y401617D01*
X623861Y401792D01*
X623852Y401808D01*
X623847Y401824D01*
X623756Y401983D01*
X623666Y402144D01*
X623655Y402158D01*
X623646Y402173D01*
X623431Y402426D01*
X620778Y405079D01*
X614529Y411328D01*
X614529Y423954D01*
X623431Y432856D01*
X623442Y432870D01*
X623456Y432882D01*
X623570Y433026D01*
X623686Y433168D01*
X623695Y433184D01*
X623706Y433198D01*
X623789Y433361D01*
X623875Y433524D01*
X623880Y433541D01*
X623888Y433557D01*
X623937Y433734D01*
X623990Y433909D01*
X623991Y433927D01*
X623996Y433944D01*
X624009Y434127D01*
X624026Y434310D01*
X624024Y434328D01*
X624025Y434346D01*
X624002Y434528D01*
X623983Y434711D01*
X623977Y434728D01*
X623975Y434745D01*
X623917Y434919D01*
X623861Y435095D01*
X623852Y435110D01*
X623847Y435127D01*
X623755Y435286D01*
X623666Y435447D01*
X623655Y435460D01*
X623646Y435476D01*
X623431Y435729D01*
X621587Y437573D01*
X621314Y438231D01*
X621304Y438250D01*
X621297Y438272D01*
X621209Y438428D01*
X621124Y438585D01*
X621110Y438603D01*
X621099Y438622D01*
X620982Y438758D01*
X620868Y438896D01*
X620850Y438910D01*
X620836Y438927D01*
X620695Y439036D01*
X620555Y439150D01*
X620535Y439160D01*
X620518Y439174D01*
X620358Y439253D01*
X620199Y439337D01*
X620177Y439343D01*
X620157Y439353D01*
X619984Y439400D01*
X619812Y439450D01*
X619790Y439452D01*
X619768Y439457D01*
X619438Y439485D01*
X577496Y439485D01*
X565890Y451091D01*
X565824Y451145D01*
X565766Y451205D01*
X565669Y451272D01*
X565578Y451346D01*
X565504Y451386D01*
X565434Y451434D01*
X565326Y451480D01*
X565223Y451535D01*
X565142Y451559D01*
X565064Y451592D01*
X564949Y451616D01*
X564837Y451650D01*
X564753Y451657D01*
X564670Y451675D01*
X564553Y451676D01*
X564436Y451686D01*
X564352Y451677D01*
X564267Y451678D01*
X564152Y451656D01*
X564035Y451643D01*
X563955Y451617D01*
X563872Y451601D01*
X563764Y451557D01*
X563652Y451521D01*
X563578Y451480D01*
X563500Y451448D01*
X563402Y451383D01*
X563299Y451326D01*
X563235Y451272D01*
X563165Y451225D01*
X563082Y451142D01*
X562992Y451066D01*
X562940Y451000D01*
X562880Y450940D01*
X562815Y450842D01*
X562743Y450750D01*
X562704Y450675D01*
X562658Y450605D01*
X562613Y450496D01*
X562560Y450391D01*
X562538Y450310D01*
X562506Y450232D01*
X562484Y450116D01*
X562452Y450003D01*
X562446Y449919D01*
X562430Y449836D01*
X562431Y449719D01*
X562423Y449602D01*
X562433Y449518D01*
X562434Y449434D01*
X562459Y449319D01*
X562473Y449202D01*
X562500Y449122D01*
X562518Y449040D01*
X562574Y448902D01*
X562601Y448821D01*
X562623Y448784D01*
X562644Y448733D01*
X563457Y447137D01*
X563976Y445540D01*
X564050Y445073D01*
X555601Y445073D01*
X555601Y453521D01*
X556068Y453447D01*
X557665Y452928D01*
X559261Y452115D01*
X559340Y452084D01*
X559414Y452045D01*
X559527Y452012D01*
X559636Y451969D01*
X559719Y451954D01*
X559800Y451930D01*
X559917Y451920D01*
X560033Y451899D01*
X560117Y451901D01*
X560201Y451894D01*
X560318Y451906D01*
X560435Y451909D01*
X560518Y451928D01*
X560602Y451937D01*
X560714Y451973D01*
X560828Y451999D01*
X560905Y452033D01*
X560985Y452059D01*
X561088Y452116D01*
X561195Y452164D01*
X561264Y452213D01*
X561338Y452254D01*
X561427Y452330D01*
X561523Y452398D01*
X561580Y452459D01*
X561645Y452514D01*
X561718Y452606D01*
X561798Y452692D01*
X561842Y452764D01*
X561894Y452830D01*
X561948Y452935D01*
X562009Y453035D01*
X562038Y453114D01*
X562077Y453189D01*
X562108Y453302D01*
X562149Y453412D01*
X562162Y453496D01*
X562185Y453577D01*
X562193Y453694D01*
X562211Y453810D01*
X562208Y453894D01*
X562214Y453978D01*
X562199Y454095D01*
X562194Y454212D01*
X562174Y454294D01*
X562164Y454378D01*
X562126Y454489D01*
X562098Y454603D01*
X562062Y454679D01*
X562035Y454759D01*
X561977Y454861D01*
X561927Y454967D01*
X561877Y455035D01*
X561834Y455108D01*
X561738Y455222D01*
X561687Y455291D01*
X561655Y455319D01*
X561620Y455361D01*
X558361Y458620D01*
X558343Y458635D01*
X558329Y458652D01*
X558188Y458761D01*
X558049Y458876D01*
X558029Y458886D01*
X558012Y458900D01*
X557851Y458980D01*
X557693Y459064D01*
X557672Y459070D01*
X557652Y459081D01*
X557479Y459128D01*
X557307Y459179D01*
X557285Y459181D01*
X557264Y459187D01*
X557086Y459199D01*
X556907Y459215D01*
X556884Y459213D01*
X556862Y459214D01*
X556686Y459191D01*
X556506Y459172D01*
X556485Y459165D01*
X556463Y459162D01*
X556147Y459061D01*
X555490Y458789D01*
X551650Y458789D01*
X548102Y460258D01*
X545387Y462973D01*
X543917Y466521D01*
X543917Y470361D01*
X545387Y473909D01*
X548102Y476624D01*
X548759Y476897D01*
X548779Y476907D01*
X548800Y476914D01*
X548956Y477002D01*
X549114Y477087D01*
X549131Y477101D01*
X549151Y477112D01*
X549286Y477229D01*
X549424Y477343D01*
X549438Y477361D01*
X549455Y477375D01*
X549565Y477516D01*
X549678Y477656D01*
X549688Y477676D01*
X549702Y477693D01*
X549782Y477854D01*
X549865Y478012D01*
X549871Y478034D01*
X549881Y478054D01*
X549928Y478227D01*
X549978Y478399D01*
X549980Y478421D01*
X549986Y478443D01*
X550013Y478773D01*
X550013Y483509D01*
X550011Y483532D01*
X550013Y483554D01*
X549991Y483731D01*
X549973Y483910D01*
X549967Y483931D01*
X549964Y483953D01*
X549908Y484123D01*
X549855Y484295D01*
X549844Y484315D01*
X549837Y484336D01*
X549749Y484491D01*
X549663Y484649D01*
X549649Y484666D01*
X549638Y484685D01*
X549520Y484821D01*
X549405Y484958D01*
X549388Y484972D01*
X549373Y484989D01*
X549231Y485099D01*
X549092Y485210D01*
X549072Y485221D01*
X549054Y485234D01*
X548759Y485386D01*
X548102Y485658D01*
X545387Y488373D01*
X543917Y491921D01*
X543917Y495761D01*
X545387Y499309D01*
X548102Y502025D01*
X551650Y503494D01*
X555490Y503494D01*
X559038Y502025D01*
X561753Y499309D01*
X563222Y495761D01*
X563222Y491921D01*
X561753Y488373D01*
X559038Y485658D01*
X558380Y485386D01*
X558361Y485375D01*
X558340Y485368D01*
X558183Y485280D01*
X558026Y485196D01*
X558008Y485182D01*
X557989Y485171D01*
X557853Y485053D01*
X557715Y484939D01*
X557701Y484922D01*
X557684Y484907D01*
X557575Y484766D01*
X557461Y484627D01*
X557451Y484607D01*
X557437Y484589D01*
X557358Y484429D01*
X557274Y484270D01*
X557268Y484249D01*
X557258Y484229D01*
X557212Y484055D01*
X557161Y483884D01*
X557159Y483862D01*
X557154Y483840D01*
X557126Y483509D01*
X557126Y478773D01*
X557129Y478751D01*
X557127Y478729D01*
X557149Y478551D01*
X557166Y478373D01*
X557173Y478351D01*
X557176Y478329D01*
X557232Y478159D01*
X557285Y477988D01*
X557295Y477968D01*
X557302Y477947D01*
X557391Y477791D01*
X557476Y477634D01*
X557491Y477617D01*
X557502Y477597D01*
X557619Y477462D01*
X557734Y477325D01*
X557751Y477311D01*
X557766Y477294D01*
X557909Y477184D01*
X558048Y477072D01*
X558067Y477062D01*
X558085Y477048D01*
X558380Y476897D01*
X559038Y476624D01*
X561753Y473909D01*
X563222Y470361D01*
X563222Y466521D01*
X562950Y465864D01*
X562944Y465843D01*
X562934Y465823D01*
X562886Y465650D01*
X562834Y465479D01*
X562832Y465457D01*
X562826Y465435D01*
X562813Y465255D01*
X562796Y465078D01*
X562798Y465056D01*
X562796Y465033D01*
X562819Y464855D01*
X562837Y464677D01*
X562844Y464656D01*
X562847Y464634D01*
X562904Y464464D01*
X562957Y464293D01*
X562968Y464273D01*
X562975Y464252D01*
X563064Y464097D01*
X563150Y463940D01*
X563165Y463923D01*
X563176Y463903D01*
X563391Y463650D01*
X579848Y447193D01*
X579869Y447176D01*
X579886Y447156D01*
X580024Y447049D01*
X580160Y446938D01*
X580183Y446925D01*
X580204Y446909D01*
X580361Y446831D01*
X580515Y446749D01*
X580541Y446742D01*
X580565Y446730D01*
X580734Y446684D01*
X580901Y446635D01*
X580928Y446632D01*
X580954Y446625D01*
X581284Y446598D01*
X619438Y446598D01*
X619460Y446600D01*
X619482Y446599D01*
X619660Y446620D01*
X619838Y446638D01*
X619860Y446645D01*
X619882Y446647D01*
X620052Y446703D01*
X620223Y446756D01*
X620243Y446767D01*
X620264Y446774D01*
X620420Y446862D01*
X620577Y446948D01*
X620594Y446962D01*
X620614Y446973D01*
X620749Y447091D01*
X620887Y447206D01*
X620900Y447223D01*
X620917Y447238D01*
X621027Y447380D01*
X621139Y447519D01*
X621149Y447539D01*
X621163Y447557D01*
X621314Y447852D01*
X621587Y448509D01*
X624302Y451225D01*
X627850Y452694D01*
X631690Y452694D01*
X635238Y451225D01*
X637953Y448509D01*
X639422Y444961D01*
X639422Y441121D01*
X637953Y437573D01*
X635238Y434858D01*
X634580Y434586D01*
X634561Y434575D01*
X634540Y434568D01*
X634383Y434480D01*
X634226Y434396D01*
X634208Y434382D01*
X634189Y434371D01*
X634053Y434253D01*
X633915Y434139D01*
X633901Y434122D01*
X633884Y434107D01*
X633775Y433966D01*
X633661Y433827D01*
X633651Y433807D01*
X633637Y433789D01*
X633558Y433629D01*
X633474Y433470D01*
X633468Y433449D01*
X633458Y433429D01*
X633412Y433255D01*
X633361Y433084D01*
X633359Y433062D01*
X633354Y433040D01*
X633326Y432709D01*
X633326Y432692D01*
X631180Y430545D01*
X631171Y430535D01*
X631161Y430526D01*
X631044Y430379D01*
X630925Y430234D01*
X630919Y430222D01*
X630910Y430211D01*
X630824Y430044D01*
X630736Y429878D01*
X630732Y429865D01*
X630726Y429853D01*
X630675Y429672D01*
X630621Y429492D01*
X630620Y429479D01*
X630617Y429466D01*
X630602Y429280D01*
X630585Y429091D01*
X630587Y429078D01*
X630586Y429064D01*
X630608Y428880D01*
X630628Y428691D01*
X630633Y428678D01*
X630634Y428665D01*
X630693Y428487D01*
X630750Y428307D01*
X630756Y428295D01*
X630761Y428283D01*
X630854Y428119D01*
X630945Y427955D01*
X630953Y427945D01*
X630960Y427933D01*
X631084Y427791D01*
X631205Y427648D01*
X631216Y427639D01*
X631225Y427629D01*
X631373Y427515D01*
X631521Y427398D01*
X631533Y427392D01*
X631544Y427384D01*
X631839Y427232D01*
X635238Y425825D01*
X637953Y423109D01*
X638225Y422452D01*
X638236Y422432D01*
X638243Y422411D01*
X638331Y422255D01*
X638415Y422097D01*
X638430Y422080D01*
X638441Y422060D01*
X638558Y421925D01*
X638672Y421787D01*
X638689Y421773D01*
X638704Y421756D01*
X638845Y421646D01*
X638984Y421533D01*
X639004Y421523D01*
X639022Y421509D01*
X639182Y421429D01*
X639341Y421346D01*
X639362Y421340D01*
X639382Y421330D01*
X639556Y421283D01*
X639727Y421233D01*
X639749Y421231D01*
X639771Y421225D01*
X640102Y421198D01*
X780147Y421198D01*
X780174Y421201D01*
X780200Y421199D01*
X780374Y421221D01*
X780548Y421238D01*
X780573Y421246D01*
X780600Y421249D01*
X780765Y421305D01*
X780933Y421356D01*
X780956Y421369D01*
X780981Y421377D01*
X781133Y421465D01*
X781287Y421548D01*
X781307Y421565D01*
X781330Y421578D01*
X781583Y421793D01*
X809217Y449427D01*
X809234Y449447D01*
X809254Y449465D01*
X809361Y449603D01*
X809472Y449738D01*
X809485Y449762D01*
X809501Y449783D01*
X809579Y449940D01*
X809661Y450094D01*
X809668Y450119D01*
X809680Y450144D01*
X809726Y450313D01*
X809776Y450480D01*
X809778Y450506D01*
X809785Y450532D01*
X809812Y450863D01*
X809812Y546542D01*
X809809Y546569D01*
X809811Y546595D01*
X809789Y546769D01*
X809772Y546943D01*
X809764Y546968D01*
X809761Y546995D01*
X809705Y547161D01*
X809654Y547328D01*
X809641Y547351D01*
X809633Y547377D01*
X809545Y547528D01*
X809462Y547682D01*
X809445Y547702D01*
X809432Y547725D01*
X809217Y547978D01*
X801127Y556069D01*
X801106Y556085D01*
X801089Y556106D01*
X800951Y556213D01*
X800816Y556324D01*
X800792Y556336D01*
X800771Y556353D01*
X800614Y556431D01*
X800460Y556512D01*
X800434Y556520D01*
X800410Y556532D01*
X800241Y556577D01*
X800074Y556627D01*
X800047Y556629D01*
X800021Y556636D01*
X799691Y556663D01*
X787096Y556663D01*
X787074Y556661D01*
X787052Y556663D01*
X786874Y556641D01*
X786695Y556624D01*
X786674Y556617D01*
X786652Y556614D01*
X786482Y556558D01*
X786310Y556505D01*
X786291Y556495D01*
X786270Y556488D01*
X786114Y556399D01*
X785956Y556314D01*
X785939Y556299D01*
X785920Y556288D01*
X785785Y556170D01*
X785647Y556056D01*
X785633Y556039D01*
X785616Y556024D01*
X785507Y555882D01*
X785395Y555742D01*
X785385Y555722D01*
X785371Y555705D01*
X785219Y555409D01*
X785066Y555040D01*
X782494Y552468D01*
X779133Y551075D01*
X760255Y551075D01*
X756894Y552468D01*
X754321Y555040D01*
X752929Y558401D01*
X752929Y562039D01*
X754321Y565400D01*
X756894Y567973D01*
X760255Y569365D01*
X779133Y569365D01*
X782494Y567973D01*
X785066Y565400D01*
X785219Y565031D01*
X785230Y565011D01*
X785237Y564990D01*
X785325Y564834D01*
X785410Y564676D01*
X785424Y564659D01*
X785435Y564639D01*
X785552Y564504D01*
X785666Y564366D01*
X785683Y564352D01*
X785698Y564335D01*
X785839Y564225D01*
X785979Y564112D01*
X785998Y564101D01*
X786016Y564088D01*
X786176Y564008D01*
X786335Y563925D01*
X786356Y563919D01*
X786377Y563909D01*
X786550Y563862D01*
X786722Y563812D01*
X786744Y563810D01*
X786765Y563804D01*
X787096Y563777D01*
X803479Y563777D01*
X816925Y550330D01*
X816925Y447075D01*
X783935Y414085D01*
X640102Y414085D01*
X640080Y414082D01*
X640057Y414084D01*
X639879Y414062D01*
X639701Y414045D01*
X639680Y414038D01*
X639658Y414035D01*
X639488Y413979D01*
X639316Y413927D01*
X639297Y413916D01*
X639276Y413909D01*
X639120Y413820D01*
X638962Y413735D01*
X638945Y413721D01*
X638926Y413710D01*
X638790Y413592D01*
X638653Y413477D01*
X638639Y413460D01*
X638622Y413445D01*
X638513Y413303D01*
X638401Y413163D01*
X638390Y413144D01*
X638377Y413126D01*
X638225Y412831D01*
X638015Y412323D01*
X638011Y412310D01*
X638005Y412298D01*
X637953Y412118D01*
X637898Y411937D01*
X637897Y411924D01*
X637893Y411911D01*
X637878Y411723D01*
X637860Y411537D01*
X637861Y411523D01*
X637860Y411510D01*
X637882Y411323D01*
X637902Y411136D01*
X637906Y411123D01*
X637907Y411110D01*
X637966Y410931D01*
X638022Y410752D01*
X638028Y410740D01*
X638032Y410727D01*
X638125Y410563D01*
X638215Y410398D01*
X638223Y410388D01*
X638230Y410376D01*
X638353Y410234D01*
X638474Y410090D01*
X638484Y410082D01*
X638493Y410072D01*
X638641Y409957D01*
X638789Y409839D01*
X638801Y409833D01*
X638811Y409825D01*
X638979Y409741D01*
X639147Y409655D01*
X639160Y409652D01*
X639172Y409646D01*
X639354Y409597D01*
X639534Y409546D01*
X639548Y409545D01*
X639561Y409541D01*
X639891Y409514D01*
X774240Y409514D01*
X774284Y409470D01*
X814377Y369377D01*
X814391Y369363D01*
X814412Y369346D01*
X814429Y369326D01*
X814567Y369219D01*
X814702Y369108D01*
X814726Y369096D01*
X814747Y369079D01*
X814904Y369001D01*
X815058Y368920D01*
X815084Y368912D01*
X815108Y368900D01*
X815277Y368854D01*
X815444Y368805D01*
X815471Y368802D01*
X815497Y368795D01*
X815827Y368768D01*
X834014Y368768D01*
X834036Y368771D01*
X834058Y368769D01*
X834236Y368790D01*
X834415Y368808D01*
X834436Y368815D01*
X834458Y368817D01*
X834628Y368874D01*
X834799Y368926D01*
X834819Y368937D01*
X834840Y368944D01*
X834996Y369033D01*
X835154Y369118D01*
X835171Y369132D01*
X835190Y369143D01*
X835325Y369261D01*
X835463Y369376D01*
X835477Y369393D01*
X835494Y369408D01*
X835603Y369550D01*
X835715Y369690D01*
X835725Y369709D01*
X835739Y369727D01*
X835891Y370022D01*
X836044Y370392D01*
X838616Y372964D01*
X841977Y374356D01*
X860855Y374356D01*
X864216Y372964D01*
X866789Y370392D01*
X868181Y367031D01*
X868181Y363393D01*
X866789Y360031D01*
X864216Y357459D01*
X860855Y356067D01*
X841977Y356067D01*
G37*
%LPD*%
%LPC*%
G36*
X467931Y268797D02*
X467931Y268797D01*
X464570Y270189D01*
X461997Y272761D01*
X460605Y276122D01*
X460605Y279760D01*
X461997Y283121D01*
X464570Y285694D01*
X467931Y287086D01*
X480643Y287086D01*
X480670Y287089D01*
X480696Y287087D01*
X480870Y287109D01*
X481044Y287126D01*
X481069Y287134D01*
X481096Y287137D01*
X481262Y287193D01*
X481429Y287244D01*
X481452Y287257D01*
X481478Y287265D01*
X481629Y287353D01*
X481783Y287436D01*
X481803Y287453D01*
X481826Y287466D01*
X482079Y287681D01*
X485127Y290729D01*
X485133Y290736D01*
X485140Y290742D01*
X485260Y290891D01*
X485383Y291041D01*
X485387Y291048D01*
X485392Y291055D01*
X485481Y291226D01*
X485571Y291396D01*
X485574Y291405D01*
X485578Y291413D01*
X485631Y291598D01*
X485686Y291782D01*
X485687Y291791D01*
X485689Y291800D01*
X485705Y291991D01*
X485722Y292183D01*
X485721Y292192D01*
X485722Y292201D01*
X485700Y292390D01*
X485679Y292583D01*
X485676Y292592D01*
X485675Y292601D01*
X485616Y292783D01*
X485557Y292967D01*
X485553Y292975D01*
X485550Y292984D01*
X485455Y293152D01*
X485363Y293320D01*
X485357Y293326D01*
X485352Y293334D01*
X485226Y293480D01*
X485102Y293627D01*
X485095Y293632D01*
X485089Y293639D01*
X484938Y293756D01*
X484786Y293876D01*
X484778Y293880D01*
X484771Y293886D01*
X484599Y293971D01*
X484427Y294059D01*
X484419Y294061D01*
X484411Y294065D01*
X484224Y294115D01*
X484039Y294167D01*
X484031Y294167D01*
X484022Y294169D01*
X483691Y294197D01*
X467931Y294197D01*
X464570Y295589D01*
X461997Y298161D01*
X460605Y301522D01*
X460605Y305160D01*
X461997Y308521D01*
X464570Y311094D01*
X467931Y312486D01*
X480643Y312486D01*
X480670Y312489D01*
X480696Y312487D01*
X480870Y312509D01*
X481044Y312526D01*
X481069Y312534D01*
X481096Y312537D01*
X481262Y312593D01*
X481429Y312644D01*
X481452Y312657D01*
X481478Y312665D01*
X481629Y312753D01*
X481783Y312836D01*
X481803Y312853D01*
X481826Y312866D01*
X482079Y313081D01*
X485127Y316129D01*
X485133Y316136D01*
X485140Y316142D01*
X485260Y316291D01*
X485383Y316441D01*
X485387Y316448D01*
X485392Y316455D01*
X485481Y316627D01*
X485571Y316796D01*
X485574Y316805D01*
X485578Y316813D01*
X485631Y316998D01*
X485686Y317182D01*
X485687Y317191D01*
X485689Y317200D01*
X485705Y317391D01*
X485722Y317583D01*
X485721Y317592D01*
X485722Y317601D01*
X485700Y317790D01*
X485679Y317983D01*
X485676Y317992D01*
X485675Y318001D01*
X485616Y318183D01*
X485557Y318367D01*
X485553Y318375D01*
X485550Y318384D01*
X485455Y318552D01*
X485363Y318720D01*
X485357Y318726D01*
X485352Y318734D01*
X485226Y318880D01*
X485102Y319027D01*
X485095Y319032D01*
X485089Y319039D01*
X484938Y319156D01*
X484786Y319276D01*
X484778Y319280D01*
X484771Y319286D01*
X484599Y319371D01*
X484427Y319459D01*
X484419Y319461D01*
X484411Y319465D01*
X484224Y319515D01*
X484039Y319567D01*
X484031Y319567D01*
X484022Y319569D01*
X483691Y319597D01*
X467931Y319597D01*
X464570Y320989D01*
X461997Y323561D01*
X460605Y326922D01*
X460605Y330560D01*
X461997Y333921D01*
X464570Y336494D01*
X466637Y337350D01*
X467931Y337886D01*
X480643Y337886D01*
X480670Y337889D01*
X480696Y337887D01*
X480870Y337909D01*
X481044Y337926D01*
X481069Y337934D01*
X481096Y337937D01*
X481262Y337993D01*
X481429Y338044D01*
X481452Y338057D01*
X481478Y338065D01*
X481629Y338153D01*
X481783Y338236D01*
X481803Y338253D01*
X481826Y338266D01*
X482079Y338481D01*
X485127Y341529D01*
X485133Y341536D01*
X485140Y341542D01*
X485260Y341691D01*
X485383Y341841D01*
X485387Y341848D01*
X485392Y341855D01*
X485481Y342027D01*
X485571Y342196D01*
X485574Y342205D01*
X485578Y342213D01*
X485631Y342398D01*
X485686Y342582D01*
X485687Y342591D01*
X485689Y342600D01*
X485705Y342791D01*
X485722Y342983D01*
X485721Y342992D01*
X485722Y343001D01*
X485700Y343190D01*
X485679Y343383D01*
X485676Y343392D01*
X485675Y343401D01*
X485616Y343583D01*
X485557Y343767D01*
X485553Y343775D01*
X485550Y343784D01*
X485455Y343952D01*
X485363Y344120D01*
X485357Y344126D01*
X485352Y344134D01*
X485226Y344280D01*
X485102Y344427D01*
X485095Y344432D01*
X485089Y344439D01*
X484938Y344556D01*
X484786Y344676D01*
X484778Y344680D01*
X484771Y344686D01*
X484599Y344771D01*
X484427Y344859D01*
X484419Y344861D01*
X484411Y344865D01*
X484224Y344915D01*
X484039Y344967D01*
X484031Y344967D01*
X484022Y344969D01*
X483691Y344997D01*
X467931Y344997D01*
X464570Y346389D01*
X461997Y348961D01*
X460605Y352322D01*
X460605Y355960D01*
X461997Y359321D01*
X464570Y361894D01*
X467931Y363286D01*
X480643Y363286D01*
X480670Y363289D01*
X480696Y363287D01*
X480870Y363309D01*
X481044Y363326D01*
X481069Y363334D01*
X481096Y363337D01*
X481261Y363393D01*
X481429Y363444D01*
X481452Y363457D01*
X481478Y363465D01*
X481629Y363552D01*
X481783Y363636D01*
X481803Y363653D01*
X481826Y363666D01*
X482079Y363881D01*
X485127Y366929D01*
X485133Y366936D01*
X485140Y366942D01*
X485260Y367091D01*
X485383Y367241D01*
X485387Y367248D01*
X485392Y367255D01*
X485481Y367426D01*
X485571Y367596D01*
X485574Y367605D01*
X485578Y367613D01*
X485631Y367797D01*
X485686Y367982D01*
X485687Y367991D01*
X485689Y368000D01*
X485705Y368191D01*
X485722Y368383D01*
X485721Y368392D01*
X485722Y368401D01*
X485700Y368590D01*
X485679Y368783D01*
X485676Y368792D01*
X485675Y368801D01*
X485616Y368983D01*
X485557Y369167D01*
X485553Y369175D01*
X485550Y369184D01*
X485455Y369352D01*
X485363Y369520D01*
X485357Y369526D01*
X485352Y369534D01*
X485226Y369680D01*
X485102Y369827D01*
X485095Y369832D01*
X485089Y369839D01*
X484938Y369956D01*
X484786Y370076D01*
X484778Y370080D01*
X484771Y370086D01*
X484599Y370171D01*
X484427Y370259D01*
X484419Y370261D01*
X484411Y370265D01*
X484225Y370315D01*
X484039Y370367D01*
X484030Y370367D01*
X484022Y370369D01*
X483691Y370397D01*
X467931Y370397D01*
X464570Y371789D01*
X461997Y374361D01*
X460605Y377722D01*
X460605Y381360D01*
X461997Y384721D01*
X464570Y387294D01*
X467931Y388686D01*
X480643Y388686D01*
X480670Y388689D01*
X480696Y388687D01*
X480870Y388709D01*
X481044Y388726D01*
X481069Y388734D01*
X481096Y388737D01*
X481261Y388793D01*
X481429Y388844D01*
X481452Y388857D01*
X481478Y388865D01*
X481629Y388952D01*
X481783Y389036D01*
X481803Y389053D01*
X481826Y389066D01*
X482079Y389281D01*
X485127Y392329D01*
X485133Y392336D01*
X485140Y392342D01*
X485260Y392491D01*
X485383Y392641D01*
X485387Y392648D01*
X485392Y392655D01*
X485481Y392826D01*
X485571Y392996D01*
X485574Y393005D01*
X485578Y393013D01*
X485631Y393197D01*
X485686Y393382D01*
X485687Y393391D01*
X485689Y393400D01*
X485705Y393591D01*
X485722Y393783D01*
X485721Y393792D01*
X485722Y393801D01*
X485700Y393990D01*
X485679Y394183D01*
X485676Y394192D01*
X485675Y394201D01*
X485616Y394383D01*
X485557Y394567D01*
X485553Y394575D01*
X485550Y394584D01*
X485455Y394752D01*
X485363Y394920D01*
X485357Y394926D01*
X485352Y394934D01*
X485226Y395080D01*
X485102Y395227D01*
X485095Y395232D01*
X485089Y395239D01*
X484938Y395356D01*
X484786Y395476D01*
X484778Y395480D01*
X484771Y395486D01*
X484599Y395571D01*
X484427Y395659D01*
X484419Y395661D01*
X484411Y395665D01*
X484225Y395715D01*
X484039Y395767D01*
X484030Y395767D01*
X484022Y395769D01*
X483691Y395797D01*
X467931Y395797D01*
X464570Y397189D01*
X461997Y399761D01*
X460605Y403122D01*
X460605Y406760D01*
X461997Y410121D01*
X464570Y412694D01*
X467931Y414086D01*
X480643Y414086D01*
X480670Y414089D01*
X480696Y414087D01*
X480870Y414109D01*
X481044Y414126D01*
X481069Y414134D01*
X481096Y414137D01*
X481262Y414193D01*
X481429Y414244D01*
X481452Y414257D01*
X481478Y414265D01*
X481629Y414353D01*
X481783Y414436D01*
X481803Y414453D01*
X481826Y414466D01*
X482079Y414681D01*
X488596Y421198D01*
X543238Y421198D01*
X543260Y421200D01*
X543282Y421199D01*
X543460Y421220D01*
X543638Y421238D01*
X543660Y421245D01*
X543682Y421247D01*
X543852Y421303D01*
X544023Y421356D01*
X544043Y421367D01*
X544064Y421374D01*
X544220Y421462D01*
X544377Y421548D01*
X544394Y421562D01*
X544414Y421573D01*
X544549Y421691D01*
X544687Y421806D01*
X544700Y421823D01*
X544717Y421838D01*
X544827Y421980D01*
X544939Y422119D01*
X544949Y422139D01*
X544963Y422157D01*
X545114Y422452D01*
X545387Y423109D01*
X548102Y425825D01*
X550276Y426725D01*
X551650Y427294D01*
X555490Y427294D01*
X559038Y425825D01*
X561753Y423109D01*
X563222Y419561D01*
X563222Y415721D01*
X561753Y412173D01*
X559038Y409458D01*
X555826Y408128D01*
X555490Y407989D01*
X551650Y407989D01*
X548102Y409458D01*
X545387Y412173D01*
X545114Y412831D01*
X545104Y412850D01*
X545097Y412872D01*
X545009Y413028D01*
X544924Y413185D01*
X544910Y413203D01*
X544899Y413222D01*
X544782Y413358D01*
X544668Y413496D01*
X544650Y413510D01*
X544636Y413527D01*
X544495Y413636D01*
X544355Y413750D01*
X544335Y413760D01*
X544318Y413774D01*
X544158Y413853D01*
X543999Y413937D01*
X543977Y413943D01*
X543957Y413953D01*
X543784Y414000D01*
X543612Y414050D01*
X543590Y414052D01*
X543568Y414057D01*
X543238Y414085D01*
X493683Y414085D01*
X493674Y414084D01*
X493665Y414085D01*
X493473Y414064D01*
X493282Y414045D01*
X493274Y414042D01*
X493265Y414041D01*
X493082Y413983D01*
X492897Y413927D01*
X492890Y413922D01*
X492881Y413920D01*
X492713Y413827D01*
X492543Y413735D01*
X492536Y413729D01*
X492529Y413725D01*
X492382Y413600D01*
X492234Y413477D01*
X492229Y413470D01*
X492222Y413464D01*
X492102Y413312D01*
X491982Y413163D01*
X491978Y413155D01*
X491972Y413148D01*
X491884Y412976D01*
X491796Y412806D01*
X491794Y412797D01*
X491790Y412789D01*
X491738Y412604D01*
X491685Y412419D01*
X491684Y412410D01*
X491682Y412402D01*
X491668Y412209D01*
X491652Y412018D01*
X491653Y412009D01*
X491652Y412000D01*
X491677Y411809D01*
X491699Y411618D01*
X491702Y411609D01*
X491703Y411601D01*
X491764Y411418D01*
X491824Y411235D01*
X491828Y411227D01*
X491831Y411219D01*
X491927Y411052D01*
X492022Y410885D01*
X492028Y410878D01*
X492032Y410870D01*
X492247Y410617D01*
X492742Y410121D01*
X494134Y406760D01*
X494134Y403122D01*
X492742Y399761D01*
X492247Y399266D01*
X492241Y399259D01*
X492234Y399253D01*
X492114Y399103D01*
X491992Y398954D01*
X491987Y398946D01*
X491982Y398939D01*
X491894Y398770D01*
X491803Y398598D01*
X491800Y398590D01*
X491796Y398582D01*
X491743Y398398D01*
X491688Y398213D01*
X491687Y398204D01*
X491685Y398195D01*
X491669Y398004D01*
X491652Y397812D01*
X491653Y397803D01*
X491652Y397794D01*
X491674Y397604D01*
X491695Y397411D01*
X491698Y397403D01*
X491699Y397394D01*
X491759Y397211D01*
X491817Y397027D01*
X491821Y397020D01*
X491824Y397011D01*
X491919Y396843D01*
X492011Y396675D01*
X492017Y396668D01*
X492022Y396660D01*
X492147Y396515D01*
X492272Y396368D01*
X492279Y396363D01*
X492285Y396356D01*
X492437Y396238D01*
X492588Y396119D01*
X492596Y396114D01*
X492603Y396109D01*
X492776Y396023D01*
X492947Y395936D01*
X492955Y395934D01*
X492963Y395930D01*
X493152Y395879D01*
X493335Y395828D01*
X493343Y395827D01*
X493352Y395825D01*
X493683Y395798D01*
X543238Y395798D01*
X543260Y395800D01*
X543282Y395799D01*
X543460Y395820D01*
X543638Y395838D01*
X543660Y395845D01*
X543682Y395847D01*
X543852Y395903D01*
X544023Y395956D01*
X544043Y395967D01*
X544064Y395974D01*
X544220Y396062D01*
X544377Y396148D01*
X544394Y396162D01*
X544414Y396173D01*
X544549Y396291D01*
X544687Y396406D01*
X544700Y396423D01*
X544717Y396438D01*
X544827Y396580D01*
X544939Y396719D01*
X544949Y396739D01*
X544963Y396757D01*
X545114Y397052D01*
X545387Y397709D01*
X548102Y400425D01*
X551650Y401894D01*
X555490Y401894D01*
X559038Y400425D01*
X561753Y397709D01*
X563222Y394161D01*
X563222Y390321D01*
X561753Y386773D01*
X559038Y384058D01*
X555490Y382589D01*
X551650Y382589D01*
X548102Y384058D01*
X545387Y386773D01*
X545114Y387431D01*
X545104Y387450D01*
X545097Y387472D01*
X545009Y387628D01*
X544924Y387785D01*
X544910Y387803D01*
X544899Y387822D01*
X544782Y387958D01*
X544668Y388096D01*
X544650Y388110D01*
X544636Y388127D01*
X544495Y388236D01*
X544355Y388350D01*
X544335Y388360D01*
X544318Y388374D01*
X544158Y388453D01*
X543999Y388537D01*
X543977Y388543D01*
X543957Y388553D01*
X543784Y388600D01*
X543612Y388650D01*
X543590Y388652D01*
X543568Y388657D01*
X543238Y388685D01*
X493683Y388685D01*
X493674Y388684D01*
X493665Y388685D01*
X493473Y388664D01*
X493282Y388645D01*
X493274Y388642D01*
X493265Y388641D01*
X493082Y388583D01*
X492897Y388527D01*
X492890Y388522D01*
X492881Y388520D01*
X492713Y388427D01*
X492543Y388335D01*
X492536Y388329D01*
X492529Y388325D01*
X492382Y388200D01*
X492234Y388077D01*
X492229Y388070D01*
X492222Y388064D01*
X492102Y387912D01*
X491982Y387763D01*
X491978Y387755D01*
X491972Y387748D01*
X491884Y387576D01*
X491796Y387406D01*
X491794Y387397D01*
X491790Y387389D01*
X491738Y387204D01*
X491685Y387019D01*
X491684Y387010D01*
X491682Y387002D01*
X491668Y386809D01*
X491652Y386618D01*
X491653Y386609D01*
X491652Y386600D01*
X491677Y386409D01*
X491699Y386218D01*
X491702Y386209D01*
X491703Y386201D01*
X491764Y386018D01*
X491824Y385835D01*
X491828Y385827D01*
X491831Y385819D01*
X491927Y385652D01*
X492022Y385485D01*
X492028Y385478D01*
X492032Y385470D01*
X492247Y385217D01*
X492742Y384721D01*
X494134Y381360D01*
X494134Y377722D01*
X492742Y374361D01*
X492247Y373866D01*
X492241Y373859D01*
X492234Y373853D01*
X492114Y373704D01*
X491992Y373554D01*
X491987Y373546D01*
X491982Y373539D01*
X491894Y373370D01*
X491803Y373198D01*
X491800Y373190D01*
X491796Y373182D01*
X491743Y372997D01*
X491688Y372813D01*
X491687Y372804D01*
X491685Y372795D01*
X491669Y372604D01*
X491652Y372412D01*
X491653Y372403D01*
X491652Y372394D01*
X491674Y372204D01*
X491695Y372011D01*
X491698Y372003D01*
X491699Y371994D01*
X491759Y371811D01*
X491817Y371627D01*
X491821Y371620D01*
X491824Y371611D01*
X491919Y371443D01*
X492011Y371275D01*
X492017Y371268D01*
X492022Y371260D01*
X492147Y371115D01*
X492272Y370968D01*
X492279Y370963D01*
X492285Y370956D01*
X492437Y370838D01*
X492588Y370719D01*
X492596Y370714D01*
X492603Y370709D01*
X492776Y370623D01*
X492947Y370536D01*
X492955Y370534D01*
X492963Y370530D01*
X493152Y370479D01*
X493335Y370428D01*
X493343Y370427D01*
X493352Y370425D01*
X493683Y370398D01*
X543238Y370398D01*
X543260Y370400D01*
X543282Y370399D01*
X543460Y370420D01*
X543638Y370438D01*
X543660Y370445D01*
X543682Y370447D01*
X543852Y370503D01*
X544023Y370556D01*
X544043Y370567D01*
X544064Y370574D01*
X544220Y370662D01*
X544377Y370748D01*
X544394Y370762D01*
X544414Y370773D01*
X544549Y370891D01*
X544687Y371006D01*
X544700Y371023D01*
X544717Y371038D01*
X544827Y371180D01*
X544939Y371319D01*
X544949Y371339D01*
X544963Y371357D01*
X545114Y371652D01*
X545387Y372309D01*
X548102Y375025D01*
X551650Y376494D01*
X555490Y376494D01*
X559038Y375025D01*
X561753Y372309D01*
X563222Y368761D01*
X563222Y364921D01*
X561753Y361373D01*
X559038Y358658D01*
X555490Y357189D01*
X551650Y357189D01*
X548102Y358658D01*
X545387Y361373D01*
X545114Y362031D01*
X545104Y362050D01*
X545097Y362072D01*
X545009Y362228D01*
X544924Y362385D01*
X544910Y362403D01*
X544899Y362422D01*
X544782Y362558D01*
X544668Y362696D01*
X544650Y362710D01*
X544636Y362727D01*
X544495Y362836D01*
X544355Y362950D01*
X544335Y362960D01*
X544318Y362974D01*
X544158Y363053D01*
X543999Y363137D01*
X543977Y363143D01*
X543957Y363153D01*
X543784Y363200D01*
X543612Y363250D01*
X543590Y363252D01*
X543568Y363257D01*
X543238Y363285D01*
X493683Y363285D01*
X493674Y363284D01*
X493665Y363285D01*
X493473Y363264D01*
X493282Y363245D01*
X493274Y363242D01*
X493265Y363241D01*
X493082Y363183D01*
X492897Y363127D01*
X492890Y363122D01*
X492881Y363120D01*
X492713Y363027D01*
X492543Y362935D01*
X492536Y362929D01*
X492529Y362925D01*
X492382Y362800D01*
X492234Y362677D01*
X492229Y362670D01*
X492222Y362664D01*
X492102Y362512D01*
X491982Y362363D01*
X491978Y362355D01*
X491972Y362348D01*
X491884Y362175D01*
X491796Y362006D01*
X491794Y361997D01*
X491790Y361989D01*
X491738Y361804D01*
X491685Y361619D01*
X491684Y361610D01*
X491682Y361602D01*
X491668Y361409D01*
X491652Y361218D01*
X491653Y361209D01*
X491652Y361200D01*
X491677Y361009D01*
X491699Y360818D01*
X491702Y360809D01*
X491703Y360801D01*
X491764Y360618D01*
X491824Y360435D01*
X491828Y360427D01*
X491831Y360419D01*
X491927Y360252D01*
X492022Y360085D01*
X492028Y360078D01*
X492032Y360070D01*
X492247Y359817D01*
X492742Y359321D01*
X494134Y355960D01*
X494134Y352322D01*
X492742Y348961D01*
X492247Y348466D01*
X492241Y348459D01*
X492234Y348453D01*
X492114Y348304D01*
X491992Y348154D01*
X491987Y348146D01*
X491982Y348139D01*
X491894Y347970D01*
X491803Y347798D01*
X491800Y347790D01*
X491796Y347782D01*
X491743Y347597D01*
X491688Y347413D01*
X491687Y347404D01*
X491685Y347395D01*
X491669Y347204D01*
X491652Y347012D01*
X491653Y347003D01*
X491652Y346994D01*
X491674Y346804D01*
X491695Y346611D01*
X491698Y346603D01*
X491699Y346594D01*
X491759Y346411D01*
X491817Y346227D01*
X491821Y346220D01*
X491824Y346211D01*
X491919Y346043D01*
X492011Y345875D01*
X492017Y345868D01*
X492022Y345860D01*
X492147Y345715D01*
X492272Y345568D01*
X492279Y345563D01*
X492285Y345556D01*
X492437Y345438D01*
X492588Y345319D01*
X492596Y345314D01*
X492603Y345309D01*
X492776Y345223D01*
X492947Y345136D01*
X492955Y345134D01*
X492963Y345130D01*
X493152Y345079D01*
X493335Y345028D01*
X493343Y345027D01*
X493352Y345025D01*
X493683Y344998D01*
X543238Y344998D01*
X543260Y345000D01*
X543282Y344999D01*
X543460Y345020D01*
X543638Y345038D01*
X543660Y345045D01*
X543682Y345047D01*
X543852Y345103D01*
X544023Y345156D01*
X544043Y345167D01*
X544064Y345174D01*
X544220Y345262D01*
X544377Y345348D01*
X544394Y345362D01*
X544414Y345373D01*
X544549Y345491D01*
X544687Y345606D01*
X544700Y345623D01*
X544717Y345638D01*
X544827Y345780D01*
X544939Y345919D01*
X544949Y345939D01*
X544963Y345957D01*
X545114Y346252D01*
X545387Y346909D01*
X548102Y349625D01*
X551650Y351094D01*
X555490Y351094D01*
X559038Y349625D01*
X561753Y346909D01*
X563222Y343361D01*
X563222Y339521D01*
X561753Y335973D01*
X559038Y333258D01*
X555490Y331789D01*
X551650Y331789D01*
X548102Y333258D01*
X545387Y335973D01*
X545114Y336631D01*
X545104Y336650D01*
X545097Y336672D01*
X545009Y336828D01*
X544924Y336985D01*
X544910Y337003D01*
X544899Y337022D01*
X544782Y337158D01*
X544668Y337296D01*
X544650Y337310D01*
X544636Y337327D01*
X544495Y337436D01*
X544355Y337550D01*
X544335Y337560D01*
X544318Y337574D01*
X544158Y337653D01*
X543999Y337737D01*
X543977Y337743D01*
X543957Y337753D01*
X543784Y337800D01*
X543612Y337850D01*
X543590Y337852D01*
X543568Y337857D01*
X543238Y337885D01*
X493683Y337885D01*
X493674Y337884D01*
X493665Y337885D01*
X493473Y337864D01*
X493282Y337845D01*
X493274Y337842D01*
X493265Y337841D01*
X493082Y337783D01*
X492897Y337727D01*
X492890Y337722D01*
X492881Y337720D01*
X492713Y337627D01*
X492543Y337535D01*
X492536Y337529D01*
X492529Y337525D01*
X492382Y337400D01*
X492234Y337277D01*
X492229Y337270D01*
X492222Y337264D01*
X492102Y337112D01*
X491982Y336963D01*
X491978Y336955D01*
X491972Y336948D01*
X491884Y336776D01*
X491796Y336606D01*
X491794Y336597D01*
X491790Y336589D01*
X491738Y336404D01*
X491685Y336219D01*
X491684Y336210D01*
X491682Y336202D01*
X491668Y336009D01*
X491652Y335818D01*
X491653Y335809D01*
X491652Y335800D01*
X491677Y335609D01*
X491699Y335418D01*
X491702Y335409D01*
X491703Y335401D01*
X491764Y335218D01*
X491824Y335035D01*
X491828Y335027D01*
X491831Y335019D01*
X491928Y334850D01*
X492022Y334685D01*
X492028Y334678D01*
X492032Y334670D01*
X492247Y334417D01*
X492742Y333921D01*
X494134Y330560D01*
X494134Y326922D01*
X492742Y323561D01*
X492247Y323066D01*
X492241Y323059D01*
X492234Y323053D01*
X492114Y322904D01*
X491992Y322754D01*
X491987Y322746D01*
X491982Y322739D01*
X491894Y322570D01*
X491803Y322398D01*
X491800Y322390D01*
X491796Y322382D01*
X491743Y322197D01*
X491688Y322013D01*
X491687Y322004D01*
X491685Y321995D01*
X491669Y321804D01*
X491652Y321612D01*
X491653Y321603D01*
X491652Y321594D01*
X491674Y321404D01*
X491695Y321211D01*
X491698Y321203D01*
X491699Y321194D01*
X491759Y321011D01*
X491817Y320827D01*
X491821Y320820D01*
X491824Y320811D01*
X491919Y320643D01*
X492011Y320475D01*
X492017Y320468D01*
X492022Y320460D01*
X492147Y320315D01*
X492272Y320168D01*
X492279Y320163D01*
X492285Y320156D01*
X492437Y320038D01*
X492588Y319919D01*
X492596Y319914D01*
X492603Y319909D01*
X492776Y319823D01*
X492947Y319736D01*
X492955Y319734D01*
X492963Y319730D01*
X493152Y319679D01*
X493335Y319628D01*
X493343Y319627D01*
X493352Y319625D01*
X493683Y319598D01*
X543238Y319598D01*
X543260Y319600D01*
X543282Y319599D01*
X543460Y319620D01*
X543638Y319638D01*
X543660Y319645D01*
X543682Y319647D01*
X543852Y319703D01*
X544023Y319756D01*
X544043Y319767D01*
X544064Y319774D01*
X544220Y319862D01*
X544377Y319948D01*
X544394Y319962D01*
X544414Y319973D01*
X544549Y320091D01*
X544687Y320206D01*
X544700Y320223D01*
X544717Y320238D01*
X544827Y320380D01*
X544939Y320519D01*
X544949Y320539D01*
X544963Y320557D01*
X545114Y320852D01*
X545387Y321509D01*
X548102Y324225D01*
X550366Y325162D01*
X550366Y325163D01*
X550367Y325163D01*
X551650Y325694D01*
X555490Y325694D01*
X559038Y324225D01*
X561753Y321509D01*
X563222Y317961D01*
X563222Y314121D01*
X561753Y310573D01*
X559038Y307858D01*
X555916Y306565D01*
X555490Y306389D01*
X551650Y306389D01*
X548102Y307858D01*
X545387Y310573D01*
X545114Y311231D01*
X545104Y311250D01*
X545097Y311272D01*
X545009Y311428D01*
X544924Y311585D01*
X544910Y311603D01*
X544899Y311622D01*
X544782Y311758D01*
X544668Y311896D01*
X544650Y311910D01*
X544636Y311927D01*
X544495Y312036D01*
X544355Y312150D01*
X544335Y312160D01*
X544318Y312174D01*
X544158Y312253D01*
X543999Y312337D01*
X543977Y312343D01*
X543957Y312353D01*
X543784Y312400D01*
X543612Y312450D01*
X543590Y312452D01*
X543568Y312457D01*
X543238Y312485D01*
X493683Y312485D01*
X493674Y312484D01*
X493665Y312485D01*
X493473Y312464D01*
X493282Y312445D01*
X493274Y312442D01*
X493265Y312441D01*
X493082Y312383D01*
X492897Y312327D01*
X492890Y312322D01*
X492881Y312320D01*
X492713Y312227D01*
X492543Y312135D01*
X492536Y312129D01*
X492529Y312125D01*
X492382Y312000D01*
X492234Y311877D01*
X492229Y311870D01*
X492222Y311864D01*
X492102Y311712D01*
X491982Y311563D01*
X491978Y311555D01*
X491972Y311548D01*
X491884Y311376D01*
X491796Y311206D01*
X491794Y311197D01*
X491790Y311189D01*
X491738Y311004D01*
X491685Y310819D01*
X491684Y310810D01*
X491682Y310802D01*
X491668Y310609D01*
X491652Y310418D01*
X491653Y310409D01*
X491652Y310400D01*
X491677Y310209D01*
X491699Y310018D01*
X491702Y310009D01*
X491703Y310001D01*
X491764Y309818D01*
X491824Y309635D01*
X491828Y309627D01*
X491831Y309619D01*
X491927Y309452D01*
X492022Y309285D01*
X492028Y309278D01*
X492032Y309270D01*
X492247Y309017D01*
X492742Y308521D01*
X494134Y305160D01*
X494134Y301522D01*
X492742Y298161D01*
X492247Y297666D01*
X492241Y297659D01*
X492234Y297653D01*
X492114Y297504D01*
X491992Y297354D01*
X491987Y297346D01*
X491982Y297339D01*
X491894Y297170D01*
X491803Y296998D01*
X491800Y296990D01*
X491796Y296982D01*
X491743Y296797D01*
X491688Y296613D01*
X491687Y296604D01*
X491685Y296595D01*
X491669Y296404D01*
X491652Y296212D01*
X491653Y296203D01*
X491652Y296194D01*
X491674Y296004D01*
X491695Y295811D01*
X491698Y295803D01*
X491699Y295794D01*
X491759Y295611D01*
X491817Y295427D01*
X491821Y295420D01*
X491824Y295411D01*
X491919Y295243D01*
X492011Y295075D01*
X492017Y295068D01*
X492022Y295060D01*
X492147Y294915D01*
X492272Y294768D01*
X492279Y294763D01*
X492285Y294756D01*
X492437Y294638D01*
X492588Y294519D01*
X492596Y294514D01*
X492603Y294509D01*
X492776Y294423D01*
X492947Y294336D01*
X492955Y294334D01*
X492963Y294330D01*
X493152Y294279D01*
X493335Y294228D01*
X493343Y294227D01*
X493352Y294225D01*
X493683Y294198D01*
X543238Y294198D01*
X543260Y294200D01*
X543282Y294199D01*
X543460Y294220D01*
X543638Y294238D01*
X543660Y294245D01*
X543682Y294247D01*
X543852Y294303D01*
X544023Y294356D01*
X544043Y294367D01*
X544064Y294374D01*
X544220Y294462D01*
X544377Y294548D01*
X544394Y294562D01*
X544414Y294573D01*
X544549Y294691D01*
X544687Y294806D01*
X544700Y294823D01*
X544717Y294838D01*
X544827Y294980D01*
X544939Y295119D01*
X544949Y295139D01*
X544963Y295157D01*
X545114Y295452D01*
X545387Y296109D01*
X548102Y298825D01*
X551650Y300294D01*
X555490Y300294D01*
X559038Y298825D01*
X561753Y296109D01*
X563222Y292561D01*
X563222Y288721D01*
X561753Y285173D01*
X559038Y282458D01*
X558391Y282190D01*
X555490Y280989D01*
X551650Y280989D01*
X548102Y282458D01*
X545387Y285173D01*
X545114Y285831D01*
X545104Y285850D01*
X545097Y285872D01*
X545009Y286028D01*
X544924Y286185D01*
X544910Y286203D01*
X544899Y286222D01*
X544782Y286358D01*
X544668Y286496D01*
X544650Y286510D01*
X544636Y286527D01*
X544495Y286636D01*
X544355Y286750D01*
X544335Y286760D01*
X544318Y286774D01*
X544158Y286853D01*
X543999Y286937D01*
X543977Y286943D01*
X543957Y286953D01*
X543784Y287000D01*
X543612Y287050D01*
X543590Y287052D01*
X543568Y287057D01*
X543238Y287085D01*
X493683Y287085D01*
X493674Y287084D01*
X493665Y287085D01*
X493473Y287064D01*
X493282Y287045D01*
X493274Y287042D01*
X493265Y287041D01*
X493082Y286983D01*
X492897Y286927D01*
X492890Y286922D01*
X492881Y286920D01*
X492713Y286827D01*
X492543Y286735D01*
X492536Y286729D01*
X492529Y286725D01*
X492382Y286600D01*
X492234Y286477D01*
X492229Y286470D01*
X492222Y286464D01*
X492102Y286312D01*
X491982Y286163D01*
X491978Y286155D01*
X491972Y286148D01*
X491884Y285975D01*
X491796Y285806D01*
X491794Y285797D01*
X491790Y285789D01*
X491738Y285604D01*
X491685Y285419D01*
X491684Y285410D01*
X491682Y285402D01*
X491668Y285209D01*
X491652Y285018D01*
X491653Y285009D01*
X491652Y285000D01*
X491677Y284809D01*
X491699Y284618D01*
X491702Y284609D01*
X491703Y284601D01*
X491764Y284418D01*
X491824Y284235D01*
X491828Y284227D01*
X491831Y284219D01*
X491927Y284052D01*
X492022Y283885D01*
X492028Y283878D01*
X492032Y283870D01*
X492247Y283617D01*
X492742Y283121D01*
X494134Y279760D01*
X494134Y276122D01*
X492742Y272761D01*
X490170Y270189D01*
X486809Y268797D01*
X467931Y268797D01*
G37*
%LPD*%
%LPC*%
G36*
X466533Y106171D02*
X466533Y106171D01*
X461771Y110933D01*
X461771Y117667D01*
X466533Y122429D01*
X473267Y122429D01*
X474196Y121500D01*
X474217Y121483D01*
X474234Y121462D01*
X474372Y121355D01*
X474508Y121245D01*
X474531Y121232D01*
X474552Y121216D01*
X474709Y121138D01*
X474863Y121056D01*
X474889Y121048D01*
X474913Y121036D01*
X475082Y120991D01*
X475249Y120941D01*
X475276Y120939D01*
X475302Y120932D01*
X475632Y120905D01*
X654304Y120905D01*
X654322Y120907D01*
X654340Y120905D01*
X654522Y120926D01*
X654705Y120945D01*
X654722Y120950D01*
X654739Y120952D01*
X654914Y121009D01*
X655090Y121063D01*
X655105Y121071D01*
X655122Y121077D01*
X655282Y121167D01*
X655444Y121255D01*
X655457Y121266D01*
X655473Y121275D01*
X655612Y121395D01*
X655753Y121512D01*
X655764Y121526D01*
X655778Y121538D01*
X655890Y121683D01*
X656005Y121826D01*
X656013Y121842D01*
X656024Y121856D01*
X656106Y122021D01*
X656191Y122183D01*
X656196Y122200D01*
X656204Y122216D01*
X656251Y122395D01*
X656302Y122570D01*
X656304Y122588D01*
X656308Y122605D01*
X656335Y122936D01*
X656335Y141156D01*
X656954Y142650D01*
X671100Y156796D01*
X672594Y157415D01*
X713587Y157415D01*
X713613Y157417D01*
X713640Y157415D01*
X713814Y157437D01*
X713987Y157454D01*
X714013Y157462D01*
X714039Y157466D01*
X714205Y157521D01*
X714372Y157573D01*
X714396Y157585D01*
X714421Y157594D01*
X714573Y157681D01*
X714726Y157764D01*
X714747Y157781D01*
X714770Y157795D01*
X715023Y158009D01*
X727374Y170361D01*
X727391Y170382D01*
X727412Y170399D01*
X727519Y170537D01*
X727630Y170673D01*
X727642Y170696D01*
X727658Y170717D01*
X727737Y170874D01*
X727818Y171028D01*
X727826Y171054D01*
X727838Y171078D01*
X727883Y171247D01*
X727933Y171414D01*
X727935Y171441D01*
X727942Y171467D01*
X727969Y171797D01*
X727969Y172887D01*
X727967Y172914D01*
X727969Y172941D01*
X727947Y173115D01*
X727930Y173288D01*
X727922Y173314D01*
X727918Y173340D01*
X727863Y173506D01*
X727811Y173673D01*
X727799Y173697D01*
X727790Y173722D01*
X727703Y173874D01*
X727620Y174027D01*
X727603Y174048D01*
X727589Y174071D01*
X727374Y174324D01*
X723870Y177829D01*
X723870Y184563D01*
X728631Y189324D01*
X735365Y189324D01*
X740127Y184563D01*
X740127Y177829D01*
X736694Y174395D01*
X736677Y174375D01*
X736657Y174357D01*
X736550Y174219D01*
X736439Y174084D01*
X736426Y174060D01*
X736410Y174039D01*
X736332Y173882D01*
X736250Y173728D01*
X736243Y173702D01*
X736231Y173678D01*
X736185Y173509D01*
X736135Y173342D01*
X736133Y173316D01*
X736126Y173290D01*
X736099Y172959D01*
X736099Y168464D01*
X735480Y166970D01*
X718414Y149904D01*
X716920Y149285D01*
X675928Y149285D01*
X675901Y149282D01*
X675874Y149284D01*
X675700Y149262D01*
X675527Y149245D01*
X675502Y149237D01*
X675475Y149234D01*
X675309Y149178D01*
X675142Y149127D01*
X675119Y149114D01*
X675093Y149106D01*
X674942Y149018D01*
X674788Y148935D01*
X674768Y148918D01*
X674744Y148905D01*
X674491Y148690D01*
X665060Y139258D01*
X665043Y139238D01*
X665022Y139220D01*
X664915Y139082D01*
X664805Y138947D01*
X664792Y138923D01*
X664776Y138902D01*
X664698Y138745D01*
X664616Y138591D01*
X664608Y138566D01*
X664596Y138542D01*
X664551Y138372D01*
X664501Y138205D01*
X664499Y138179D01*
X664492Y138153D01*
X664465Y137822D01*
X664465Y122482D01*
X664467Y122455D01*
X664465Y122429D01*
X664487Y122255D01*
X664505Y122081D01*
X664512Y122056D01*
X664516Y122029D01*
X664571Y121863D01*
X664623Y121696D01*
X664636Y121673D01*
X664644Y121647D01*
X664731Y121496D01*
X664815Y121342D01*
X664832Y121322D01*
X664845Y121299D01*
X665060Y121046D01*
X667237Y118868D01*
X668465Y115904D01*
X668465Y112696D01*
X667237Y109732D01*
X664968Y107463D01*
X662004Y106235D01*
X658796Y106235D01*
X655644Y107541D01*
X655615Y107550D01*
X655587Y107564D01*
X655422Y107608D01*
X655259Y107657D01*
X655228Y107660D01*
X655198Y107668D01*
X654867Y107695D01*
X475632Y107695D01*
X475606Y107693D01*
X475579Y107695D01*
X475405Y107673D01*
X475232Y107655D01*
X475206Y107648D01*
X475180Y107644D01*
X475014Y107588D01*
X474847Y107537D01*
X474823Y107524D01*
X474798Y107516D01*
X474647Y107429D01*
X474493Y107345D01*
X474472Y107328D01*
X474449Y107315D01*
X474196Y107100D01*
X473267Y106171D01*
X466533Y106171D01*
G37*
%LPD*%
%LPC*%
G36*
X517333Y55371D02*
X517333Y55371D01*
X512571Y60133D01*
X512571Y66867D01*
X517333Y71629D01*
X524067Y71629D01*
X524996Y70700D01*
X525017Y70683D01*
X525034Y70662D01*
X525172Y70555D01*
X525308Y70445D01*
X525331Y70432D01*
X525352Y70416D01*
X525509Y70338D01*
X525663Y70256D01*
X525689Y70248D01*
X525713Y70236D01*
X525882Y70191D01*
X526049Y70141D01*
X526076Y70139D01*
X526102Y70132D01*
X526432Y70105D01*
X654867Y70105D01*
X654898Y70108D01*
X654929Y70106D01*
X655099Y70128D01*
X655268Y70145D01*
X655297Y70154D01*
X655329Y70158D01*
X655644Y70259D01*
X658796Y71565D01*
X662004Y71565D01*
X665156Y70259D01*
X665185Y70250D01*
X665213Y70236D01*
X665378Y70192D01*
X665541Y70143D01*
X665572Y70140D01*
X665602Y70132D01*
X665933Y70105D01*
X675351Y70105D01*
X675377Y70107D01*
X675404Y70105D01*
X675578Y70127D01*
X675751Y70145D01*
X675777Y70152D01*
X675803Y70156D01*
X675969Y70211D01*
X676136Y70263D01*
X676160Y70276D01*
X676185Y70284D01*
X676337Y70371D01*
X676490Y70455D01*
X676511Y70472D01*
X676534Y70485D01*
X676787Y70700D01*
X688635Y82547D01*
X688652Y82568D01*
X688672Y82585D01*
X688779Y82723D01*
X688890Y82859D01*
X688902Y82882D01*
X688919Y82904D01*
X688997Y83060D01*
X689078Y83214D01*
X689086Y83240D01*
X689098Y83264D01*
X689143Y83433D01*
X689193Y83600D01*
X689195Y83627D01*
X689202Y83653D01*
X689230Y83984D01*
X689230Y125140D01*
X690235Y127568D01*
X700775Y138108D01*
X703202Y139113D01*
X723558Y139113D01*
X723696Y139071D01*
X723727Y139068D01*
X723757Y139060D01*
X724088Y139033D01*
X731809Y139033D01*
X732702Y138140D01*
X732702Y126877D01*
X731809Y125984D01*
X724088Y125984D01*
X724057Y125981D01*
X724026Y125983D01*
X723857Y125961D01*
X723687Y125944D01*
X723658Y125935D01*
X723627Y125930D01*
X723543Y125904D01*
X708093Y125904D01*
X708067Y125901D01*
X708040Y125903D01*
X707866Y125881D01*
X707693Y125864D01*
X707667Y125856D01*
X707641Y125853D01*
X707475Y125797D01*
X707308Y125746D01*
X707284Y125733D01*
X707259Y125724D01*
X707107Y125637D01*
X706954Y125554D01*
X706933Y125537D01*
X706910Y125523D01*
X706657Y125309D01*
X703034Y121686D01*
X703017Y121665D01*
X702997Y121647D01*
X702890Y121510D01*
X702779Y121374D01*
X702766Y121350D01*
X702750Y121329D01*
X702672Y121172D01*
X702590Y121018D01*
X702583Y120993D01*
X702571Y120969D01*
X702525Y120799D01*
X702475Y120633D01*
X702473Y120606D01*
X702466Y120580D01*
X702439Y120249D01*
X702439Y79093D01*
X701433Y76665D01*
X682669Y57901D01*
X680242Y56895D01*
X665933Y56895D01*
X665902Y56892D01*
X665871Y56894D01*
X665701Y56872D01*
X665532Y56855D01*
X665503Y56846D01*
X665471Y56842D01*
X665156Y56741D01*
X662004Y55435D01*
X658796Y55435D01*
X655644Y56741D01*
X655631Y56745D01*
X655625Y56748D01*
X655611Y56752D01*
X655587Y56764D01*
X655422Y56808D01*
X655259Y56857D01*
X655228Y56860D01*
X655198Y56868D01*
X654867Y56895D01*
X526432Y56895D01*
X526406Y56893D01*
X526379Y56895D01*
X526205Y56873D01*
X526032Y56855D01*
X526006Y56848D01*
X525980Y56844D01*
X525814Y56788D01*
X525647Y56737D01*
X525623Y56724D01*
X525598Y56716D01*
X525447Y56629D01*
X525293Y56545D01*
X525272Y56528D01*
X525249Y56515D01*
X524996Y56300D01*
X524067Y55371D01*
X517333Y55371D01*
G37*
%LPD*%
%LPC*%
G36*
X720797Y97904D02*
X720797Y97904D01*
X720658Y97945D01*
X720627Y97948D01*
X720597Y97957D01*
X720266Y97984D01*
X712546Y97984D01*
X711652Y98877D01*
X711652Y110140D01*
X712546Y111033D01*
X720266Y111033D01*
X720297Y111036D01*
X720328Y111034D01*
X720497Y111056D01*
X720667Y111073D01*
X720697Y111082D01*
X720728Y111086D01*
X720811Y111113D01*
X752323Y111113D01*
X752350Y111116D01*
X752377Y111114D01*
X752551Y111136D01*
X752724Y111153D01*
X752749Y111161D01*
X752776Y111164D01*
X752942Y111220D01*
X753109Y111271D01*
X753132Y111284D01*
X753158Y111292D01*
X753309Y111380D01*
X753463Y111463D01*
X753483Y111480D01*
X753507Y111493D01*
X753760Y111708D01*
X772274Y130222D01*
X772288Y130239D01*
X772305Y130254D01*
X772415Y130395D01*
X772529Y130534D01*
X772539Y130553D01*
X772553Y130571D01*
X772633Y130731D01*
X772717Y130889D01*
X772724Y130911D01*
X772734Y130931D01*
X772781Y131103D01*
X772832Y131275D01*
X772834Y131297D01*
X772840Y131319D01*
X772852Y131498D01*
X772869Y131676D01*
X772866Y131698D01*
X772868Y131721D01*
X772844Y131898D01*
X772825Y132076D01*
X772818Y132098D01*
X772816Y132120D01*
X772714Y132436D01*
X770546Y137670D01*
X770546Y146866D01*
X774065Y155362D01*
X780567Y161864D01*
X789063Y165383D01*
X798258Y165383D01*
X806754Y161864D01*
X813256Y155362D01*
X816775Y146866D01*
X816775Y137670D01*
X813256Y129175D01*
X806754Y122673D01*
X804458Y121721D01*
X798258Y119154D01*
X789063Y119154D01*
X783828Y121322D01*
X783806Y121328D01*
X783787Y121338D01*
X783614Y121386D01*
X783442Y121438D01*
X783420Y121440D01*
X783399Y121446D01*
X783219Y121460D01*
X783042Y121476D01*
X783020Y121474D01*
X782997Y121476D01*
X782819Y121453D01*
X782641Y121435D01*
X782620Y121428D01*
X782598Y121425D01*
X782428Y121368D01*
X782257Y121315D01*
X782237Y121304D01*
X782216Y121297D01*
X782061Y121208D01*
X781904Y121122D01*
X781886Y121107D01*
X781867Y121096D01*
X781614Y120882D01*
X759642Y98909D01*
X757214Y97904D01*
X720797Y97904D01*
G37*
%LPD*%
%LPC*%
G36*
X755130Y310924D02*
X755130Y310924D01*
X751769Y312316D01*
X749196Y314889D01*
X749043Y315258D01*
X749033Y315278D01*
X749026Y315299D01*
X748938Y315455D01*
X748853Y315613D01*
X748839Y315630D01*
X748828Y315650D01*
X748711Y315785D01*
X748597Y315923D01*
X748579Y315938D01*
X748565Y315954D01*
X748424Y316064D01*
X748284Y316177D01*
X748264Y316188D01*
X748247Y316201D01*
X748086Y316281D01*
X747927Y316364D01*
X747906Y316370D01*
X747886Y316380D01*
X747713Y316427D01*
X747541Y316477D01*
X747519Y316479D01*
X747497Y316485D01*
X747167Y316512D01*
X667449Y316512D01*
X646671Y337290D01*
X646651Y337307D01*
X646633Y337327D01*
X646495Y337434D01*
X646360Y337545D01*
X646336Y337557D01*
X646315Y337574D01*
X646158Y337652D01*
X646004Y337733D01*
X645979Y337741D01*
X645955Y337753D01*
X645785Y337798D01*
X645618Y337848D01*
X645592Y337851D01*
X645566Y337857D01*
X645235Y337885D01*
X640102Y337885D01*
X640079Y337882D01*
X640057Y337884D01*
X639880Y337862D01*
X639701Y337845D01*
X639680Y337838D01*
X639658Y337835D01*
X639488Y337779D01*
X639316Y337727D01*
X639297Y337716D01*
X639275Y337709D01*
X639120Y337620D01*
X638962Y337535D01*
X638945Y337521D01*
X638926Y337509D01*
X638790Y337392D01*
X638653Y337277D01*
X638639Y337260D01*
X638622Y337245D01*
X638512Y337102D01*
X638401Y336963D01*
X638390Y336944D01*
X638377Y336926D01*
X638225Y336631D01*
X637953Y335973D01*
X635238Y333258D01*
X631690Y331789D01*
X627850Y331789D01*
X624302Y333258D01*
X621587Y335973D01*
X620117Y339521D01*
X620117Y343361D01*
X621587Y346909D01*
X624302Y349625D01*
X627850Y351094D01*
X631690Y351094D01*
X635238Y349625D01*
X637953Y346909D01*
X638225Y346252D01*
X638236Y346232D01*
X638243Y346211D01*
X638331Y346055D01*
X638415Y345897D01*
X638429Y345880D01*
X638440Y345860D01*
X638558Y345725D01*
X638672Y345587D01*
X638689Y345573D01*
X638704Y345556D01*
X638845Y345446D01*
X638984Y345333D01*
X639004Y345323D01*
X639022Y345309D01*
X639182Y345229D01*
X639341Y345146D01*
X639362Y345140D01*
X639382Y345130D01*
X639556Y345083D01*
X639727Y345033D01*
X639749Y345031D01*
X639771Y345025D01*
X640102Y344998D01*
X649023Y344998D01*
X669801Y324221D01*
X669821Y324204D01*
X669839Y324183D01*
X669977Y324076D01*
X670112Y323965D01*
X670136Y323953D01*
X670157Y323937D01*
X670314Y323859D01*
X670468Y323777D01*
X670493Y323769D01*
X670517Y323757D01*
X670687Y323712D01*
X670854Y323662D01*
X670880Y323660D01*
X670906Y323653D01*
X671237Y323626D01*
X747167Y323626D01*
X747189Y323628D01*
X747211Y323626D01*
X747389Y323648D01*
X747567Y323666D01*
X747588Y323672D01*
X747611Y323675D01*
X747780Y323731D01*
X747952Y323784D01*
X747972Y323794D01*
X747993Y323801D01*
X748148Y323890D01*
X748306Y323975D01*
X748323Y323990D01*
X748343Y324001D01*
X748478Y324119D01*
X748615Y324233D01*
X748629Y324251D01*
X748646Y324265D01*
X748756Y324408D01*
X748868Y324547D01*
X748878Y324567D01*
X748892Y324584D01*
X749043Y324880D01*
X749196Y325249D01*
X751769Y327821D01*
X755130Y329214D01*
X774008Y329214D01*
X777369Y327821D01*
X779941Y325249D01*
X780094Y324880D01*
X780105Y324860D01*
X780112Y324839D01*
X780200Y324682D01*
X780284Y324525D01*
X780299Y324508D01*
X780310Y324488D01*
X780427Y324352D01*
X780541Y324214D01*
X780558Y324200D01*
X780573Y324183D01*
X780714Y324074D01*
X780853Y323961D01*
X780873Y323950D01*
X780891Y323937D01*
X781051Y323857D01*
X781210Y323774D01*
X781231Y323767D01*
X781251Y323757D01*
X781425Y323711D01*
X781596Y323660D01*
X781619Y323659D01*
X781640Y323653D01*
X781971Y323626D01*
X785025Y323626D01*
X785052Y323628D01*
X785079Y323626D01*
X785253Y323648D01*
X785426Y323666D01*
X785451Y323673D01*
X785478Y323677D01*
X785644Y323732D01*
X785811Y323784D01*
X785834Y323796D01*
X785860Y323805D01*
X786011Y323892D01*
X786165Y323975D01*
X786185Y323992D01*
X786209Y324006D01*
X786462Y324221D01*
X805681Y343440D01*
X834044Y343440D01*
X834066Y343442D01*
X834088Y343440D01*
X834266Y343462D01*
X834444Y343480D01*
X834466Y343486D01*
X834488Y343489D01*
X834658Y343545D01*
X834829Y343598D01*
X834849Y343609D01*
X834870Y343616D01*
X835026Y343705D01*
X835183Y343790D01*
X835200Y343804D01*
X835220Y343815D01*
X835355Y343933D01*
X835492Y344047D01*
X835506Y344065D01*
X835523Y344080D01*
X835633Y344222D01*
X835745Y344361D01*
X835755Y344381D01*
X835769Y344399D01*
X835920Y344694D01*
X836044Y344992D01*
X838616Y347564D01*
X841977Y348956D01*
X860855Y348956D01*
X864216Y347564D01*
X866789Y344992D01*
X868181Y341631D01*
X868181Y337993D01*
X866789Y334631D01*
X864216Y332059D01*
X860855Y330667D01*
X841977Y330667D01*
X838616Y332059D01*
X836044Y334631D01*
X835861Y335072D01*
X835850Y335092D01*
X835843Y335113D01*
X835755Y335270D01*
X835671Y335427D01*
X835657Y335445D01*
X835646Y335464D01*
X835528Y335600D01*
X835414Y335738D01*
X835397Y335752D01*
X835382Y335769D01*
X835241Y335878D01*
X835102Y335991D01*
X835082Y336002D01*
X835064Y336015D01*
X834904Y336095D01*
X834745Y336179D01*
X834724Y336185D01*
X834704Y336195D01*
X834530Y336241D01*
X834359Y336292D01*
X834337Y336294D01*
X834315Y336299D01*
X833984Y336326D01*
X809469Y336326D01*
X809442Y336324D01*
X809416Y336326D01*
X809242Y336304D01*
X809068Y336287D01*
X809043Y336279D01*
X809016Y336275D01*
X808850Y336220D01*
X808683Y336168D01*
X808660Y336156D01*
X808634Y336147D01*
X808483Y336060D01*
X808329Y335977D01*
X808309Y335960D01*
X808286Y335946D01*
X808033Y335731D01*
X788813Y316512D01*
X781971Y316512D01*
X781949Y316510D01*
X781926Y316512D01*
X781749Y316490D01*
X781570Y316472D01*
X781549Y316466D01*
X781527Y316463D01*
X781357Y316407D01*
X781185Y316354D01*
X781166Y316343D01*
X781145Y316336D01*
X780989Y316248D01*
X780831Y316162D01*
X780814Y316148D01*
X780795Y316137D01*
X780659Y316019D01*
X780522Y315905D01*
X780508Y315887D01*
X780491Y315873D01*
X780382Y315730D01*
X780270Y315591D01*
X780259Y315571D01*
X780246Y315553D01*
X780094Y315258D01*
X779941Y314889D01*
X777369Y312316D01*
X774008Y310924D01*
X755130Y310924D01*
G37*
%LPD*%
%LPC*%
G36*
X755130Y285524D02*
X755130Y285524D01*
X751769Y286916D01*
X749196Y289489D01*
X749043Y289858D01*
X749033Y289878D01*
X749026Y289899D01*
X748938Y290055D01*
X748853Y290213D01*
X748839Y290230D01*
X748828Y290250D01*
X748711Y290385D01*
X748597Y290523D01*
X748579Y290538D01*
X748565Y290554D01*
X748424Y290664D01*
X748284Y290777D01*
X748264Y290788D01*
X748247Y290801D01*
X748086Y290881D01*
X747927Y290964D01*
X747906Y290970D01*
X747886Y290980D01*
X747713Y291027D01*
X747541Y291077D01*
X747519Y291079D01*
X747497Y291085D01*
X747167Y291112D01*
X668976Y291112D01*
X648199Y311890D01*
X648178Y311907D01*
X648160Y311927D01*
X648022Y312034D01*
X647887Y312145D01*
X647863Y312157D01*
X647842Y312174D01*
X647685Y312252D01*
X647531Y312333D01*
X647506Y312341D01*
X647482Y312353D01*
X647312Y312398D01*
X647145Y312448D01*
X647119Y312451D01*
X647093Y312457D01*
X646762Y312485D01*
X640102Y312485D01*
X640079Y312482D01*
X640057Y312484D01*
X639880Y312462D01*
X639701Y312445D01*
X639680Y312438D01*
X639658Y312435D01*
X639488Y312379D01*
X639316Y312327D01*
X639297Y312316D01*
X639275Y312309D01*
X639120Y312220D01*
X638962Y312135D01*
X638945Y312121D01*
X638926Y312109D01*
X638790Y311992D01*
X638653Y311877D01*
X638639Y311860D01*
X638622Y311845D01*
X638512Y311702D01*
X638401Y311563D01*
X638390Y311544D01*
X638377Y311526D01*
X638225Y311231D01*
X637953Y310573D01*
X635238Y307858D01*
X632116Y306565D01*
X631690Y306389D01*
X627850Y306389D01*
X624302Y307858D01*
X621587Y310573D01*
X620117Y314121D01*
X620117Y317961D01*
X621587Y321509D01*
X624302Y324225D01*
X626566Y325162D01*
X626566Y325163D01*
X626567Y325163D01*
X627850Y325694D01*
X631690Y325694D01*
X635238Y324225D01*
X637953Y321509D01*
X638225Y320852D01*
X638236Y320832D01*
X638243Y320811D01*
X638331Y320655D01*
X638415Y320497D01*
X638429Y320480D01*
X638440Y320460D01*
X638558Y320325D01*
X638672Y320187D01*
X638689Y320173D01*
X638704Y320156D01*
X638845Y320046D01*
X638984Y319933D01*
X639004Y319923D01*
X639022Y319909D01*
X639182Y319829D01*
X639341Y319746D01*
X639362Y319740D01*
X639382Y319730D01*
X639556Y319683D01*
X639727Y319633D01*
X639749Y319631D01*
X639771Y319625D01*
X640102Y319598D01*
X650550Y319598D01*
X671328Y298821D01*
X671348Y298804D01*
X671366Y298783D01*
X671504Y298676D01*
X671639Y298565D01*
X671663Y298553D01*
X671684Y298537D01*
X671841Y298459D01*
X671995Y298377D01*
X672020Y298369D01*
X672044Y298357D01*
X672214Y298312D01*
X672381Y298262D01*
X672407Y298260D01*
X672433Y298253D01*
X672764Y298226D01*
X747167Y298226D01*
X747189Y298228D01*
X747211Y298226D01*
X747389Y298248D01*
X747567Y298266D01*
X747588Y298272D01*
X747611Y298275D01*
X747780Y298331D01*
X747952Y298384D01*
X747972Y298394D01*
X747993Y298401D01*
X748148Y298490D01*
X748306Y298575D01*
X748323Y298590D01*
X748343Y298601D01*
X748478Y298719D01*
X748615Y298833D01*
X748629Y298851D01*
X748646Y298865D01*
X748756Y299008D01*
X748868Y299147D01*
X748878Y299167D01*
X748892Y299184D01*
X749043Y299480D01*
X749196Y299849D01*
X751769Y302421D01*
X752728Y302819D01*
X755130Y303814D01*
X774008Y303814D01*
X777369Y302421D01*
X779941Y299849D01*
X780094Y299480D01*
X780105Y299460D01*
X780112Y299439D01*
X780200Y299282D01*
X780284Y299125D01*
X780299Y299108D01*
X780310Y299088D01*
X780427Y298952D01*
X780541Y298814D01*
X780558Y298800D01*
X780573Y298783D01*
X780714Y298674D01*
X780853Y298561D01*
X780873Y298550D01*
X780891Y298537D01*
X781051Y298457D01*
X781210Y298374D01*
X781231Y298367D01*
X781251Y298357D01*
X781425Y298311D01*
X781596Y298260D01*
X781619Y298259D01*
X781640Y298253D01*
X781971Y298226D01*
X789090Y298226D01*
X789116Y298228D01*
X789143Y298226D01*
X789317Y298248D01*
X789490Y298266D01*
X789516Y298273D01*
X789543Y298277D01*
X789708Y298332D01*
X789875Y298384D01*
X789899Y298396D01*
X789924Y298405D01*
X790076Y298492D01*
X790229Y298575D01*
X790250Y298592D01*
X790273Y298606D01*
X790526Y298821D01*
X809674Y317968D01*
X834014Y317968D01*
X834036Y317971D01*
X834058Y317969D01*
X834236Y317990D01*
X834415Y318008D01*
X834436Y318015D01*
X834458Y318017D01*
X834628Y318074D01*
X834799Y318126D01*
X834819Y318137D01*
X834840Y318144D01*
X834996Y318233D01*
X835154Y318318D01*
X835171Y318332D01*
X835190Y318343D01*
X835325Y318461D01*
X835463Y318576D01*
X835477Y318593D01*
X835494Y318608D01*
X835603Y318750D01*
X835715Y318890D01*
X835725Y318909D01*
X835739Y318927D01*
X835891Y319222D01*
X836044Y319592D01*
X838616Y322164D01*
X841977Y323556D01*
X860855Y323556D01*
X864216Y322164D01*
X866789Y319592D01*
X868181Y316231D01*
X868181Y312593D01*
X866789Y309231D01*
X864216Y306659D01*
X860855Y305267D01*
X841977Y305267D01*
X838616Y306659D01*
X836044Y309231D01*
X835891Y309601D01*
X835880Y309621D01*
X835873Y309642D01*
X835785Y309798D01*
X835700Y309956D01*
X835686Y309973D01*
X835675Y309992D01*
X835558Y310128D01*
X835444Y310266D01*
X835427Y310280D01*
X835412Y310297D01*
X835271Y310406D01*
X835131Y310520D01*
X835112Y310530D01*
X835094Y310544D01*
X834934Y310624D01*
X834775Y310707D01*
X834754Y310713D01*
X834733Y310723D01*
X834560Y310770D01*
X834388Y310820D01*
X834366Y310822D01*
X834345Y310828D01*
X834014Y310855D01*
X813462Y310855D01*
X813435Y310852D01*
X813408Y310854D01*
X813235Y310832D01*
X813061Y310815D01*
X813036Y310807D01*
X813009Y310804D01*
X812843Y310748D01*
X812676Y310697D01*
X812653Y310684D01*
X812627Y310676D01*
X812476Y310588D01*
X812322Y310505D01*
X812302Y310488D01*
X812278Y310475D01*
X812025Y310260D01*
X792878Y291112D01*
X781971Y291112D01*
X781949Y291110D01*
X781926Y291112D01*
X781749Y291090D01*
X781570Y291072D01*
X781549Y291066D01*
X781527Y291063D01*
X781357Y291007D01*
X781185Y290954D01*
X781166Y290943D01*
X781145Y290936D01*
X780989Y290848D01*
X780831Y290762D01*
X780814Y290748D01*
X780795Y290737D01*
X780659Y290619D01*
X780522Y290505D01*
X780508Y290487D01*
X780491Y290473D01*
X780382Y290330D01*
X780270Y290191D01*
X780259Y290171D01*
X780246Y290153D01*
X780094Y289858D01*
X779941Y289489D01*
X777369Y286916D01*
X774008Y285524D01*
X755130Y285524D01*
G37*
%LPD*%
%LPC*%
G36*
X652431Y173067D02*
X652431Y173067D01*
X647670Y177829D01*
X647670Y184563D01*
X651647Y188540D01*
X651664Y188560D01*
X651684Y188578D01*
X651791Y188716D01*
X651902Y188851D01*
X651914Y188875D01*
X651931Y188896D01*
X652009Y189053D01*
X652090Y189207D01*
X652098Y189232D01*
X652110Y189256D01*
X652156Y189426D01*
X652205Y189593D01*
X652208Y189619D01*
X652215Y189645D01*
X652242Y189976D01*
X652242Y219070D01*
X660109Y226937D01*
X660115Y226944D01*
X660121Y226949D01*
X660242Y227099D01*
X660364Y227248D01*
X660368Y227256D01*
X660374Y227263D01*
X660462Y227433D01*
X660553Y227604D01*
X660555Y227613D01*
X660559Y227620D01*
X660612Y227805D01*
X660667Y227990D01*
X660668Y227999D01*
X660671Y228007D01*
X660686Y228199D01*
X660704Y228391D01*
X660703Y228400D01*
X660703Y228409D01*
X660681Y228598D01*
X660660Y228791D01*
X660658Y228800D01*
X660657Y228808D01*
X660597Y228990D01*
X660539Y229175D01*
X660534Y229183D01*
X660532Y229191D01*
X660437Y229360D01*
X660344Y229527D01*
X660338Y229534D01*
X660334Y229542D01*
X660208Y229688D01*
X660083Y229834D01*
X660076Y229840D01*
X660071Y229847D01*
X659919Y229964D01*
X659768Y230084D01*
X659760Y230088D01*
X659753Y230093D01*
X659580Y230179D01*
X659409Y230266D01*
X659400Y230269D01*
X659392Y230273D01*
X659206Y230323D01*
X659021Y230374D01*
X659012Y230375D01*
X659003Y230377D01*
X658673Y230404D01*
X633259Y230404D01*
X630581Y233083D01*
X627691Y235973D01*
X627674Y235987D01*
X627659Y236004D01*
X627518Y236114D01*
X627380Y236228D01*
X627360Y236238D01*
X627342Y236252D01*
X627182Y236332D01*
X627024Y236416D01*
X627002Y236423D01*
X626983Y236433D01*
X626810Y236480D01*
X626638Y236531D01*
X626616Y236533D01*
X626594Y236539D01*
X626416Y236551D01*
X626237Y236567D01*
X626215Y236565D01*
X626193Y236567D01*
X626015Y236543D01*
X625837Y236524D01*
X625815Y236517D01*
X625793Y236514D01*
X625477Y236413D01*
X624101Y235843D01*
X619755Y235843D01*
X615741Y237506D01*
X612668Y240578D01*
X611005Y244593D01*
X611005Y248938D01*
X612668Y252953D01*
X615741Y256025D01*
X619755Y257688D01*
X624101Y257688D01*
X628115Y256025D01*
X631188Y252953D01*
X631758Y251576D01*
X631769Y251556D01*
X631776Y251535D01*
X631864Y251379D01*
X631948Y251221D01*
X631963Y251204D01*
X631974Y251185D01*
X632090Y251049D01*
X632205Y250911D01*
X632222Y250897D01*
X632237Y250880D01*
X632378Y250770D01*
X632517Y250657D01*
X632537Y250647D01*
X632555Y250633D01*
X632716Y250553D01*
X632874Y250470D01*
X632895Y250464D01*
X632915Y250454D01*
X633089Y250407D01*
X633260Y250357D01*
X633283Y250355D01*
X633304Y250349D01*
X633635Y250322D01*
X642477Y250322D01*
X642504Y250325D01*
X642531Y250323D01*
X642705Y250345D01*
X642878Y250362D01*
X642904Y250370D01*
X642930Y250373D01*
X643096Y250429D01*
X643263Y250480D01*
X643287Y250493D01*
X643312Y250501D01*
X643464Y250589D01*
X643617Y250672D01*
X643638Y250689D01*
X643661Y250702D01*
X643914Y250917D01*
X653278Y260282D01*
X653295Y260302D01*
X653315Y260320D01*
X653422Y260458D01*
X653533Y260593D01*
X653546Y260617D01*
X653562Y260638D01*
X653640Y260795D01*
X653722Y260949D01*
X653730Y260974D01*
X653742Y260998D01*
X653787Y261168D01*
X653837Y261335D01*
X653839Y261361D01*
X653846Y261387D01*
X653873Y261718D01*
X653873Y282832D01*
X653871Y282859D01*
X653873Y282885D01*
X653851Y283059D01*
X653833Y283233D01*
X653825Y283258D01*
X653822Y283285D01*
X653766Y283451D01*
X653715Y283618D01*
X653702Y283641D01*
X653694Y283667D01*
X653607Y283818D01*
X653523Y283972D01*
X653506Y283992D01*
X653493Y284015D01*
X653278Y284268D01*
X651057Y286490D01*
X651036Y286507D01*
X651019Y286527D01*
X650881Y286634D01*
X650746Y286745D01*
X650722Y286757D01*
X650701Y286774D01*
X650544Y286852D01*
X650390Y286933D01*
X650364Y286941D01*
X650340Y286953D01*
X650171Y286998D01*
X650004Y287048D01*
X649977Y287051D01*
X649952Y287057D01*
X649621Y287085D01*
X640102Y287085D01*
X640079Y287082D01*
X640057Y287084D01*
X639880Y287062D01*
X639701Y287045D01*
X639680Y287038D01*
X639658Y287035D01*
X639488Y286979D01*
X639316Y286927D01*
X639297Y286916D01*
X639275Y286909D01*
X639120Y286820D01*
X638962Y286735D01*
X638945Y286721D01*
X638926Y286709D01*
X638790Y286592D01*
X638653Y286477D01*
X638639Y286460D01*
X638622Y286445D01*
X638512Y286302D01*
X638401Y286163D01*
X638390Y286144D01*
X638377Y286126D01*
X638225Y285831D01*
X637953Y285173D01*
X635238Y282458D01*
X634591Y282190D01*
X631690Y280989D01*
X627850Y280989D01*
X624302Y282458D01*
X621587Y285173D01*
X620117Y288721D01*
X620117Y292561D01*
X621587Y296109D01*
X624302Y298825D01*
X627850Y300294D01*
X631690Y300294D01*
X635238Y298825D01*
X637953Y296109D01*
X638225Y295452D01*
X638236Y295432D01*
X638243Y295411D01*
X638331Y295255D01*
X638415Y295097D01*
X638429Y295080D01*
X638440Y295060D01*
X638558Y294925D01*
X638672Y294787D01*
X638689Y294773D01*
X638704Y294756D01*
X638845Y294646D01*
X638984Y294533D01*
X639004Y294523D01*
X639022Y294509D01*
X639182Y294429D01*
X639341Y294346D01*
X639362Y294340D01*
X639382Y294330D01*
X639556Y294283D01*
X639727Y294233D01*
X639749Y294231D01*
X639771Y294225D01*
X640102Y294198D01*
X653409Y294198D01*
X660987Y286620D01*
X660987Y257930D01*
X646265Y243209D01*
X635419Y243209D01*
X635410Y243208D01*
X635401Y243209D01*
X635209Y243188D01*
X635018Y243169D01*
X635010Y243166D01*
X635001Y243165D01*
X634818Y243107D01*
X634633Y243051D01*
X634625Y243046D01*
X634617Y243044D01*
X634448Y242951D01*
X634279Y242859D01*
X634272Y242853D01*
X634264Y242849D01*
X634117Y242723D01*
X633970Y242601D01*
X633964Y242594D01*
X633957Y242588D01*
X633838Y242437D01*
X633718Y242287D01*
X633713Y242279D01*
X633708Y242272D01*
X633621Y242100D01*
X633532Y241930D01*
X633530Y241921D01*
X633526Y241913D01*
X633474Y241728D01*
X633421Y241543D01*
X633420Y241534D01*
X633418Y241526D01*
X633403Y241333D01*
X633388Y241142D01*
X633389Y241133D01*
X633388Y241124D01*
X633413Y240931D01*
X633435Y240742D01*
X633437Y240734D01*
X633439Y240725D01*
X633500Y240542D01*
X633560Y240359D01*
X633564Y240351D01*
X633567Y240343D01*
X633662Y240177D01*
X633757Y240009D01*
X633763Y240002D01*
X633768Y239994D01*
X633982Y239741D01*
X635611Y238113D01*
X635632Y238096D01*
X635649Y238075D01*
X635787Y237968D01*
X635922Y237858D01*
X635946Y237845D01*
X635967Y237829D01*
X636123Y237751D01*
X636278Y237669D01*
X636304Y237661D01*
X636328Y237649D01*
X636497Y237604D01*
X636664Y237554D01*
X636691Y237552D01*
X636716Y237545D01*
X637047Y237518D01*
X676829Y237518D01*
X679007Y235339D01*
X679028Y235322D01*
X679045Y235302D01*
X679183Y235195D01*
X679319Y235084D01*
X679342Y235072D01*
X679364Y235055D01*
X679520Y234977D01*
X679674Y234896D01*
X679700Y234888D01*
X679724Y234876D01*
X679893Y234831D01*
X680060Y234781D01*
X680087Y234779D01*
X680113Y234772D01*
X680444Y234745D01*
X686068Y234745D01*
X690830Y229983D01*
X690830Y223249D01*
X686068Y218487D01*
X679334Y218487D01*
X675357Y222464D01*
X675336Y222481D01*
X675319Y222501D01*
X675181Y222608D01*
X675045Y222719D01*
X675022Y222732D01*
X675001Y222748D01*
X674844Y222826D01*
X674690Y222908D01*
X674664Y222915D01*
X674640Y222927D01*
X674471Y222973D01*
X674304Y223023D01*
X674277Y223025D01*
X674251Y223032D01*
X673921Y223059D01*
X667133Y223059D01*
X667106Y223056D01*
X667079Y223058D01*
X666905Y223036D01*
X666732Y223019D01*
X666706Y223011D01*
X666680Y223008D01*
X666514Y222952D01*
X666347Y222901D01*
X666323Y222888D01*
X666298Y222880D01*
X666146Y222792D01*
X665993Y222709D01*
X665972Y222692D01*
X665949Y222679D01*
X665696Y222464D01*
X659950Y216718D01*
X659933Y216697D01*
X659913Y216680D01*
X659806Y216542D01*
X659695Y216407D01*
X659683Y216383D01*
X659666Y216362D01*
X659588Y216205D01*
X659506Y216051D01*
X659499Y216025D01*
X659487Y216001D01*
X659441Y215832D01*
X659392Y215665D01*
X659389Y215638D01*
X659382Y215612D01*
X659355Y215282D01*
X659355Y189976D01*
X659358Y189949D01*
X659356Y189923D01*
X659378Y189749D01*
X659395Y189575D01*
X659403Y189550D01*
X659406Y189523D01*
X659462Y189357D01*
X659513Y189190D01*
X659526Y189167D01*
X659534Y189141D01*
X659622Y188990D01*
X659705Y188836D01*
X659722Y188816D01*
X659735Y188793D01*
X659950Y188540D01*
X663927Y184563D01*
X663927Y177829D01*
X659165Y173067D01*
X652431Y173067D01*
G37*
%LPD*%
%LPC*%
G36*
X426760Y585244D02*
X426760Y585244D01*
X420234Y586993D01*
X414382Y590371D01*
X409605Y595149D01*
X406227Y601000D01*
X404478Y607527D01*
X404478Y614283D01*
X406227Y620810D01*
X409605Y626661D01*
X414382Y631439D01*
X420234Y634817D01*
X426760Y636566D01*
X433517Y636566D01*
X440043Y634817D01*
X445895Y631439D01*
X450672Y626661D01*
X454051Y620810D01*
X455799Y614283D01*
X455799Y607527D01*
X454051Y601000D01*
X450672Y595149D01*
X445895Y590371D01*
X440043Y586993D01*
X433517Y585244D01*
X426760Y585244D01*
G37*
%LPD*%
%LPC*%
G36*
X830606Y580003D02*
X830606Y580003D01*
X824080Y581752D01*
X818229Y585130D01*
X813451Y589908D01*
X810073Y595759D01*
X808324Y602285D01*
X808324Y609042D01*
X810073Y615568D01*
X813451Y621420D01*
X818229Y626197D01*
X824080Y629576D01*
X830606Y631325D01*
X837363Y631325D01*
X843889Y629576D01*
X849741Y626197D01*
X854518Y621420D01*
X857897Y615568D01*
X859646Y609042D01*
X859646Y602285D01*
X857897Y595759D01*
X854518Y589908D01*
X849741Y585130D01*
X843889Y581752D01*
X837363Y580003D01*
X830606Y580003D01*
G37*
%LPD*%
%LPC*%
G36*
X501302Y147685D02*
X501302Y147685D01*
X494776Y149434D01*
X488925Y152812D01*
X484147Y157590D01*
X480769Y163441D01*
X479020Y169968D01*
X479020Y176724D01*
X480769Y183251D01*
X484147Y189102D01*
X488925Y193880D01*
X494776Y197258D01*
X501302Y199007D01*
X508059Y199007D01*
X514585Y197258D01*
X520437Y193880D01*
X525214Y189102D01*
X528593Y183251D01*
X530342Y176724D01*
X530342Y169968D01*
X528593Y163441D01*
X525214Y157590D01*
X520437Y152812D01*
X514585Y149434D01*
X508059Y147685D01*
X501302Y147685D01*
G37*
%LPD*%
%LPC*%
G36*
X807311Y174622D02*
X807311Y174622D01*
X800784Y176371D01*
X794933Y179749D01*
X790155Y184526D01*
X786777Y190378D01*
X785028Y196904D01*
X785028Y203661D01*
X786777Y210187D01*
X790155Y216039D01*
X794933Y220816D01*
X800784Y224195D01*
X807311Y225943D01*
X814067Y225943D01*
X820594Y224195D01*
X826445Y220816D01*
X831223Y216039D01*
X834601Y210187D01*
X836350Y203661D01*
X836350Y196904D01*
X834601Y190378D01*
X831223Y184526D01*
X826445Y179749D01*
X820594Y176371D01*
X814067Y174622D01*
X807311Y174622D01*
G37*
%LPD*%
%LPC*%
G36*
X627850Y611189D02*
X627850Y611189D01*
X624302Y612658D01*
X621587Y615373D01*
X620117Y618921D01*
X620117Y622761D01*
X621587Y626309D01*
X624302Y629024D01*
X624959Y629297D01*
X624979Y629307D01*
X625000Y629314D01*
X625156Y629402D01*
X625314Y629487D01*
X625331Y629501D01*
X625351Y629512D01*
X625486Y629629D01*
X625624Y629743D01*
X625638Y629761D01*
X625655Y629775D01*
X625765Y629916D01*
X625878Y630056D01*
X625888Y630076D01*
X625902Y630093D01*
X625982Y630254D01*
X626065Y630412D01*
X626071Y630434D01*
X626081Y630454D01*
X626128Y630627D01*
X626178Y630799D01*
X626180Y630821D01*
X626186Y630843D01*
X626213Y631173D01*
X626213Y643927D01*
X626212Y643937D01*
X626213Y643946D01*
X626211Y643961D01*
X626212Y643980D01*
X626190Y644154D01*
X626173Y644327D01*
X626165Y644353D01*
X626162Y644379D01*
X626106Y644545D01*
X626055Y644712D01*
X626042Y644736D01*
X626034Y644761D01*
X625946Y644913D01*
X625863Y645066D01*
X625846Y645087D01*
X625833Y645110D01*
X625618Y645363D01*
X616191Y654790D01*
X616171Y654807D01*
X616153Y654827D01*
X616015Y654934D01*
X615880Y655045D01*
X615856Y655057D01*
X615835Y655074D01*
X615678Y655152D01*
X615524Y655233D01*
X615499Y655241D01*
X615475Y655253D01*
X615305Y655298D01*
X615138Y655348D01*
X615112Y655351D01*
X615086Y655357D01*
X614755Y655385D01*
X494772Y655385D01*
X494750Y655382D01*
X494727Y655384D01*
X494550Y655362D01*
X494371Y655345D01*
X494350Y655338D01*
X494328Y655335D01*
X494158Y655279D01*
X493986Y655227D01*
X493967Y655216D01*
X493946Y655209D01*
X493790Y655120D01*
X493632Y655035D01*
X493615Y655021D01*
X493596Y655009D01*
X493461Y654892D01*
X493323Y654777D01*
X493309Y654760D01*
X493292Y654745D01*
X493183Y654603D01*
X493071Y654463D01*
X493060Y654443D01*
X493047Y654426D01*
X492895Y654131D01*
X492742Y653761D01*
X490170Y651189D01*
X486929Y649846D01*
X486809Y649797D01*
X467931Y649797D01*
X464570Y651189D01*
X461997Y653761D01*
X460605Y657122D01*
X460605Y660760D01*
X461997Y664121D01*
X464570Y666694D01*
X467931Y668086D01*
X486809Y668086D01*
X490170Y666694D01*
X492742Y664121D01*
X492895Y663752D01*
X492906Y663732D01*
X492913Y663711D01*
X493001Y663555D01*
X493085Y663397D01*
X493100Y663380D01*
X493111Y663360D01*
X493228Y663225D01*
X493342Y663087D01*
X493359Y663073D01*
X493374Y663056D01*
X493515Y662946D01*
X493654Y662833D01*
X493674Y662823D01*
X493692Y662809D01*
X493852Y662729D01*
X494011Y662646D01*
X494032Y662640D01*
X494052Y662630D01*
X494226Y662583D01*
X494397Y662533D01*
X494420Y662531D01*
X494441Y662525D01*
X494772Y662498D01*
X618543Y662498D01*
X633326Y647715D01*
X633326Y631173D01*
X633329Y631151D01*
X633327Y631129D01*
X633349Y630951D01*
X633366Y630773D01*
X633373Y630751D01*
X633376Y630729D01*
X633432Y630559D01*
X633485Y630388D01*
X633495Y630368D01*
X633502Y630347D01*
X633591Y630191D01*
X633676Y630034D01*
X633691Y630017D01*
X633702Y629997D01*
X633819Y629862D01*
X633934Y629725D01*
X633951Y629711D01*
X633966Y629694D01*
X634109Y629584D01*
X634248Y629472D01*
X634267Y629462D01*
X634285Y629448D01*
X634580Y629297D01*
X635238Y629024D01*
X637953Y626309D01*
X639422Y622761D01*
X639422Y618921D01*
X637953Y615373D01*
X635238Y612658D01*
X631690Y611189D01*
X627850Y611189D01*
G37*
%LPD*%
%LPC*%
G36*
X704734Y218487D02*
X704734Y218487D01*
X699972Y223249D01*
X699972Y229983D01*
X704734Y234745D01*
X711468Y234745D01*
X715445Y230767D01*
X715466Y230750D01*
X715483Y230730D01*
X715621Y230623D01*
X715756Y230512D01*
X715780Y230500D01*
X715801Y230483D01*
X715958Y230405D01*
X716112Y230324D01*
X716138Y230316D01*
X716162Y230304D01*
X716331Y230259D01*
X716498Y230209D01*
X716525Y230207D01*
X716551Y230200D01*
X716881Y230173D01*
X749177Y230173D01*
X749204Y230175D01*
X749230Y230173D01*
X749404Y230195D01*
X749578Y230212D01*
X749603Y230220D01*
X749630Y230224D01*
X749795Y230279D01*
X749963Y230331D01*
X749986Y230343D01*
X750011Y230352D01*
X750163Y230439D01*
X750317Y230522D01*
X750337Y230539D01*
X750360Y230553D01*
X750613Y230767D01*
X812414Y292568D01*
X834014Y292568D01*
X834036Y292571D01*
X834058Y292569D01*
X834236Y292590D01*
X834415Y292608D01*
X834436Y292615D01*
X834458Y292617D01*
X834628Y292674D01*
X834799Y292726D01*
X834819Y292737D01*
X834840Y292744D01*
X834996Y292833D01*
X835154Y292918D01*
X835171Y292932D01*
X835190Y292943D01*
X835325Y293061D01*
X835463Y293176D01*
X835477Y293193D01*
X835494Y293208D01*
X835603Y293350D01*
X835715Y293490D01*
X835725Y293509D01*
X835739Y293527D01*
X835891Y293822D01*
X836044Y294192D01*
X838616Y296764D01*
X841977Y298156D01*
X860855Y298156D01*
X864216Y296764D01*
X866789Y294192D01*
X868181Y290831D01*
X868181Y287193D01*
X866789Y283831D01*
X864216Y281259D01*
X861560Y280159D01*
X860855Y279867D01*
X841977Y279867D01*
X838616Y281259D01*
X836044Y283831D01*
X835891Y284201D01*
X835880Y284221D01*
X835873Y284242D01*
X835785Y284398D01*
X835700Y284556D01*
X835686Y284573D01*
X835675Y284592D01*
X835558Y284728D01*
X835444Y284866D01*
X835427Y284880D01*
X835412Y284897D01*
X835271Y285006D01*
X835131Y285120D01*
X835112Y285130D01*
X835094Y285144D01*
X834934Y285224D01*
X834775Y285307D01*
X834754Y285313D01*
X834733Y285323D01*
X834560Y285370D01*
X834388Y285420D01*
X834366Y285422D01*
X834345Y285428D01*
X834014Y285455D01*
X816202Y285455D01*
X816175Y285452D01*
X816149Y285454D01*
X815975Y285432D01*
X815801Y285415D01*
X815776Y285407D01*
X815749Y285404D01*
X815584Y285348D01*
X815417Y285297D01*
X815393Y285284D01*
X815368Y285276D01*
X815216Y285188D01*
X815062Y285105D01*
X815042Y285088D01*
X815019Y285075D01*
X814766Y284860D01*
X752965Y223059D01*
X716881Y223059D01*
X716855Y223056D01*
X716828Y223058D01*
X716654Y223036D01*
X716481Y223019D01*
X716455Y223011D01*
X716429Y223008D01*
X716263Y222952D01*
X716096Y222901D01*
X716072Y222888D01*
X716047Y222880D01*
X715895Y222792D01*
X715742Y222709D01*
X715721Y222692D01*
X715698Y222679D01*
X715445Y222464D01*
X711468Y218487D01*
X704734Y218487D01*
G37*
%LPD*%
%LPC*%
G36*
X627850Y560389D02*
X627850Y560389D01*
X624302Y561858D01*
X621587Y564573D01*
X620117Y568121D01*
X620117Y571961D01*
X621587Y575509D01*
X624302Y578225D01*
X627850Y579694D01*
X631690Y579694D01*
X632347Y579422D01*
X632368Y579415D01*
X632388Y579405D01*
X632561Y579357D01*
X632732Y579305D01*
X632754Y579303D01*
X632776Y579297D01*
X632956Y579284D01*
X633133Y579267D01*
X633155Y579270D01*
X633178Y579268D01*
X633356Y579290D01*
X633534Y579309D01*
X633555Y579316D01*
X633577Y579318D01*
X633746Y579375D01*
X633918Y579429D01*
X633938Y579439D01*
X633959Y579447D01*
X634114Y579536D01*
X634271Y579622D01*
X634288Y579636D01*
X634308Y579647D01*
X634561Y579862D01*
X666597Y611899D01*
X669275Y614577D01*
X752292Y614577D01*
X752314Y614579D01*
X752336Y614577D01*
X752514Y614599D01*
X752692Y614617D01*
X752714Y614623D01*
X752736Y614626D01*
X752906Y614682D01*
X753077Y614735D01*
X753097Y614746D01*
X753118Y614753D01*
X753274Y614841D01*
X753431Y614927D01*
X753448Y614941D01*
X753468Y614952D01*
X753603Y615070D01*
X753740Y615184D01*
X753754Y615202D01*
X753771Y615217D01*
X753881Y615359D01*
X753993Y615498D01*
X754003Y615518D01*
X754017Y615536D01*
X754168Y615831D01*
X754321Y616200D01*
X756894Y618773D01*
X760255Y620165D01*
X779133Y620165D01*
X782494Y618773D01*
X785066Y616200D01*
X786459Y612839D01*
X786459Y609201D01*
X785066Y605840D01*
X782494Y603268D01*
X779133Y601875D01*
X760255Y601875D01*
X756894Y603268D01*
X754321Y605840D01*
X754168Y606209D01*
X754158Y606229D01*
X754151Y606250D01*
X754063Y606407D01*
X753978Y606564D01*
X753964Y606582D01*
X753953Y606601D01*
X753836Y606737D01*
X753722Y606875D01*
X753704Y606889D01*
X753690Y606906D01*
X753549Y607015D01*
X753409Y607128D01*
X753389Y607139D01*
X753372Y607153D01*
X753211Y607232D01*
X753053Y607316D01*
X753031Y607322D01*
X753011Y607332D01*
X752838Y607378D01*
X752666Y607429D01*
X752644Y607431D01*
X752622Y607436D01*
X752292Y607463D01*
X673063Y607463D01*
X673037Y607461D01*
X673010Y607463D01*
X672836Y607441D01*
X672663Y607424D01*
X672637Y607416D01*
X672611Y607412D01*
X672445Y607357D01*
X672278Y607305D01*
X672254Y607293D01*
X672229Y607284D01*
X672077Y607197D01*
X671924Y607114D01*
X671903Y607097D01*
X671880Y607083D01*
X671627Y606869D01*
X639591Y574832D01*
X639576Y574815D01*
X639559Y574800D01*
X639449Y574659D01*
X639336Y574521D01*
X639325Y574501D01*
X639311Y574483D01*
X639231Y574323D01*
X639147Y574165D01*
X639141Y574144D01*
X639130Y574124D01*
X639083Y573950D01*
X639032Y573779D01*
X639030Y573757D01*
X639024Y573735D01*
X639012Y573557D01*
X638996Y573378D01*
X638998Y573356D01*
X638997Y573334D01*
X639020Y573157D01*
X639039Y572978D01*
X639046Y572956D01*
X639049Y572934D01*
X639150Y572618D01*
X639422Y571961D01*
X639422Y568121D01*
X637953Y564573D01*
X635238Y561858D01*
X631690Y560389D01*
X627850Y560389D01*
G37*
%LPD*%
%LPC*%
G36*
X627850Y534989D02*
X627850Y534989D01*
X624302Y536458D01*
X621587Y539173D01*
X620117Y542721D01*
X620117Y546561D01*
X621587Y550109D01*
X624302Y552825D01*
X627850Y554294D01*
X631690Y554294D01*
X632347Y554022D01*
X632368Y554015D01*
X632388Y554005D01*
X632561Y553957D01*
X632732Y553905D01*
X632754Y553903D01*
X632776Y553897D01*
X632956Y553884D01*
X633133Y553867D01*
X633155Y553870D01*
X633178Y553868D01*
X633356Y553890D01*
X633534Y553909D01*
X633555Y553916D01*
X633577Y553918D01*
X633746Y553975D01*
X633918Y554029D01*
X633938Y554039D01*
X633959Y554047D01*
X634114Y554136D01*
X634271Y554222D01*
X634288Y554236D01*
X634308Y554247D01*
X634561Y554462D01*
X666597Y586499D01*
X669275Y589177D01*
X752292Y589177D01*
X752314Y589179D01*
X752336Y589177D01*
X752514Y589199D01*
X752692Y589217D01*
X752714Y589223D01*
X752736Y589226D01*
X752906Y589282D01*
X753077Y589335D01*
X753097Y589346D01*
X753118Y589353D01*
X753274Y589441D01*
X753431Y589527D01*
X753448Y589541D01*
X753468Y589552D01*
X753603Y589670D01*
X753740Y589784D01*
X753754Y589802D01*
X753771Y589817D01*
X753881Y589959D01*
X753993Y590098D01*
X754003Y590118D01*
X754017Y590136D01*
X754168Y590431D01*
X754321Y590800D01*
X756894Y593373D01*
X760255Y594765D01*
X779133Y594765D01*
X782494Y593373D01*
X785066Y590800D01*
X786459Y587439D01*
X786459Y583801D01*
X785066Y580440D01*
X782494Y577868D01*
X779133Y576475D01*
X760255Y576475D01*
X756894Y577868D01*
X754321Y580440D01*
X754168Y580809D01*
X754158Y580829D01*
X754151Y580850D01*
X754063Y581007D01*
X753978Y581164D01*
X753964Y581182D01*
X753953Y581201D01*
X753836Y581337D01*
X753722Y581475D01*
X753704Y581489D01*
X753690Y581506D01*
X753549Y581615D01*
X753409Y581728D01*
X753389Y581739D01*
X753372Y581753D01*
X753211Y581832D01*
X753053Y581916D01*
X753031Y581922D01*
X753011Y581932D01*
X752838Y581978D01*
X752666Y582029D01*
X752644Y582031D01*
X752622Y582036D01*
X752292Y582063D01*
X673063Y582063D01*
X673037Y582061D01*
X673010Y582063D01*
X672836Y582041D01*
X672663Y582024D01*
X672637Y582016D01*
X672611Y582012D01*
X672445Y581957D01*
X672278Y581905D01*
X672254Y581893D01*
X672229Y581884D01*
X672077Y581797D01*
X671924Y581714D01*
X671903Y581697D01*
X671880Y581683D01*
X671627Y581469D01*
X639591Y549432D01*
X639576Y549415D01*
X639559Y549400D01*
X639449Y549259D01*
X639336Y549121D01*
X639325Y549101D01*
X639311Y549083D01*
X639231Y548923D01*
X639147Y548765D01*
X639141Y548744D01*
X639130Y548724D01*
X639083Y548550D01*
X639032Y548379D01*
X639030Y548357D01*
X639024Y548335D01*
X639012Y548157D01*
X638996Y547978D01*
X638998Y547956D01*
X638997Y547934D01*
X639020Y547757D01*
X639039Y547578D01*
X639046Y547556D01*
X639049Y547534D01*
X639150Y547218D01*
X639422Y546561D01*
X639422Y542721D01*
X637953Y539173D01*
X635238Y536458D01*
X631690Y534989D01*
X627850Y534989D01*
G37*
%LPD*%
%LPC*%
G36*
X627850Y585789D02*
X627850Y585789D01*
X624302Y587258D01*
X621587Y589973D01*
X620117Y593521D01*
X620117Y597361D01*
X621587Y600909D01*
X624302Y603625D01*
X627850Y605094D01*
X631690Y605094D01*
X632347Y604822D01*
X632368Y604815D01*
X632388Y604805D01*
X632561Y604757D01*
X632732Y604705D01*
X632754Y604703D01*
X632776Y604697D01*
X632956Y604684D01*
X633133Y604667D01*
X633155Y604670D01*
X633178Y604668D01*
X633356Y604690D01*
X633534Y604709D01*
X633555Y604716D01*
X633577Y604718D01*
X633746Y604775D01*
X633918Y604829D01*
X633938Y604839D01*
X633959Y604847D01*
X634114Y604936D01*
X634271Y605022D01*
X634288Y605036D01*
X634308Y605047D01*
X634561Y605262D01*
X666597Y637299D01*
X669275Y639977D01*
X752292Y639977D01*
X752314Y639979D01*
X752336Y639977D01*
X752514Y639999D01*
X752692Y640017D01*
X752714Y640023D01*
X752736Y640026D01*
X752906Y640082D01*
X753077Y640135D01*
X753097Y640146D01*
X753118Y640153D01*
X753274Y640241D01*
X753431Y640327D01*
X753448Y640341D01*
X753468Y640352D01*
X753603Y640470D01*
X753740Y640584D01*
X753754Y640602D01*
X753771Y640617D01*
X753881Y640759D01*
X753993Y640898D01*
X754003Y640918D01*
X754017Y640936D01*
X754168Y641231D01*
X754321Y641600D01*
X756894Y644173D01*
X760255Y645565D01*
X779133Y645565D01*
X782494Y644173D01*
X785066Y641600D01*
X786459Y638239D01*
X786459Y634601D01*
X785066Y631240D01*
X782494Y628668D01*
X779133Y627275D01*
X760255Y627275D01*
X756894Y628668D01*
X754321Y631240D01*
X754168Y631609D01*
X754158Y631629D01*
X754151Y631650D01*
X754063Y631807D01*
X753978Y631964D01*
X753964Y631982D01*
X753953Y632001D01*
X753836Y632137D01*
X753722Y632275D01*
X753704Y632289D01*
X753690Y632306D01*
X753549Y632415D01*
X753409Y632528D01*
X753389Y632539D01*
X753372Y632553D01*
X753211Y632632D01*
X753053Y632716D01*
X753031Y632722D01*
X753011Y632732D01*
X752838Y632778D01*
X752666Y632829D01*
X752644Y632831D01*
X752622Y632836D01*
X752292Y632863D01*
X673063Y632863D01*
X673037Y632861D01*
X673010Y632863D01*
X672836Y632841D01*
X672663Y632824D01*
X672637Y632816D01*
X672611Y632812D01*
X672445Y632757D01*
X672278Y632705D01*
X672254Y632693D01*
X672229Y632684D01*
X672077Y632597D01*
X671924Y632514D01*
X671903Y632497D01*
X671880Y632483D01*
X671627Y632269D01*
X639591Y600232D01*
X639576Y600215D01*
X639559Y600200D01*
X639449Y600059D01*
X639336Y599921D01*
X639325Y599901D01*
X639311Y599883D01*
X639231Y599723D01*
X639147Y599565D01*
X639141Y599544D01*
X639130Y599524D01*
X639083Y599350D01*
X639032Y599179D01*
X639030Y599157D01*
X639024Y599135D01*
X639012Y598957D01*
X638996Y598778D01*
X638998Y598756D01*
X638997Y598734D01*
X639020Y598557D01*
X639039Y598378D01*
X639046Y598356D01*
X639049Y598334D01*
X639150Y598018D01*
X639422Y597361D01*
X639422Y593521D01*
X637953Y589973D01*
X635238Y587258D01*
X631690Y585789D01*
X627850Y585789D01*
G37*
%LPD*%
%LPC*%
G36*
X755130Y336324D02*
X755130Y336324D01*
X751769Y337716D01*
X749196Y340289D01*
X749043Y340658D01*
X749033Y340678D01*
X749026Y340699D01*
X748938Y340855D01*
X748853Y341013D01*
X748839Y341030D01*
X748828Y341050D01*
X748711Y341185D01*
X748597Y341323D01*
X748579Y341338D01*
X748565Y341354D01*
X748424Y341464D01*
X748284Y341577D01*
X748264Y341588D01*
X748247Y341601D01*
X748086Y341681D01*
X747927Y341764D01*
X747906Y341770D01*
X747886Y341780D01*
X747713Y341827D01*
X747541Y341877D01*
X747519Y341879D01*
X747497Y341885D01*
X747167Y341912D01*
X671614Y341912D01*
X668936Y344590D01*
X668936Y344591D01*
X650837Y362690D01*
X650816Y362707D01*
X650798Y362727D01*
X650661Y362834D01*
X650525Y362945D01*
X650501Y362957D01*
X650480Y362974D01*
X650323Y363052D01*
X650169Y363133D01*
X650144Y363141D01*
X650120Y363153D01*
X649950Y363198D01*
X649784Y363248D01*
X649757Y363251D01*
X649731Y363257D01*
X649400Y363285D01*
X640102Y363285D01*
X640079Y363282D01*
X640057Y363284D01*
X639880Y363262D01*
X639701Y363245D01*
X639680Y363238D01*
X639658Y363235D01*
X639488Y363179D01*
X639316Y363127D01*
X639297Y363116D01*
X639275Y363109D01*
X639120Y363020D01*
X638962Y362935D01*
X638945Y362921D01*
X638926Y362909D01*
X638790Y362792D01*
X638653Y362677D01*
X638639Y362660D01*
X638622Y362645D01*
X638512Y362502D01*
X638401Y362363D01*
X638390Y362344D01*
X638377Y362326D01*
X638225Y362031D01*
X637953Y361373D01*
X635238Y358658D01*
X631690Y357189D01*
X627850Y357189D01*
X624302Y358658D01*
X621587Y361373D01*
X620117Y364921D01*
X620117Y368761D01*
X621587Y372309D01*
X624302Y375025D01*
X627850Y376494D01*
X631690Y376494D01*
X635238Y375025D01*
X637953Y372309D01*
X638225Y371652D01*
X638236Y371632D01*
X638243Y371611D01*
X638331Y371455D01*
X638415Y371297D01*
X638429Y371280D01*
X638440Y371260D01*
X638558Y371125D01*
X638672Y370987D01*
X638689Y370973D01*
X638704Y370956D01*
X638845Y370846D01*
X638984Y370733D01*
X639004Y370723D01*
X639022Y370709D01*
X639182Y370629D01*
X639341Y370546D01*
X639362Y370540D01*
X639382Y370530D01*
X639556Y370483D01*
X639727Y370433D01*
X639749Y370431D01*
X639771Y370425D01*
X640102Y370398D01*
X653188Y370398D01*
X655866Y367720D01*
X655867Y367720D01*
X673966Y349621D01*
X673986Y349604D01*
X674004Y349583D01*
X674142Y349476D01*
X674277Y349365D01*
X674301Y349353D01*
X674322Y349337D01*
X674479Y349259D01*
X674633Y349177D01*
X674658Y349169D01*
X674682Y349157D01*
X674852Y349112D01*
X675019Y349062D01*
X675045Y349060D01*
X675071Y349053D01*
X675402Y349026D01*
X747167Y349026D01*
X747189Y349028D01*
X747211Y349026D01*
X747389Y349048D01*
X747567Y349066D01*
X747588Y349072D01*
X747611Y349075D01*
X747780Y349131D01*
X747952Y349184D01*
X747972Y349194D01*
X747993Y349201D01*
X748148Y349290D01*
X748306Y349375D01*
X748323Y349390D01*
X748343Y349401D01*
X748478Y349519D01*
X748615Y349633D01*
X748629Y349651D01*
X748646Y349665D01*
X748756Y349808D01*
X748868Y349947D01*
X748878Y349967D01*
X748892Y349984D01*
X749043Y350280D01*
X749196Y350649D01*
X751769Y353221D01*
X755130Y354614D01*
X774008Y354614D01*
X777369Y353221D01*
X779941Y350649D01*
X781333Y347288D01*
X781333Y343650D01*
X779941Y340289D01*
X777369Y337716D01*
X774008Y336324D01*
X755130Y336324D01*
G37*
%LPD*%
%LPC*%
G36*
X551650Y509589D02*
X551650Y509589D01*
X548102Y511058D01*
X545387Y513773D01*
X545325Y513923D01*
X545314Y513942D01*
X545307Y513964D01*
X545219Y514120D01*
X545135Y514278D01*
X545120Y514295D01*
X545109Y514314D01*
X544993Y514450D01*
X544878Y514588D01*
X544861Y514602D01*
X544846Y514619D01*
X544705Y514729D01*
X544566Y514842D01*
X544546Y514852D01*
X544528Y514866D01*
X544368Y514945D01*
X544209Y515029D01*
X544188Y515035D01*
X544168Y515045D01*
X543994Y515092D01*
X543823Y515142D01*
X543800Y515144D01*
X543779Y515149D01*
X543448Y515177D01*
X494562Y515177D01*
X494539Y515174D01*
X494517Y515176D01*
X494340Y515154D01*
X494161Y515137D01*
X494140Y515130D01*
X494117Y515127D01*
X493948Y515071D01*
X493776Y515019D01*
X493756Y515008D01*
X493735Y515001D01*
X493580Y514912D01*
X493422Y514827D01*
X493405Y514813D01*
X493385Y514801D01*
X493250Y514684D01*
X493113Y514569D01*
X493099Y514552D01*
X493082Y514537D01*
X492972Y514394D01*
X492860Y514255D01*
X492850Y514236D01*
X492836Y514218D01*
X492771Y514090D01*
X490170Y511489D01*
X486809Y510097D01*
X467931Y510097D01*
X464570Y511489D01*
X462033Y514026D01*
X462012Y514043D01*
X461995Y514063D01*
X461857Y514170D01*
X461721Y514281D01*
X461698Y514293D01*
X461677Y514310D01*
X461520Y514387D01*
X461366Y514469D01*
X461340Y514477D01*
X461316Y514489D01*
X461147Y514534D01*
X460980Y514584D01*
X460953Y514586D01*
X460927Y514593D01*
X460597Y514621D01*
X446214Y514621D01*
X446188Y514618D01*
X446161Y514620D01*
X445987Y514598D01*
X445813Y514581D01*
X445788Y514573D01*
X445761Y514569D01*
X445595Y514514D01*
X445429Y514462D01*
X445405Y514450D01*
X445380Y514441D01*
X445228Y514354D01*
X445075Y514271D01*
X445054Y514254D01*
X445031Y514240D01*
X444778Y514026D01*
X441309Y510557D01*
X434575Y510557D01*
X429813Y515318D01*
X429813Y522052D01*
X434575Y526814D01*
X441309Y526814D01*
X444778Y523345D01*
X444798Y523328D01*
X444816Y523308D01*
X444954Y523201D01*
X445089Y523090D01*
X445113Y523077D01*
X445134Y523061D01*
X445291Y522983D01*
X445445Y522901D01*
X445471Y522894D01*
X445495Y522882D01*
X445664Y522836D01*
X445831Y522786D01*
X445857Y522784D01*
X445883Y522777D01*
X446214Y522750D01*
X459948Y522750D01*
X459970Y522752D01*
X459992Y522750D01*
X460170Y522772D01*
X460348Y522790D01*
X460370Y522796D01*
X460392Y522799D01*
X460562Y522855D01*
X460733Y522908D01*
X460753Y522919D01*
X460774Y522926D01*
X460929Y523014D01*
X461087Y523100D01*
X461104Y523114D01*
X461124Y523125D01*
X461259Y523243D01*
X461396Y523358D01*
X461410Y523375D01*
X461427Y523390D01*
X461537Y523532D01*
X461649Y523671D01*
X461659Y523691D01*
X461673Y523709D01*
X461824Y524004D01*
X461997Y524421D01*
X464570Y526994D01*
X467693Y528287D01*
X467693Y528288D01*
X467931Y528386D01*
X486809Y528386D01*
X490170Y526994D01*
X492777Y524387D01*
X492791Y524363D01*
X492875Y524205D01*
X492889Y524188D01*
X492900Y524168D01*
X493018Y524032D01*
X493131Y523895D01*
X493149Y523881D01*
X493163Y523864D01*
X493304Y523754D01*
X493444Y523641D01*
X493464Y523631D01*
X493481Y523617D01*
X493642Y523537D01*
X493801Y523454D01*
X493822Y523448D01*
X493842Y523438D01*
X494015Y523391D01*
X494187Y523341D01*
X494209Y523339D01*
X494231Y523333D01*
X494562Y523306D01*
X543448Y523306D01*
X543470Y523308D01*
X543493Y523307D01*
X543670Y523328D01*
X543849Y523346D01*
X543870Y523353D01*
X543892Y523355D01*
X544062Y523411D01*
X544234Y523464D01*
X544253Y523475D01*
X544274Y523482D01*
X544430Y523570D01*
X544588Y523656D01*
X544605Y523670D01*
X544624Y523681D01*
X544759Y523799D01*
X544897Y523914D01*
X544911Y523931D01*
X544928Y523946D01*
X545037Y524088D01*
X545149Y524227D01*
X545160Y524247D01*
X545173Y524265D01*
X545325Y524560D01*
X545387Y524709D01*
X548102Y527425D01*
X550185Y528287D01*
X550185Y528288D01*
X551650Y528894D01*
X555490Y528894D01*
X559038Y527425D01*
X561753Y524709D01*
X563222Y521161D01*
X563222Y517321D01*
X561753Y513773D01*
X559038Y511058D01*
X555490Y509589D01*
X551650Y509589D01*
G37*
%LPD*%
%LPC*%
G36*
X627850Y509589D02*
X627850Y509589D01*
X624302Y511058D01*
X621587Y513773D01*
X620117Y517321D01*
X620117Y521161D01*
X621587Y524709D01*
X624302Y527425D01*
X626385Y528287D01*
X626385Y528288D01*
X627850Y528894D01*
X631690Y528894D01*
X632347Y528622D01*
X632368Y528615D01*
X632388Y528605D01*
X632561Y528557D01*
X632732Y528505D01*
X632754Y528503D01*
X632776Y528497D01*
X632956Y528484D01*
X633133Y528467D01*
X633155Y528470D01*
X633178Y528468D01*
X633356Y528490D01*
X633534Y528509D01*
X633555Y528516D01*
X633577Y528518D01*
X633747Y528575D01*
X633918Y528629D01*
X633938Y528639D01*
X633959Y528647D01*
X634114Y528736D01*
X634271Y528822D01*
X634288Y528836D01*
X634308Y528847D01*
X634561Y529062D01*
X640983Y535484D01*
X643661Y538163D01*
X675353Y538163D01*
X675375Y538165D01*
X675397Y538163D01*
X675575Y538185D01*
X675754Y538202D01*
X675775Y538209D01*
X675797Y538212D01*
X675966Y538268D01*
X676138Y538321D01*
X676158Y538331D01*
X676179Y538338D01*
X676335Y538427D01*
X676492Y538512D01*
X676510Y538527D01*
X676529Y538538D01*
X676664Y538656D01*
X676802Y538770D01*
X676816Y538787D01*
X676833Y538802D01*
X676942Y538944D01*
X677054Y539084D01*
X677064Y539104D01*
X677078Y539121D01*
X677230Y539416D01*
X677532Y540146D01*
X680283Y542897D01*
X683877Y544386D01*
X687768Y544386D01*
X691362Y542897D01*
X694113Y540146D01*
X694415Y539416D01*
X694426Y539397D01*
X694433Y539376D01*
X694521Y539219D01*
X694605Y539062D01*
X694620Y539044D01*
X694631Y539025D01*
X694747Y538890D01*
X694862Y538751D01*
X694879Y538737D01*
X694894Y538720D01*
X695035Y538611D01*
X695174Y538498D01*
X695194Y538487D01*
X695212Y538473D01*
X695373Y538394D01*
X695531Y538310D01*
X695552Y538304D01*
X695572Y538294D01*
X695746Y538247D01*
X695917Y538197D01*
X695940Y538195D01*
X695961Y538190D01*
X696292Y538163D01*
X741323Y538163D01*
X746877Y532609D01*
X746898Y532592D01*
X746915Y532571D01*
X747053Y532464D01*
X747188Y532354D01*
X747212Y532341D01*
X747233Y532325D01*
X747390Y532247D01*
X747544Y532165D01*
X747570Y532157D01*
X747594Y532145D01*
X747763Y532100D01*
X747930Y532050D01*
X747957Y532048D01*
X747983Y532041D01*
X748313Y532014D01*
X753938Y532014D01*
X758699Y527252D01*
X758699Y520518D01*
X753938Y515756D01*
X747204Y515756D01*
X742442Y520518D01*
X742442Y526142D01*
X742439Y526169D01*
X742441Y526196D01*
X742419Y526370D01*
X742402Y526543D01*
X742394Y526568D01*
X742391Y526595D01*
X742335Y526761D01*
X742284Y526928D01*
X742271Y526951D01*
X742263Y526977D01*
X742176Y527128D01*
X742092Y527282D01*
X742075Y527302D01*
X742062Y527326D01*
X741847Y527579D01*
X738971Y530454D01*
X738951Y530471D01*
X738933Y530491D01*
X738795Y530598D01*
X738660Y530709D01*
X738636Y530722D01*
X738615Y530738D01*
X738459Y530816D01*
X738304Y530898D01*
X738279Y530905D01*
X738255Y530917D01*
X738086Y530963D01*
X737918Y531013D01*
X737892Y531015D01*
X737866Y531022D01*
X737535Y531049D01*
X696292Y531049D01*
X696270Y531047D01*
X696247Y531049D01*
X696070Y531027D01*
X695891Y531009D01*
X695870Y531003D01*
X695848Y531000D01*
X695678Y530944D01*
X695506Y530891D01*
X695487Y530880D01*
X695466Y530873D01*
X695310Y530785D01*
X695152Y530699D01*
X695135Y530685D01*
X695116Y530674D01*
X694980Y530556D01*
X694843Y530442D01*
X694829Y530424D01*
X694812Y530409D01*
X694703Y530267D01*
X694591Y530128D01*
X694580Y530108D01*
X694567Y530090D01*
X694415Y529795D01*
X694113Y529066D01*
X691362Y526315D01*
X687768Y524826D01*
X683877Y524826D01*
X680283Y526315D01*
X677532Y529066D01*
X677230Y529795D01*
X677219Y529815D01*
X677212Y529836D01*
X677124Y529992D01*
X677039Y530150D01*
X677025Y530167D01*
X677014Y530187D01*
X676897Y530322D01*
X676783Y530460D01*
X676766Y530474D01*
X676751Y530491D01*
X676610Y530601D01*
X676470Y530714D01*
X676451Y530724D01*
X676433Y530738D01*
X676272Y530818D01*
X676114Y530901D01*
X676092Y530907D01*
X676072Y530917D01*
X675899Y530964D01*
X675727Y531014D01*
X675705Y531016D01*
X675684Y531022D01*
X675353Y531049D01*
X647449Y531049D01*
X647422Y531046D01*
X647396Y531048D01*
X647222Y531026D01*
X647048Y531009D01*
X647023Y531001D01*
X646996Y530998D01*
X646831Y530942D01*
X646663Y530891D01*
X646640Y530878D01*
X646614Y530870D01*
X646463Y530783D01*
X646309Y530699D01*
X646289Y530682D01*
X646266Y530669D01*
X646013Y530454D01*
X639591Y524032D01*
X639576Y524015D01*
X639559Y524000D01*
X639449Y523859D01*
X639336Y523721D01*
X639325Y523701D01*
X639311Y523683D01*
X639231Y523523D01*
X639147Y523365D01*
X639141Y523344D01*
X639130Y523324D01*
X639083Y523150D01*
X639032Y522979D01*
X639030Y522957D01*
X639024Y522935D01*
X639012Y522757D01*
X638996Y522578D01*
X638998Y522556D01*
X638997Y522534D01*
X639020Y522357D01*
X639039Y522178D01*
X639046Y522156D01*
X639049Y522134D01*
X639150Y521818D01*
X639422Y521161D01*
X639422Y517321D01*
X637953Y513773D01*
X635238Y511058D01*
X631690Y509589D01*
X627850Y509589D01*
G37*
%LPD*%
%LPC*%
G36*
X746307Y460270D02*
X746307Y460270D01*
X741546Y465031D01*
X741546Y470656D01*
X741543Y470682D01*
X741545Y470709D01*
X741523Y470883D01*
X741506Y471056D01*
X741498Y471082D01*
X741495Y471109D01*
X741439Y471274D01*
X741388Y471441D01*
X741375Y471465D01*
X741366Y471490D01*
X741279Y471642D01*
X741196Y471795D01*
X741179Y471816D01*
X741165Y471839D01*
X740951Y472092D01*
X733389Y479654D01*
X733368Y479671D01*
X733351Y479691D01*
X733213Y479798D01*
X733077Y479909D01*
X733054Y479922D01*
X733033Y479938D01*
X732876Y480016D01*
X732722Y480098D01*
X732696Y480105D01*
X732672Y480117D01*
X732503Y480163D01*
X732336Y480213D01*
X732309Y480215D01*
X732283Y480222D01*
X731952Y480249D01*
X696292Y480249D01*
X696270Y480247D01*
X696247Y480249D01*
X696070Y480227D01*
X695891Y480209D01*
X695870Y480203D01*
X695848Y480200D01*
X695678Y480144D01*
X695506Y480091D01*
X695487Y480080D01*
X695466Y480073D01*
X695310Y479985D01*
X695152Y479899D01*
X695135Y479885D01*
X695116Y479874D01*
X694980Y479756D01*
X694843Y479642D01*
X694829Y479624D01*
X694812Y479609D01*
X694703Y479467D01*
X694591Y479328D01*
X694580Y479308D01*
X694567Y479290D01*
X694415Y478995D01*
X694113Y478266D01*
X691362Y475515D01*
X687768Y474026D01*
X683877Y474026D01*
X680283Y475515D01*
X677532Y478266D01*
X677230Y478995D01*
X677219Y479015D01*
X677212Y479036D01*
X677124Y479192D01*
X677039Y479350D01*
X677025Y479367D01*
X677014Y479387D01*
X676897Y479522D01*
X676783Y479660D01*
X676766Y479674D01*
X676751Y479691D01*
X676610Y479801D01*
X676470Y479914D01*
X676451Y479924D01*
X676433Y479938D01*
X676272Y480018D01*
X676114Y480101D01*
X676092Y480107D01*
X676072Y480117D01*
X675899Y480164D01*
X675727Y480214D01*
X675705Y480216D01*
X675684Y480222D01*
X675353Y480249D01*
X638184Y480249D01*
X638177Y480261D01*
X638127Y480367D01*
X638077Y480435D01*
X638034Y480508D01*
X637938Y480622D01*
X637887Y480691D01*
X637855Y480719D01*
X637820Y480761D01*
X635654Y482927D01*
X635654Y482928D01*
X634561Y484020D01*
X634543Y484035D01*
X634529Y484052D01*
X634388Y484161D01*
X634249Y484276D01*
X634229Y484286D01*
X634212Y484300D01*
X634051Y484380D01*
X633893Y484464D01*
X633872Y484470D01*
X633852Y484481D01*
X633679Y484528D01*
X633507Y484579D01*
X633485Y484581D01*
X633464Y484587D01*
X633286Y484599D01*
X633107Y484615D01*
X633084Y484613D01*
X633062Y484614D01*
X632886Y484591D01*
X632706Y484572D01*
X632685Y484565D01*
X632663Y484562D01*
X632347Y484461D01*
X631690Y484189D01*
X627850Y484189D01*
X624302Y485658D01*
X621587Y488373D01*
X620117Y491921D01*
X620117Y495761D01*
X621587Y499309D01*
X624302Y502025D01*
X627850Y503494D01*
X631690Y503494D01*
X635238Y502025D01*
X637953Y499309D01*
X639422Y495761D01*
X639422Y491921D01*
X639150Y491264D01*
X639144Y491243D01*
X639134Y491223D01*
X639086Y491050D01*
X639034Y490879D01*
X639032Y490857D01*
X639026Y490835D01*
X639013Y490655D01*
X638996Y490478D01*
X638998Y490456D01*
X638996Y490433D01*
X639019Y490255D01*
X639037Y490077D01*
X639044Y490056D01*
X639047Y490034D01*
X639104Y489865D01*
X639157Y489693D01*
X639168Y489673D01*
X639175Y489652D01*
X639264Y489497D01*
X639350Y489340D01*
X639365Y489323D01*
X639376Y489303D01*
X639591Y489050D01*
X640684Y487957D01*
X640704Y487941D01*
X640722Y487920D01*
X640860Y487813D01*
X640995Y487702D01*
X641019Y487690D01*
X641040Y487673D01*
X641197Y487595D01*
X641351Y487514D01*
X641376Y487506D01*
X641400Y487494D01*
X641570Y487449D01*
X641737Y487399D01*
X641763Y487397D01*
X641789Y487390D01*
X642120Y487363D01*
X675353Y487363D01*
X675375Y487365D01*
X675397Y487363D01*
X675575Y487385D01*
X675754Y487402D01*
X675775Y487409D01*
X675797Y487412D01*
X675966Y487468D01*
X676138Y487521D01*
X676158Y487531D01*
X676179Y487538D01*
X676335Y487627D01*
X676492Y487712D01*
X676510Y487727D01*
X676529Y487738D01*
X676664Y487856D01*
X676802Y487970D01*
X676816Y487987D01*
X676833Y488002D01*
X676942Y488144D01*
X677054Y488284D01*
X677064Y488304D01*
X677078Y488321D01*
X677230Y488616D01*
X677532Y489346D01*
X680283Y492097D01*
X683877Y493586D01*
X687768Y493586D01*
X691362Y492097D01*
X694113Y489346D01*
X694415Y488616D01*
X694426Y488597D01*
X694433Y488576D01*
X694521Y488419D01*
X694605Y488262D01*
X694620Y488244D01*
X694631Y488225D01*
X694747Y488090D01*
X694862Y487951D01*
X694879Y487937D01*
X694894Y487920D01*
X695035Y487811D01*
X695174Y487698D01*
X695194Y487687D01*
X695212Y487673D01*
X695373Y487594D01*
X695531Y487510D01*
X695552Y487504D01*
X695572Y487494D01*
X695746Y487447D01*
X695917Y487397D01*
X695940Y487395D01*
X695961Y487390D01*
X696292Y487363D01*
X735740Y487363D01*
X745981Y477122D01*
X746001Y477105D01*
X746019Y477085D01*
X746157Y476978D01*
X746292Y476867D01*
X746316Y476855D01*
X746337Y476838D01*
X746494Y476760D01*
X746648Y476678D01*
X746674Y476671D01*
X746698Y476659D01*
X746867Y476613D01*
X747034Y476564D01*
X747060Y476561D01*
X747086Y476554D01*
X747417Y476527D01*
X753041Y476527D01*
X757803Y471765D01*
X757803Y465031D01*
X753041Y460270D01*
X746307Y460270D01*
G37*
%LPD*%
%LPC*%
G36*
X551650Y611189D02*
X551650Y611189D01*
X548102Y612658D01*
X545387Y615373D01*
X545114Y616031D01*
X545104Y616050D01*
X545097Y616072D01*
X545009Y616228D01*
X544924Y616385D01*
X544910Y616403D01*
X544899Y616422D01*
X544782Y616558D01*
X544668Y616696D01*
X544650Y616710D01*
X544636Y616727D01*
X544495Y616836D01*
X544355Y616950D01*
X544335Y616960D01*
X544318Y616974D01*
X544158Y617053D01*
X543999Y617137D01*
X543977Y617143D01*
X543957Y617153D01*
X543784Y617200D01*
X543612Y617250D01*
X543590Y617252D01*
X543568Y617257D01*
X543238Y617285D01*
X513996Y617285D01*
X501891Y629390D01*
X501871Y629407D01*
X501853Y629427D01*
X501715Y629534D01*
X501580Y629645D01*
X501556Y629657D01*
X501535Y629674D01*
X501378Y629752D01*
X501224Y629833D01*
X501199Y629841D01*
X501175Y629853D01*
X501005Y629898D01*
X500838Y629948D01*
X500812Y629951D01*
X500786Y629957D01*
X500455Y629985D01*
X494772Y629985D01*
X494750Y629982D01*
X494727Y629984D01*
X494550Y629962D01*
X494371Y629945D01*
X494350Y629938D01*
X494328Y629935D01*
X494158Y629879D01*
X493986Y629827D01*
X493967Y629816D01*
X493946Y629809D01*
X493790Y629720D01*
X493632Y629635D01*
X493615Y629621D01*
X493596Y629609D01*
X493461Y629492D01*
X493323Y629377D01*
X493309Y629360D01*
X493292Y629345D01*
X493183Y629203D01*
X493071Y629063D01*
X493060Y629043D01*
X493047Y629026D01*
X492895Y628731D01*
X492742Y628361D01*
X490170Y625789D01*
X486809Y624397D01*
X467931Y624397D01*
X464570Y625789D01*
X461997Y628361D01*
X460605Y631722D01*
X460605Y635360D01*
X461997Y638721D01*
X464570Y641294D01*
X467931Y642686D01*
X486809Y642686D01*
X490170Y641294D01*
X492742Y638721D01*
X492895Y638352D01*
X492906Y638332D01*
X492913Y638311D01*
X493001Y638155D01*
X493085Y637997D01*
X493100Y637980D01*
X493111Y637960D01*
X493228Y637825D01*
X493342Y637687D01*
X493359Y637673D01*
X493374Y637656D01*
X493515Y637546D01*
X493654Y637433D01*
X493674Y637423D01*
X493692Y637409D01*
X493852Y637329D01*
X494011Y637246D01*
X494032Y637240D01*
X494052Y637230D01*
X494226Y637183D01*
X494397Y637133D01*
X494420Y637131D01*
X494441Y637125D01*
X494772Y637098D01*
X504243Y637098D01*
X516348Y624993D01*
X516369Y624976D01*
X516386Y624956D01*
X516524Y624849D01*
X516660Y624738D01*
X516683Y624725D01*
X516704Y624709D01*
X516861Y624631D01*
X517015Y624549D01*
X517041Y624542D01*
X517065Y624530D01*
X517234Y624484D01*
X517401Y624435D01*
X517428Y624432D01*
X517454Y624425D01*
X517784Y624398D01*
X543238Y624398D01*
X543260Y624400D01*
X543282Y624399D01*
X543460Y624420D01*
X543638Y624438D01*
X543660Y624445D01*
X543682Y624447D01*
X543852Y624503D01*
X544023Y624556D01*
X544043Y624567D01*
X544064Y624574D01*
X544220Y624662D01*
X544377Y624748D01*
X544394Y624762D01*
X544414Y624773D01*
X544549Y624891D01*
X544687Y625006D01*
X544700Y625023D01*
X544717Y625038D01*
X544827Y625180D01*
X544939Y625319D01*
X544949Y625339D01*
X544963Y625357D01*
X545114Y625652D01*
X545387Y626309D01*
X548102Y629025D01*
X551650Y630494D01*
X555490Y630494D01*
X559038Y629025D01*
X561753Y626309D01*
X563222Y622761D01*
X563222Y618921D01*
X561753Y615373D01*
X559038Y612658D01*
X555490Y611189D01*
X551650Y611189D01*
G37*
%LPD*%
%LPC*%
G36*
X551650Y585789D02*
X551650Y585789D01*
X548102Y587258D01*
X545387Y589973D01*
X545114Y590631D01*
X545104Y590650D01*
X545097Y590672D01*
X545009Y590828D01*
X544924Y590985D01*
X544910Y591003D01*
X544899Y591022D01*
X544782Y591158D01*
X544668Y591296D01*
X544650Y591310D01*
X544636Y591327D01*
X544495Y591436D01*
X544355Y591550D01*
X544335Y591560D01*
X544318Y591574D01*
X544158Y591653D01*
X543999Y591737D01*
X543977Y591743D01*
X543957Y591753D01*
X543784Y591800D01*
X543612Y591850D01*
X543590Y591852D01*
X543568Y591857D01*
X543238Y591885D01*
X513996Y591885D01*
X501891Y603990D01*
X501871Y604007D01*
X501853Y604027D01*
X501715Y604134D01*
X501580Y604245D01*
X501556Y604257D01*
X501535Y604274D01*
X501378Y604352D01*
X501224Y604433D01*
X501199Y604441D01*
X501175Y604453D01*
X501005Y604498D01*
X500838Y604548D01*
X500812Y604551D01*
X500786Y604557D01*
X500455Y604585D01*
X494772Y604585D01*
X494750Y604582D01*
X494727Y604584D01*
X494550Y604562D01*
X494371Y604545D01*
X494350Y604538D01*
X494328Y604535D01*
X494158Y604479D01*
X493986Y604427D01*
X493967Y604416D01*
X493946Y604409D01*
X493790Y604320D01*
X493632Y604235D01*
X493615Y604221D01*
X493596Y604209D01*
X493461Y604092D01*
X493323Y603977D01*
X493309Y603960D01*
X493292Y603945D01*
X493183Y603803D01*
X493071Y603663D01*
X493060Y603643D01*
X493047Y603626D01*
X492895Y603331D01*
X492742Y602961D01*
X490170Y600389D01*
X486809Y598997D01*
X467931Y598997D01*
X464570Y600389D01*
X461997Y602961D01*
X460605Y606322D01*
X460605Y609960D01*
X461997Y613321D01*
X464570Y615894D01*
X467931Y617286D01*
X486809Y617286D01*
X490170Y615894D01*
X492742Y613321D01*
X492895Y612952D01*
X492906Y612932D01*
X492913Y612911D01*
X493001Y612755D01*
X493085Y612597D01*
X493100Y612580D01*
X493111Y612560D01*
X493228Y612425D01*
X493342Y612287D01*
X493359Y612273D01*
X493374Y612256D01*
X493515Y612146D01*
X493654Y612033D01*
X493674Y612023D01*
X493692Y612009D01*
X493852Y611929D01*
X494011Y611846D01*
X494032Y611840D01*
X494052Y611830D01*
X494226Y611783D01*
X494397Y611733D01*
X494420Y611731D01*
X494441Y611725D01*
X494772Y611698D01*
X504243Y611698D01*
X516348Y599593D01*
X516369Y599576D01*
X516386Y599556D01*
X516524Y599449D01*
X516660Y599338D01*
X516683Y599325D01*
X516704Y599309D01*
X516861Y599231D01*
X517015Y599149D01*
X517041Y599142D01*
X517065Y599130D01*
X517234Y599084D01*
X517401Y599035D01*
X517428Y599032D01*
X517454Y599025D01*
X517784Y598998D01*
X543238Y598998D01*
X543260Y599000D01*
X543282Y598999D01*
X543460Y599020D01*
X543638Y599038D01*
X543660Y599045D01*
X543682Y599047D01*
X543852Y599103D01*
X544023Y599156D01*
X544043Y599167D01*
X544064Y599174D01*
X544220Y599262D01*
X544377Y599348D01*
X544394Y599362D01*
X544414Y599373D01*
X544549Y599491D01*
X544687Y599606D01*
X544700Y599623D01*
X544717Y599638D01*
X544827Y599780D01*
X544939Y599919D01*
X544949Y599939D01*
X544963Y599957D01*
X545114Y600252D01*
X545387Y600909D01*
X548102Y603625D01*
X551650Y605094D01*
X555490Y605094D01*
X559038Y603625D01*
X561753Y600909D01*
X563222Y597361D01*
X563222Y593521D01*
X561753Y589973D01*
X559038Y587258D01*
X555490Y585789D01*
X551650Y585789D01*
G37*
%LPD*%
%LPC*%
G36*
X551650Y560389D02*
X551650Y560389D01*
X548102Y561858D01*
X545387Y564573D01*
X545114Y565231D01*
X545104Y565250D01*
X545097Y565272D01*
X545009Y565428D01*
X544924Y565585D01*
X544910Y565603D01*
X544899Y565622D01*
X544782Y565758D01*
X544668Y565896D01*
X544650Y565910D01*
X544636Y565927D01*
X544495Y566036D01*
X544355Y566150D01*
X544335Y566160D01*
X544318Y566174D01*
X544158Y566253D01*
X543999Y566337D01*
X543977Y566343D01*
X543957Y566353D01*
X543784Y566400D01*
X543612Y566450D01*
X543590Y566452D01*
X543568Y566457D01*
X543238Y566485D01*
X494772Y566485D01*
X494750Y566482D01*
X494727Y566484D01*
X494550Y566462D01*
X494371Y566445D01*
X494350Y566438D01*
X494328Y566435D01*
X494158Y566379D01*
X493986Y566327D01*
X493967Y566316D01*
X493946Y566309D01*
X493790Y566220D01*
X493632Y566135D01*
X493615Y566121D01*
X493596Y566109D01*
X493461Y565992D01*
X493323Y565877D01*
X493309Y565860D01*
X493292Y565845D01*
X493183Y565703D01*
X493071Y565563D01*
X493060Y565543D01*
X493047Y565526D01*
X492895Y565231D01*
X492742Y564861D01*
X490170Y562289D01*
X486809Y560897D01*
X467931Y560897D01*
X464570Y562289D01*
X461997Y564861D01*
X460605Y568222D01*
X460605Y571860D01*
X461997Y575221D01*
X464570Y577794D01*
X467931Y579186D01*
X486809Y579186D01*
X490170Y577794D01*
X492742Y575221D01*
X492895Y574852D01*
X492906Y574832D01*
X492913Y574811D01*
X493001Y574655D01*
X493085Y574497D01*
X493100Y574480D01*
X493111Y574460D01*
X493228Y574325D01*
X493342Y574187D01*
X493359Y574173D01*
X493374Y574156D01*
X493515Y574046D01*
X493654Y573933D01*
X493674Y573923D01*
X493692Y573909D01*
X493852Y573829D01*
X494011Y573746D01*
X494032Y573740D01*
X494052Y573730D01*
X494226Y573683D01*
X494397Y573633D01*
X494420Y573631D01*
X494441Y573625D01*
X494772Y573598D01*
X543238Y573598D01*
X543260Y573600D01*
X543282Y573599D01*
X543460Y573620D01*
X543638Y573638D01*
X543660Y573645D01*
X543682Y573647D01*
X543852Y573703D01*
X544023Y573756D01*
X544043Y573767D01*
X544064Y573774D01*
X544220Y573862D01*
X544377Y573948D01*
X544394Y573962D01*
X544414Y573973D01*
X544549Y574091D01*
X544687Y574206D01*
X544700Y574223D01*
X544717Y574238D01*
X544827Y574380D01*
X544939Y574519D01*
X544949Y574539D01*
X544963Y574557D01*
X545114Y574852D01*
X545387Y575509D01*
X548102Y578225D01*
X551650Y579694D01*
X555490Y579694D01*
X559038Y578225D01*
X561753Y575509D01*
X563222Y571961D01*
X563222Y568121D01*
X561753Y564573D01*
X559038Y561858D01*
X555490Y560389D01*
X551650Y560389D01*
G37*
%LPD*%
%LPC*%
G36*
X551650Y534989D02*
X551650Y534989D01*
X548102Y536458D01*
X545387Y539173D01*
X545114Y539831D01*
X545104Y539850D01*
X545097Y539872D01*
X545009Y540028D01*
X544924Y540185D01*
X544910Y540203D01*
X544899Y540222D01*
X544782Y540358D01*
X544668Y540496D01*
X544650Y540510D01*
X544636Y540527D01*
X544495Y540636D01*
X544355Y540750D01*
X544335Y540760D01*
X544318Y540774D01*
X544158Y540853D01*
X543999Y540937D01*
X543977Y540943D01*
X543957Y540953D01*
X543784Y541000D01*
X543612Y541050D01*
X543590Y541052D01*
X543568Y541057D01*
X543238Y541085D01*
X494772Y541085D01*
X494750Y541082D01*
X494727Y541084D01*
X494550Y541062D01*
X494371Y541045D01*
X494350Y541038D01*
X494328Y541035D01*
X494158Y540979D01*
X493986Y540927D01*
X493967Y540916D01*
X493946Y540909D01*
X493790Y540820D01*
X493632Y540735D01*
X493615Y540721D01*
X493596Y540709D01*
X493461Y540592D01*
X493323Y540477D01*
X493309Y540460D01*
X493292Y540445D01*
X493183Y540303D01*
X493071Y540163D01*
X493060Y540143D01*
X493047Y540126D01*
X492895Y539831D01*
X492742Y539461D01*
X490170Y536889D01*
X486809Y535497D01*
X467931Y535497D01*
X464570Y536889D01*
X461997Y539461D01*
X460605Y542822D01*
X460605Y546460D01*
X461997Y549821D01*
X464570Y552394D01*
X467931Y553786D01*
X486809Y553786D01*
X490170Y552394D01*
X492742Y549821D01*
X492895Y549452D01*
X492906Y549432D01*
X492913Y549411D01*
X493001Y549255D01*
X493085Y549097D01*
X493100Y549080D01*
X493111Y549060D01*
X493228Y548925D01*
X493342Y548787D01*
X493359Y548773D01*
X493374Y548756D01*
X493515Y548646D01*
X493654Y548533D01*
X493674Y548523D01*
X493692Y548509D01*
X493852Y548429D01*
X494011Y548346D01*
X494032Y548340D01*
X494052Y548330D01*
X494226Y548283D01*
X494397Y548233D01*
X494420Y548231D01*
X494441Y548225D01*
X494772Y548198D01*
X543238Y548198D01*
X543260Y548200D01*
X543282Y548199D01*
X543460Y548220D01*
X543638Y548238D01*
X543660Y548245D01*
X543682Y548247D01*
X543852Y548303D01*
X544023Y548356D01*
X544043Y548367D01*
X544064Y548374D01*
X544220Y548462D01*
X544377Y548548D01*
X544394Y548562D01*
X544414Y548573D01*
X544549Y548691D01*
X544687Y548806D01*
X544700Y548823D01*
X544717Y548838D01*
X544827Y548980D01*
X544939Y549119D01*
X544949Y549139D01*
X544963Y549157D01*
X545114Y549452D01*
X545387Y550109D01*
X548102Y552825D01*
X551650Y554294D01*
X555490Y554294D01*
X559038Y552825D01*
X561753Y550109D01*
X563222Y546561D01*
X563222Y542721D01*
X561753Y539173D01*
X559038Y536458D01*
X555490Y534989D01*
X551650Y534989D01*
G37*
%LPD*%
%LPC*%
G36*
X434575Y434357D02*
X434575Y434357D01*
X429813Y439118D01*
X429813Y445852D01*
X434575Y450614D01*
X440199Y450614D01*
X440226Y450617D01*
X440252Y450615D01*
X440426Y450637D01*
X440600Y450654D01*
X440625Y450662D01*
X440652Y450665D01*
X440817Y450721D01*
X440985Y450772D01*
X441008Y450785D01*
X441034Y450793D01*
X441185Y450881D01*
X441339Y450964D01*
X441359Y450981D01*
X441382Y450994D01*
X441635Y451209D01*
X459634Y469208D01*
X481459Y469208D01*
X481486Y469211D01*
X481513Y469209D01*
X481687Y469231D01*
X481860Y469248D01*
X481885Y469256D01*
X481912Y469259D01*
X482078Y469315D01*
X482245Y469366D01*
X482268Y469379D01*
X482294Y469387D01*
X482445Y469475D01*
X482599Y469558D01*
X482619Y469575D01*
X482643Y469588D01*
X482896Y469803D01*
X486873Y473780D01*
X493607Y473780D01*
X498368Y469018D01*
X498368Y462284D01*
X493607Y457522D01*
X486873Y457522D01*
X482896Y461500D01*
X482875Y461516D01*
X482857Y461537D01*
X482719Y461644D01*
X482584Y461755D01*
X482560Y461767D01*
X482539Y461784D01*
X482383Y461861D01*
X482228Y461943D01*
X482203Y461951D01*
X482179Y461963D01*
X482009Y462008D01*
X481842Y462058D01*
X481816Y462060D01*
X481790Y462067D01*
X481459Y462094D01*
X463422Y462094D01*
X463396Y462092D01*
X463369Y462094D01*
X463195Y462072D01*
X463022Y462055D01*
X462996Y462047D01*
X462970Y462043D01*
X462804Y461988D01*
X462637Y461936D01*
X462613Y461924D01*
X462588Y461915D01*
X462436Y461828D01*
X462283Y461745D01*
X462262Y461728D01*
X462239Y461714D01*
X461986Y461500D01*
X446665Y446179D01*
X446648Y446158D01*
X446628Y446141D01*
X446521Y446003D01*
X446410Y445867D01*
X446398Y445844D01*
X446381Y445823D01*
X446303Y445666D01*
X446222Y445512D01*
X446214Y445486D01*
X446202Y445462D01*
X446157Y445293D01*
X446107Y445126D01*
X446105Y445099D01*
X446098Y445073D01*
X446070Y444743D01*
X446070Y439118D01*
X441309Y434357D01*
X434575Y434357D01*
G37*
%LPD*%
%LPC*%
G36*
X554731Y235843D02*
X554731Y235843D01*
X550717Y237506D01*
X547644Y240578D01*
X545981Y244593D01*
X545981Y248938D01*
X547644Y252953D01*
X550717Y256025D01*
X554731Y257688D01*
X559077Y257688D01*
X563091Y256025D01*
X566164Y252953D01*
X567827Y248938D01*
X567827Y244593D01*
X566164Y240578D01*
X563091Y237506D01*
X559077Y235843D01*
X554731Y235843D01*
G37*
%LPD*%
%LPC*%
G36*
X554731Y190631D02*
X554731Y190631D01*
X550717Y192294D01*
X547644Y195366D01*
X545981Y199381D01*
X545981Y203726D01*
X547644Y207741D01*
X550717Y210813D01*
X554731Y212476D01*
X559077Y212476D01*
X563091Y210813D01*
X566164Y207741D01*
X567827Y203726D01*
X567827Y199381D01*
X566164Y195366D01*
X563091Y192294D01*
X559447Y190784D01*
X559077Y190631D01*
X554731Y190631D01*
G37*
%LPD*%
%LPC*%
G36*
X797724Y86331D02*
X797724Y86331D01*
X797724Y106092D01*
X800351Y105492D01*
X802909Y104597D01*
X805351Y103421D01*
X807646Y101979D01*
X809765Y100290D01*
X811682Y98373D01*
X813372Y96254D01*
X814813Y93959D01*
X815989Y91517D01*
X816885Y88959D01*
X817484Y86331D01*
X797724Y86331D01*
G37*
%LPD*%
%LPC*%
G36*
X844724Y116331D02*
X844724Y116331D01*
X844724Y136092D01*
X847351Y135492D01*
X849909Y134597D01*
X852351Y133421D01*
X854646Y131979D01*
X856765Y130290D01*
X858682Y128373D01*
X860372Y126254D01*
X861813Y123959D01*
X862989Y121517D01*
X863885Y118959D01*
X864484Y116331D01*
X844724Y116331D01*
G37*
%LPD*%
%LPC*%
G36*
X797724Y78205D02*
X797724Y78205D01*
X817484Y78205D01*
X816885Y75577D01*
X815989Y73019D01*
X814813Y70577D01*
X813372Y68283D01*
X811682Y66164D01*
X809765Y64247D01*
X807646Y62557D01*
X805351Y61115D01*
X802909Y59939D01*
X800351Y59044D01*
X797724Y58444D01*
X797724Y78205D01*
G37*
%LPD*%
%LPC*%
G36*
X769836Y86331D02*
X769836Y86331D01*
X770436Y88959D01*
X771331Y91517D01*
X772507Y93959D01*
X773949Y96254D01*
X775639Y98373D01*
X777556Y100290D01*
X779675Y101979D01*
X781970Y103421D01*
X784411Y104597D01*
X786970Y105492D01*
X789597Y106092D01*
X789597Y86331D01*
X769836Y86331D01*
G37*
%LPD*%
%LPC*%
G36*
X844724Y108205D02*
X844724Y108205D01*
X864484Y108205D01*
X863885Y105577D01*
X862989Y103019D01*
X861813Y100577D01*
X860372Y98283D01*
X858682Y96164D01*
X856765Y94247D01*
X854646Y92557D01*
X852351Y91115D01*
X849909Y89939D01*
X847351Y89044D01*
X844724Y88444D01*
X844724Y108205D01*
G37*
%LPD*%
%LPC*%
G36*
X816836Y116331D02*
X816836Y116331D01*
X817436Y118959D01*
X818331Y121517D01*
X819507Y123959D01*
X820949Y126254D01*
X822639Y128373D01*
X824556Y130290D01*
X826675Y131979D01*
X828970Y133421D01*
X831411Y134597D01*
X833970Y135492D01*
X836597Y136092D01*
X836597Y116331D01*
X816836Y116331D01*
G37*
%LPD*%
%LPC*%
G36*
X786970Y59044D02*
X786970Y59044D01*
X784411Y59939D01*
X781970Y61115D01*
X779675Y62557D01*
X777556Y64247D01*
X775639Y66164D01*
X773949Y68283D01*
X772507Y70577D01*
X771331Y73019D01*
X770436Y75577D01*
X769836Y78205D01*
X789597Y78205D01*
X789597Y58444D01*
X786970Y59044D01*
G37*
%LPD*%
%LPC*%
G36*
X833970Y89044D02*
X833970Y89044D01*
X831411Y89939D01*
X828970Y91115D01*
X826675Y92557D01*
X824556Y94247D01*
X822639Y96164D01*
X820949Y98283D01*
X819507Y100577D01*
X818331Y103019D01*
X817436Y105577D01*
X816836Y108205D01*
X836597Y108205D01*
X836597Y88444D01*
X833970Y89044D01*
G37*
%LPD*%
%LPC*%
G36*
X853955Y393151D02*
X853955Y393151D01*
X853955Y400772D01*
X859836Y400772D01*
X861415Y400522D01*
X862937Y400028D01*
X864361Y399302D01*
X865655Y398362D01*
X866786Y397231D01*
X867726Y395937D01*
X868452Y394512D01*
X868895Y393151D01*
X853955Y393151D01*
G37*
%LPD*%
%LPC*%
G36*
X833938Y393151D02*
X833938Y393151D01*
X834380Y394512D01*
X835106Y395937D01*
X836046Y397231D01*
X837177Y398362D01*
X838471Y399302D01*
X839896Y400028D01*
X841417Y400522D01*
X842997Y400772D01*
X848877Y400772D01*
X848877Y393151D01*
X833938Y393151D01*
G37*
%LPD*%
%LPC*%
G36*
X853955Y380451D02*
X853955Y380451D01*
X853955Y388072D01*
X868895Y388072D01*
X868452Y386711D01*
X867726Y385286D01*
X866786Y383992D01*
X865655Y382861D01*
X864361Y381921D01*
X862937Y381195D01*
X861415Y380701D01*
X859836Y380451D01*
X853955Y380451D01*
G37*
%LPD*%
%LPC*%
G36*
X842997Y380451D02*
X842997Y380451D01*
X841417Y380701D01*
X839896Y381195D01*
X838471Y381921D01*
X837177Y382861D01*
X836046Y383992D01*
X835106Y385286D01*
X834380Y386711D01*
X833938Y388072D01*
X848877Y388072D01*
X848877Y380451D01*
X842997Y380451D01*
G37*
%LPD*%
%LPC*%
G36*
X624467Y204093D02*
X624467Y204093D01*
X624467Y213239D01*
X624724Y213198D01*
X626511Y212617D01*
X628185Y211764D01*
X629706Y210660D01*
X631034Y209331D01*
X632139Y207811D01*
X632992Y206136D01*
X633573Y204349D01*
X633614Y204093D01*
X624467Y204093D01*
G37*
%LPD*%
%LPC*%
G36*
X610243Y204093D02*
X610243Y204093D01*
X610283Y204349D01*
X610864Y206136D01*
X611717Y207811D01*
X612822Y209331D01*
X614151Y210660D01*
X615671Y211764D01*
X617345Y212617D01*
X619132Y213198D01*
X619389Y213239D01*
X619389Y204093D01*
X610243Y204093D01*
G37*
%LPD*%
%LPC*%
G36*
X624467Y199014D02*
X624467Y199014D01*
X633614Y199014D01*
X633573Y198758D01*
X632992Y196971D01*
X632139Y195296D01*
X631034Y193776D01*
X629706Y192447D01*
X628185Y191342D01*
X626511Y190489D01*
X624724Y189909D01*
X624467Y189868D01*
X624467Y199014D01*
G37*
%LPD*%
%LPC*%
G36*
X619132Y189909D02*
X619132Y189909D01*
X617345Y190489D01*
X615671Y191342D01*
X614151Y192447D01*
X612822Y193776D01*
X611717Y195296D01*
X610864Y196971D01*
X610283Y198758D01*
X610243Y199014D01*
X619389Y199014D01*
X619389Y189868D01*
X619132Y189909D01*
G37*
%LPD*%
%LPC*%
G36*
X631801Y470473D02*
X631801Y470473D01*
X631801Y478921D01*
X632268Y478847D01*
X633865Y478328D01*
X635461Y477515D01*
X635540Y477485D01*
X635614Y477445D01*
X635727Y477411D01*
X635836Y477369D01*
X635919Y477354D01*
X636000Y477330D01*
X636105Y477321D01*
X636144Y477253D01*
X636222Y477104D01*
X636242Y477078D01*
X636259Y477049D01*
X636369Y476921D01*
X636475Y476791D01*
X636503Y476766D01*
X636522Y476744D01*
X636590Y476691D01*
X636714Y476585D01*
X637907Y475392D01*
X638894Y474033D01*
X639657Y472537D01*
X640176Y470940D01*
X640250Y470473D01*
X631801Y470473D01*
G37*
%LPD*%
%LPC*%
G36*
X555601Y441010D02*
X555601Y441010D01*
X564050Y441010D01*
X563976Y440543D01*
X563457Y438946D01*
X562694Y437450D01*
X561707Y436091D01*
X560520Y434904D01*
X559161Y433917D01*
X557665Y433154D01*
X556068Y432635D01*
X555601Y432561D01*
X555601Y441010D01*
G37*
%LPD*%
%LPC*%
G36*
X543090Y445073D02*
X543090Y445073D01*
X543164Y445540D01*
X543683Y447137D01*
X544445Y448633D01*
X545432Y449992D01*
X546619Y451179D01*
X547978Y452166D01*
X549474Y452928D01*
X551071Y453447D01*
X551538Y453521D01*
X551538Y445073D01*
X543090Y445073D01*
G37*
%LPD*%
%LPC*%
G36*
X619290Y470473D02*
X619290Y470473D01*
X619364Y470940D01*
X619883Y472537D01*
X620645Y474033D01*
X621632Y475392D01*
X622819Y476579D01*
X624178Y477566D01*
X625674Y478328D01*
X627271Y478847D01*
X627738Y478921D01*
X627738Y470473D01*
X619290Y470473D01*
G37*
%LPD*%
%LPC*%
G36*
X631801Y466410D02*
X631801Y466410D01*
X640250Y466410D01*
X640176Y465943D01*
X639657Y464346D01*
X638894Y462850D01*
X637907Y461491D01*
X636720Y460304D01*
X635361Y459317D01*
X633865Y458554D01*
X632268Y458035D01*
X631801Y457961D01*
X631801Y466410D01*
G37*
%LPD*%
%LPC*%
G36*
X551071Y432635D02*
X551071Y432635D01*
X549474Y433154D01*
X547978Y433917D01*
X546619Y434904D01*
X545432Y436091D01*
X544445Y437450D01*
X543683Y438946D01*
X543164Y440543D01*
X543090Y441010D01*
X551538Y441010D01*
X551538Y432561D01*
X551071Y432635D01*
G37*
%LPD*%
%LPC*%
G36*
X627271Y458035D02*
X627271Y458035D01*
X625674Y458554D01*
X624178Y459317D01*
X622819Y460304D01*
X621632Y461491D01*
X620645Y462850D01*
X619883Y464346D01*
X619364Y465943D01*
X619290Y466410D01*
X627738Y466410D01*
X627738Y457961D01*
X627271Y458035D01*
G37*
%LPD*%
%LPC*%
G36*
X517671Y467683D02*
X517671Y467683D01*
X517671Y474796D01*
X519427Y474796D01*
X524784Y469439D01*
X524784Y467683D01*
X517671Y467683D01*
G37*
%LPD*%
%LPC*%
G36*
X778002Y525916D02*
X778002Y525916D01*
X778002Y533030D01*
X779759Y533030D01*
X785115Y527673D01*
X785115Y525916D01*
X778002Y525916D01*
G37*
%LPD*%
%LPC*%
G36*
X522731Y90931D02*
X522731Y90931D01*
X522731Y98045D01*
X524488Y98045D01*
X529845Y92688D01*
X529845Y90931D01*
X522731Y90931D01*
G37*
%LPD*%
%LPC*%
G36*
X471931Y90931D02*
X471931Y90931D01*
X471931Y98045D01*
X473688Y98045D01*
X479045Y92688D01*
X479045Y90931D01*
X471931Y90931D01*
G37*
%LPD*%
%LPC*%
G36*
X777106Y470430D02*
X777106Y470430D01*
X777106Y477543D01*
X778862Y477543D01*
X784219Y472186D01*
X784219Y470430D01*
X777106Y470430D01*
G37*
%LPD*%
%LPC*%
G36*
X766826Y525916D02*
X766826Y525916D01*
X766826Y527673D01*
X772183Y533030D01*
X773939Y533030D01*
X773939Y525916D01*
X766826Y525916D01*
G37*
%LPD*%
%LPC*%
G36*
X765930Y470430D02*
X765930Y470430D01*
X765930Y472186D01*
X771287Y477543D01*
X773043Y477543D01*
X773043Y470430D01*
X765930Y470430D01*
G37*
%LPD*%
%LPC*%
G36*
X506495Y467683D02*
X506495Y467683D01*
X506495Y469439D01*
X511852Y474796D01*
X513608Y474796D01*
X513608Y467683D01*
X506495Y467683D01*
G37*
%LPD*%
%LPC*%
G36*
X777106Y459254D02*
X777106Y459254D01*
X777106Y466367D01*
X784219Y466367D01*
X784219Y464611D01*
X778862Y459254D01*
X777106Y459254D01*
G37*
%LPD*%
%LPC*%
G36*
X460755Y90931D02*
X460755Y90931D01*
X460755Y92688D01*
X466112Y98045D01*
X467869Y98045D01*
X467869Y90931D01*
X460755Y90931D01*
G37*
%LPD*%
%LPC*%
G36*
X517671Y456506D02*
X517671Y456506D01*
X517671Y463620D01*
X524784Y463620D01*
X524784Y461863D01*
X519427Y456506D01*
X517671Y456506D01*
G37*
%LPD*%
%LPC*%
G36*
X511555Y90931D02*
X511555Y90931D01*
X511555Y92688D01*
X516912Y98045D01*
X518669Y98045D01*
X518669Y90931D01*
X511555Y90931D01*
G37*
%LPD*%
%LPC*%
G36*
X778002Y514740D02*
X778002Y514740D01*
X778002Y521853D01*
X785115Y521853D01*
X785115Y520097D01*
X779759Y514740D01*
X778002Y514740D01*
G37*
%LPD*%
%LPC*%
G36*
X522731Y79755D02*
X522731Y79755D01*
X522731Y86869D01*
X529845Y86869D01*
X529845Y85112D01*
X524488Y79755D01*
X522731Y79755D01*
G37*
%LPD*%
%LPC*%
G36*
X471931Y79755D02*
X471931Y79755D01*
X471931Y86869D01*
X479045Y86869D01*
X479045Y85112D01*
X473688Y79755D01*
X471931Y79755D01*
G37*
%LPD*%
%LPC*%
G36*
X516912Y79755D02*
X516912Y79755D01*
X511555Y85112D01*
X511555Y86869D01*
X518669Y86869D01*
X518669Y79755D01*
X516912Y79755D01*
G37*
%LPD*%
%LPC*%
G36*
X466112Y79755D02*
X466112Y79755D01*
X460755Y85112D01*
X460755Y86869D01*
X467869Y86869D01*
X467869Y79755D01*
X466112Y79755D01*
G37*
%LPD*%
%LPC*%
G36*
X771287Y459254D02*
X771287Y459254D01*
X765930Y464611D01*
X765930Y466367D01*
X773043Y466367D01*
X773043Y459254D01*
X771287Y459254D01*
G37*
%LPD*%
%LPC*%
G36*
X511852Y456506D02*
X511852Y456506D01*
X506495Y461863D01*
X506495Y463620D01*
X513608Y463620D01*
X513608Y456506D01*
X511852Y456506D01*
G37*
%LPD*%
%LPC*%
G36*
X772183Y514740D02*
X772183Y514740D01*
X766826Y520097D01*
X766826Y521853D01*
X773939Y521853D01*
X773939Y514740D01*
X772183Y514740D01*
G37*
%LPD*%
%LPC*%
G36*
X662431Y90931D02*
X662431Y90931D01*
X662431Y97772D01*
X662526Y97757D01*
X663886Y97315D01*
X665159Y96667D01*
X666316Y95826D01*
X667326Y94816D01*
X668167Y93659D01*
X668815Y92386D01*
X669257Y91026D01*
X669272Y90931D01*
X662431Y90931D01*
G37*
%LPD*%
%LPC*%
G36*
X662431Y86869D02*
X662431Y86869D01*
X669272Y86869D01*
X669257Y86774D01*
X668815Y85414D01*
X668167Y84141D01*
X667326Y82984D01*
X666316Y81974D01*
X665159Y81133D01*
X663886Y80485D01*
X662526Y80043D01*
X662431Y80028D01*
X662431Y86869D01*
G37*
%LPD*%
%LPC*%
G36*
X651528Y90931D02*
X651528Y90931D01*
X651543Y91026D01*
X651985Y92386D01*
X652633Y93659D01*
X653474Y94816D01*
X654484Y95826D01*
X655641Y96667D01*
X656914Y97315D01*
X658274Y97757D01*
X658369Y97772D01*
X658369Y90931D01*
X651528Y90931D01*
G37*
%LPD*%
%LPC*%
G36*
X658274Y80043D02*
X658274Y80043D01*
X656914Y80485D01*
X655641Y81133D01*
X654484Y81974D01*
X653474Y82984D01*
X652633Y84141D01*
X651985Y85414D01*
X651543Y86774D01*
X651528Y86869D01*
X658369Y86869D01*
X658369Y80028D01*
X658274Y80043D01*
G37*
%LPD*%
%LPC*%
G36*
X793659Y82267D02*
X793659Y82267D01*
X793659Y82269D01*
X793661Y82269D01*
X793661Y82267D01*
X793659Y82267D01*
G37*
%LPD*%
%LPC*%
G36*
X840659Y112267D02*
X840659Y112267D01*
X840659Y112269D01*
X840661Y112269D01*
X840661Y112267D01*
X840659Y112267D01*
G37*
%LPD*%
D10*
X793660Y142268D03*
X793660Y82268D03*
X840660Y112268D03*
D11*
X484990Y404941D02*
X469750Y404941D01*
X469750Y379541D02*
X484990Y379541D01*
X484990Y354141D02*
X469750Y354141D01*
X469750Y328741D02*
X484990Y328741D01*
X484990Y303341D02*
X469750Y303341D01*
X469750Y277941D02*
X484990Y277941D01*
D12*
X749674Y468398D03*
X775074Y468398D03*
X750571Y523885D03*
X775971Y523885D03*
D13*
X520700Y63500D03*
X520700Y88900D03*
D14*
X469900Y114300D03*
X469900Y88900D03*
D12*
X682701Y226616D03*
X708101Y226616D03*
D11*
X843796Y289012D02*
X859036Y289012D01*
X859036Y314412D02*
X843796Y314412D01*
X843796Y339812D02*
X859036Y339812D01*
X859036Y365212D02*
X843796Y365212D01*
X843796Y390612D02*
X859036Y390612D01*
X772189Y294669D02*
X756949Y294669D01*
X756949Y320069D02*
X772189Y320069D01*
X772189Y345469D02*
X756949Y345469D01*
X756949Y370869D02*
X772189Y370869D01*
X777314Y560220D02*
X762074Y560220D01*
X762074Y585620D02*
X777314Y585620D01*
X777314Y611020D02*
X762074Y611020D01*
X762074Y636420D02*
X777314Y636420D01*
X484990Y658941D02*
X469750Y658941D01*
X469750Y633541D02*
X484990Y633541D01*
X484990Y608141D02*
X469750Y608141D01*
X469750Y570041D02*
X484990Y570041D01*
X484990Y544641D02*
X469750Y544641D01*
X469750Y519241D02*
X484990Y519241D01*
D12*
X490240Y465651D03*
X515640Y465651D03*
X655798Y181196D03*
X731998Y181196D03*
D14*
X437942Y518685D03*
X437942Y442485D03*
D15*
X621928Y201553D03*
X556904Y201553D03*
X621928Y246765D03*
X556904Y246765D03*
D16*
X629770Y290641D03*
X629770Y316041D03*
X629770Y341441D03*
X629770Y366841D03*
X629770Y392241D03*
X629770Y417641D03*
X629770Y443041D03*
X629770Y468441D03*
X629770Y493841D03*
X629770Y519241D03*
X629770Y544641D03*
X629770Y570041D03*
X629770Y595441D03*
X629770Y620841D03*
X553570Y620841D03*
X553570Y595441D03*
X553570Y570041D03*
X553570Y544641D03*
X553570Y519241D03*
X553570Y493841D03*
X553570Y468441D03*
X553570Y443041D03*
X553570Y417641D03*
X553570Y392241D03*
X553570Y366841D03*
X553570Y341441D03*
X553570Y316041D03*
X553570Y290641D03*
D17*
X660400Y63500D03*
X660400Y88900D03*
X660400Y114300D03*
D18*
X685822Y534606D03*
X685822Y483806D03*
D19*
X722177Y132508D03*
X722177Y104508D03*
D20*
X660400Y63500D02*
X520700Y63500D01*
X678928Y63500D02*
X695834Y80406D01*
X678928Y63500D02*
X660400Y63500D01*
X695834Y80406D02*
X695834Y123826D01*
X704516Y132508D01*
X722177Y132508D01*
D21*
X639805Y483806D02*
X629770Y493841D01*
X639805Y483806D02*
X685822Y483806D01*
X734267Y483806D01*
X749674Y468398D01*
X645134Y534606D02*
X629770Y519241D01*
X645134Y534606D02*
X685822Y534606D01*
X739850Y534606D01*
X750571Y523885D01*
X644792Y246765D02*
X621928Y246765D01*
X644792Y246765D02*
X657430Y259403D01*
X657430Y285147D01*
X651935Y290641D02*
X629770Y290641D01*
X651935Y290641D02*
X657430Y285147D01*
X655798Y217596D02*
X655798Y181196D01*
X664818Y226616D02*
X682701Y226616D01*
X664818Y226616D02*
X655798Y217596D01*
X675356Y233961D02*
X682701Y226616D01*
X634733Y233961D02*
X621928Y246765D01*
X634733Y233961D02*
X675356Y233961D01*
X731998Y181196D02*
X732034Y181160D01*
D20*
X660400Y114300D02*
X469900Y114300D01*
D22*
X660400Y114300D02*
X660400Y140347D01*
X673403Y153350D02*
X716112Y153350D01*
X732034Y169272D01*
X732034Y181160D01*
X673403Y153350D02*
X660400Y140347D01*
X553570Y519241D02*
X477370Y519241D01*
X476814Y518685D02*
X437942Y518685D01*
X476814Y518685D02*
X477370Y519241D01*
D21*
X490240Y465651D02*
X461108Y465651D01*
X437942Y442485D01*
X477370Y404941D02*
X490070Y417641D01*
X553570Y417641D01*
X490070Y392241D02*
X477370Y379541D01*
X490070Y392241D02*
X553570Y392241D01*
X490070Y366841D02*
X477370Y354141D01*
X490070Y366841D02*
X553570Y366841D01*
X490070Y341441D02*
X477370Y328741D01*
X490070Y341441D02*
X553570Y341441D01*
X490070Y316041D02*
X477370Y303341D01*
X490070Y316041D02*
X553570Y316041D01*
X490070Y290641D02*
X477370Y277941D01*
X490070Y290641D02*
X553570Y290641D01*
X708101Y226616D02*
X751492Y226616D01*
X813887Y289012D02*
X851416Y289012D01*
X813887Y289012D02*
X751492Y226616D01*
X649077Y316041D02*
X629770Y316041D01*
X670449Y294669D02*
X764569Y294669D01*
X670449Y294669D02*
X649077Y316041D01*
X764569Y294669D02*
X791404Y294669D01*
X811147Y314412D02*
X851416Y314412D01*
X811147Y314412D02*
X791404Y294669D01*
X647550Y341441D02*
X629770Y341441D01*
X668922Y320069D02*
X764569Y320069D01*
X668922Y320069D02*
X647550Y341441D01*
X764569Y320069D02*
X787340Y320069D01*
X807154Y339883D01*
X851345Y339883D01*
X851416Y339812D01*
X629770Y443041D02*
X578970Y443041D01*
X553570Y468441D01*
X553570Y493841D01*
X618086Y422481D02*
X618086Y412802D01*
X624930Y405957D01*
X772767Y405957D02*
X813499Y365225D01*
X772767Y405957D02*
X624930Y405957D01*
X629770Y434165D02*
X629770Y443041D01*
X629770Y434165D02*
X618086Y422481D01*
X813485Y365212D02*
X813499Y365225D01*
X813485Y365212D02*
X851416Y365212D01*
X651715Y366841D02*
X629770Y366841D01*
X673087Y345469D02*
X764569Y345469D01*
X673087Y345469D02*
X651715Y366841D01*
X646180Y392241D02*
X629770Y392241D01*
X667552Y370869D02*
X764569Y370869D01*
X667552Y370869D02*
X646180Y392241D01*
X629770Y417641D02*
X782462Y417641D01*
X813369Y448548D02*
X813369Y548857D01*
X802005Y560220D01*
X769694Y560220D01*
X813369Y448548D02*
X782462Y417641D01*
X629770Y544641D02*
X670749Y585620D01*
X769694Y585620D01*
X670749Y611020D02*
X629770Y570041D01*
X670749Y611020D02*
X769694Y611020D01*
X670749Y636420D02*
X629770Y595441D01*
X670749Y636420D02*
X769694Y636420D01*
X629770Y646241D02*
X617070Y658941D01*
X629770Y646241D02*
X629770Y620841D01*
X617070Y658941D02*
X477370Y658941D01*
X477370Y633541D02*
X502770Y633541D01*
X515470Y620841D01*
X553570Y620841D01*
X502770Y608141D02*
X477370Y608141D01*
X502770Y608141D02*
X515470Y595441D01*
X553570Y595441D01*
X553570Y570041D02*
X477370Y570041D01*
X477370Y544641D02*
X553570Y544641D01*
D20*
X722177Y104508D02*
X755900Y104508D01*
X793660Y142268D01*
M02*
