G04 EAGLE Gerber RS-274X export*
G75*
%MOMM*%
%FSLAX34Y34*%
%LPD*%
%IN*%
%IPPOS*%
%AMOC8*
5,1,8,0,0,1.08239X$1,22.5*%
G01*
%ADD10C,0.254000*%


D10*
X387000Y0D02*
X889000Y0D01*
X889000Y711200D01*
X387000Y711200D01*
X387000Y0D01*
X826189Y199729D02*
X826110Y198625D01*
X825952Y197529D01*
X825717Y196447D01*
X825405Y195385D01*
X825018Y194347D01*
X824558Y193340D01*
X824028Y192368D01*
X823429Y191437D01*
X822766Y190551D01*
X822041Y189714D01*
X821258Y188931D01*
X820421Y188206D01*
X819535Y187542D01*
X818603Y186944D01*
X817632Y186413D01*
X816624Y185953D01*
X815587Y185566D01*
X814525Y185254D01*
X813443Y185019D01*
X812347Y184862D01*
X811243Y184783D01*
X810135Y184783D01*
X809031Y184862D01*
X807935Y185019D01*
X806853Y185254D01*
X805791Y185566D01*
X804754Y185953D01*
X803747Y186413D01*
X802775Y186944D01*
X801843Y187542D01*
X800957Y188206D01*
X800120Y188931D01*
X799337Y189714D01*
X798612Y190551D01*
X797949Y191437D01*
X797350Y192368D01*
X796820Y193340D01*
X796360Y194347D01*
X795973Y195385D01*
X795661Y196447D01*
X795426Y197529D01*
X795268Y198625D01*
X795189Y199729D01*
X795189Y200836D01*
X795268Y201940D01*
X795426Y203036D01*
X795661Y204118D01*
X795973Y205181D01*
X796360Y206218D01*
X796820Y207225D01*
X797350Y208197D01*
X797949Y209128D01*
X798612Y210015D01*
X799337Y210851D01*
X800120Y211634D01*
X800957Y212359D01*
X801843Y213023D01*
X802775Y213621D01*
X803747Y214152D01*
X804754Y214612D01*
X805791Y214999D01*
X806853Y215311D01*
X807935Y215546D01*
X809031Y215704D01*
X810135Y215783D01*
X811243Y215783D01*
X812347Y215704D01*
X813443Y215546D01*
X814525Y215311D01*
X815587Y214999D01*
X816624Y214612D01*
X817632Y214152D01*
X818603Y213621D01*
X819535Y213023D01*
X820421Y212359D01*
X821258Y211634D01*
X822041Y210851D01*
X822766Y210015D01*
X823429Y209128D01*
X824028Y208197D01*
X824558Y207225D01*
X825018Y206218D01*
X825405Y205181D01*
X825717Y204118D01*
X825952Y203036D01*
X826110Y201940D01*
X826189Y200836D01*
X826189Y199729D01*
X849485Y605110D02*
X849406Y604006D01*
X849248Y602910D01*
X849013Y601828D01*
X848701Y600766D01*
X848314Y599728D01*
X847854Y598721D01*
X847324Y597750D01*
X846725Y596818D01*
X846061Y595932D01*
X845336Y595095D01*
X844554Y594312D01*
X843717Y593587D01*
X842830Y592924D01*
X841899Y592325D01*
X840927Y591794D01*
X839920Y591335D01*
X838883Y590948D01*
X837821Y590636D01*
X836739Y590400D01*
X835643Y590243D01*
X834538Y590164D01*
X833431Y590164D01*
X832327Y590243D01*
X831231Y590400D01*
X830149Y590636D01*
X829087Y590948D01*
X828049Y591335D01*
X827042Y591794D01*
X826071Y592325D01*
X825139Y592924D01*
X824253Y593587D01*
X823416Y594312D01*
X822633Y595095D01*
X821908Y595932D01*
X821245Y596818D01*
X820646Y597750D01*
X820115Y598721D01*
X819656Y599728D01*
X819269Y600766D01*
X818957Y601828D01*
X818721Y602910D01*
X818564Y604006D01*
X818485Y605110D01*
X818485Y606217D01*
X818564Y607322D01*
X818721Y608418D01*
X818957Y609500D01*
X819269Y610562D01*
X819656Y611599D01*
X820115Y612606D01*
X820646Y613578D01*
X821245Y614509D01*
X821908Y615396D01*
X822633Y616233D01*
X823416Y617015D01*
X824253Y617740D01*
X825139Y618404D01*
X826071Y619003D01*
X827042Y619533D01*
X828049Y619993D01*
X829087Y620380D01*
X830149Y620692D01*
X831231Y620927D01*
X832327Y621085D01*
X833431Y621164D01*
X834538Y621164D01*
X835643Y621085D01*
X836739Y620927D01*
X837821Y620692D01*
X838883Y620380D01*
X839920Y619993D01*
X840927Y619533D01*
X841899Y619003D01*
X842830Y618404D01*
X843717Y617740D01*
X844554Y617015D01*
X845336Y616233D01*
X846061Y615396D01*
X846725Y614509D01*
X847324Y613578D01*
X847854Y612606D01*
X848314Y611599D01*
X848701Y610562D01*
X849013Y609500D01*
X849248Y608418D01*
X849406Y607322D01*
X849485Y606217D01*
X849485Y605110D01*
X445639Y610351D02*
X445560Y609247D01*
X445402Y608151D01*
X445167Y607069D01*
X444855Y606007D01*
X444468Y604970D01*
X444008Y603963D01*
X443477Y602991D01*
X442879Y602059D01*
X442215Y601173D01*
X441490Y600336D01*
X440707Y599553D01*
X439871Y598828D01*
X438984Y598165D01*
X438053Y597566D01*
X437081Y597036D01*
X436074Y596576D01*
X435037Y596189D01*
X433974Y595877D01*
X432892Y595642D01*
X431796Y595484D01*
X430692Y595405D01*
X429585Y595405D01*
X428481Y595484D01*
X427385Y595642D01*
X426303Y595877D01*
X425241Y596189D01*
X424203Y596576D01*
X423196Y597036D01*
X422224Y597566D01*
X421293Y598165D01*
X420407Y598828D01*
X419570Y599553D01*
X418787Y600336D01*
X418062Y601173D01*
X417398Y602059D01*
X416800Y602991D01*
X416269Y603963D01*
X415809Y604970D01*
X415422Y606007D01*
X415110Y607069D01*
X414875Y608151D01*
X414718Y609247D01*
X414639Y610351D01*
X414639Y611459D01*
X414718Y612563D01*
X414875Y613659D01*
X415110Y614741D01*
X415422Y615803D01*
X415809Y616840D01*
X416269Y617848D01*
X416800Y618819D01*
X417398Y619751D01*
X418062Y620637D01*
X418787Y621474D01*
X419570Y622257D01*
X420407Y622982D01*
X421293Y623645D01*
X422224Y624244D01*
X423196Y624774D01*
X424203Y625234D01*
X425241Y625621D01*
X426303Y625933D01*
X427385Y626169D01*
X428481Y626326D01*
X429585Y626405D01*
X430692Y626405D01*
X431796Y626326D01*
X432892Y626169D01*
X433974Y625933D01*
X435037Y625621D01*
X436074Y625234D01*
X437081Y624774D01*
X438053Y624244D01*
X438984Y623645D01*
X439871Y622982D01*
X440707Y622257D01*
X441490Y621474D01*
X442215Y620637D01*
X442879Y619751D01*
X443477Y618819D01*
X444008Y617848D01*
X444468Y616840D01*
X444855Y615803D01*
X445167Y614741D01*
X445402Y613659D01*
X445560Y612563D01*
X445639Y611459D01*
X445639Y610351D01*
X520181Y172792D02*
X520102Y171688D01*
X519944Y170592D01*
X519709Y169510D01*
X519397Y168448D01*
X519010Y167411D01*
X518550Y166403D01*
X518020Y165432D01*
X517421Y164500D01*
X516757Y163614D01*
X516032Y162777D01*
X515250Y161994D01*
X514413Y161269D01*
X513526Y160606D01*
X512595Y160007D01*
X511623Y159477D01*
X510616Y159017D01*
X509579Y158630D01*
X508517Y158318D01*
X507435Y158083D01*
X506339Y157925D01*
X505234Y157846D01*
X504127Y157846D01*
X503023Y157925D01*
X501927Y158083D01*
X500845Y158318D01*
X499783Y158630D01*
X498745Y159017D01*
X497738Y159477D01*
X496767Y160007D01*
X495835Y160606D01*
X494949Y161269D01*
X494112Y161994D01*
X493329Y162777D01*
X492604Y163614D01*
X491941Y164500D01*
X491342Y165432D01*
X490811Y166403D01*
X490352Y167411D01*
X489965Y168448D01*
X489653Y169510D01*
X489417Y170592D01*
X489260Y171688D01*
X489181Y172792D01*
X489181Y173900D01*
X489260Y175004D01*
X489417Y176100D01*
X489653Y177182D01*
X489965Y178244D01*
X490352Y179281D01*
X490811Y180288D01*
X491342Y181260D01*
X491941Y182192D01*
X492604Y183078D01*
X493329Y183915D01*
X494112Y184698D01*
X494949Y185423D01*
X495835Y186086D01*
X496767Y186685D01*
X497738Y187215D01*
X498745Y187675D01*
X499783Y188062D01*
X500845Y188374D01*
X501927Y188609D01*
X503023Y188767D01*
X504127Y188846D01*
X505234Y188846D01*
X506339Y188767D01*
X507435Y188609D01*
X508517Y188374D01*
X509579Y188062D01*
X510616Y187675D01*
X511623Y187215D01*
X512595Y186685D01*
X513526Y186086D01*
X514413Y185423D01*
X515250Y184698D01*
X516032Y183915D01*
X516757Y183078D01*
X517421Y182192D01*
X518020Y181260D01*
X518550Y180288D01*
X519010Y179281D01*
X519397Y178244D01*
X519709Y177182D01*
X519944Y176100D01*
X520102Y175004D01*
X520181Y173900D01*
X520181Y172792D01*
M02*
