G04 EAGLE Gerber RS-274X export*
G75*
%MOMM*%
%FSLAX34Y34*%
%LPD*%
%INSilkscreen Bottom*%
%IPPOS*%
%AMOC8*
5,1,8,0,0,1.08239X$1,22.5*%
G01*
%ADD10C,0.203200*%
%ADD11C,0.254000*%
%ADD12C,0.152400*%
%ADD13C,0.076200*%


D10*
X528340Y484701D02*
X528340Y446601D01*
D11*
X527866Y445985D01*
X527377Y445380D01*
X526873Y444788D01*
X526355Y444208D01*
X525823Y443641D01*
X525277Y443087D01*
X524718Y442547D01*
X524145Y442021D01*
X523560Y441508D01*
X522963Y441011D01*
X522354Y440528D01*
X521733Y440060D01*
X521100Y439607D01*
X520457Y439170D01*
X519803Y438749D01*
X519139Y438345D01*
X518466Y437956D01*
X517783Y437584D01*
X517091Y437229D01*
X516391Y436891D01*
X515683Y436570D01*
X514967Y436267D01*
X514243Y435981D01*
X513514Y435713D01*
X512777Y435463D01*
X512035Y435232D01*
X511287Y435018D01*
X510535Y434823D01*
X509777Y434646D01*
X509016Y434488D01*
X508251Y434348D01*
X507483Y434228D01*
X506712Y434126D01*
X505939Y434043D01*
X505164Y433979D01*
X504388Y433934D01*
X503611Y433908D01*
X502833Y433901D01*
X502056Y433913D01*
X501279Y433944D01*
X500503Y433995D01*
X499728Y434064D01*
X498956Y434152D01*
X498186Y434259D01*
X497418Y434385D01*
X496654Y434529D01*
X495894Y434693D01*
X495138Y434875D01*
X494387Y435075D01*
X493640Y435293D01*
X492900Y435530D01*
X492165Y435785D01*
X491437Y436058D01*
X490716Y436349D01*
X490002Y436657D01*
X489296Y436982D01*
X488598Y437325D01*
X487908Y437685D01*
X487228Y438061D01*
X486557Y438454D01*
X485896Y438864D01*
X485245Y439289D01*
X484605Y439730D01*
X483976Y440187D01*
X483358Y440659D01*
X482752Y441146D01*
X482158Y441648D01*
X481576Y442164D01*
X481007Y442694D01*
X480452Y443238D01*
X479909Y443796D01*
X479381Y444366D01*
X478867Y444949D01*
X478367Y445545D01*
X477882Y446153D01*
X477412Y446772D01*
X476958Y447403D01*
X476519Y448045D01*
X476095Y448697D01*
X475688Y449360D01*
X475297Y450032D01*
X474923Y450714D01*
X474566Y451404D01*
X474226Y452103D01*
X473902Y452811D01*
X473597Y453525D01*
X473308Y454248D01*
X473038Y454977D01*
X472786Y455712D01*
X472551Y456454D01*
X472335Y457201D01*
X472137Y457953D01*
X471958Y458709D01*
X471797Y459470D01*
X471655Y460234D01*
X471532Y461002D01*
X471428Y461773D01*
X471342Y462546D01*
X471276Y463320D01*
X471228Y464096D01*
X471200Y464873D01*
X471190Y465651D01*
X471200Y466429D01*
X471228Y467206D01*
X471276Y467982D01*
X471342Y468756D01*
X471428Y469529D01*
X471532Y470300D01*
X471655Y471068D01*
X471797Y471832D01*
X471958Y472593D01*
X472137Y473349D01*
X472335Y474101D01*
X472551Y474848D01*
X472786Y475590D01*
X473038Y476325D01*
X473308Y477054D01*
X473597Y477777D01*
X473902Y478491D01*
X474226Y479199D01*
X474566Y479898D01*
X474923Y480588D01*
X475297Y481270D01*
X475688Y481942D01*
X476095Y482605D01*
X476519Y483257D01*
X476958Y483899D01*
X477412Y484530D01*
X477882Y485149D01*
X478367Y485757D01*
X478867Y486353D01*
X479381Y486936D01*
X479909Y487506D01*
X480452Y488064D01*
X481007Y488608D01*
X481576Y489138D01*
X482158Y489654D01*
X482752Y490156D01*
X483358Y490643D01*
X483976Y491115D01*
X484605Y491572D01*
X485245Y492013D01*
X485896Y492438D01*
X486557Y492848D01*
X487228Y493241D01*
X487908Y493617D01*
X488598Y493977D01*
X489296Y494320D01*
X490002Y494645D01*
X490716Y494953D01*
X491437Y495244D01*
X492165Y495517D01*
X492900Y495772D01*
X493640Y496009D01*
X494387Y496227D01*
X495138Y496427D01*
X495894Y496609D01*
X496654Y496773D01*
X497418Y496917D01*
X498186Y497043D01*
X498956Y497150D01*
X499728Y497238D01*
X500503Y497307D01*
X501279Y497358D01*
X502056Y497389D01*
X502833Y497401D01*
X503611Y497394D01*
X504388Y497368D01*
X505164Y497323D01*
X505939Y497259D01*
X506712Y497176D01*
X507483Y497074D01*
X508251Y496954D01*
X509016Y496814D01*
X509777Y496656D01*
X510535Y496479D01*
X511287Y496284D01*
X512035Y496070D01*
X512777Y495839D01*
X513514Y495589D01*
X514243Y495321D01*
X514967Y495035D01*
X515683Y494732D01*
X516391Y494411D01*
X517091Y494073D01*
X517783Y493718D01*
X518466Y493346D01*
X519139Y492957D01*
X519803Y492553D01*
X520457Y492132D01*
X521100Y491695D01*
X521733Y491242D01*
X522354Y490774D01*
X522963Y490291D01*
X523560Y489794D01*
X524145Y489281D01*
X524718Y488755D01*
X525277Y488215D01*
X525823Y487661D01*
X526355Y487094D01*
X526873Y486514D01*
X527377Y485922D01*
X527866Y485317D01*
X528340Y484701D01*
D12*
X477540Y465651D02*
X477548Y466274D01*
X477571Y466897D01*
X477609Y467520D01*
X477662Y468141D01*
X477731Y468760D01*
X477815Y469378D01*
X477914Y469993D01*
X478028Y470606D01*
X478157Y471216D01*
X478301Y471823D01*
X478460Y472426D01*
X478634Y473024D01*
X478822Y473619D01*
X479025Y474208D01*
X479242Y474792D01*
X479473Y475371D01*
X479719Y475944D01*
X479979Y476511D01*
X480252Y477071D01*
X480539Y477624D01*
X480840Y478171D01*
X481154Y478709D01*
X481481Y479240D01*
X481821Y479762D01*
X482173Y480277D01*
X482539Y480782D01*
X482916Y481278D01*
X483306Y481765D01*
X483707Y482242D01*
X484120Y482709D01*
X484544Y483165D01*
X484979Y483612D01*
X485426Y484047D01*
X485882Y484471D01*
X486349Y484884D01*
X486826Y485285D01*
X487313Y485675D01*
X487809Y486052D01*
X488314Y486418D01*
X488829Y486770D01*
X489351Y487110D01*
X489882Y487437D01*
X490420Y487751D01*
X490967Y488052D01*
X491520Y488339D01*
X492080Y488612D01*
X492647Y488872D01*
X493220Y489118D01*
X493799Y489349D01*
X494383Y489566D01*
X494972Y489769D01*
X495567Y489957D01*
X496165Y490131D01*
X496768Y490290D01*
X497375Y490434D01*
X497985Y490563D01*
X498598Y490677D01*
X499213Y490776D01*
X499831Y490860D01*
X500450Y490929D01*
X501071Y490982D01*
X501694Y491020D01*
X502317Y491043D01*
X502940Y491051D01*
X503563Y491043D01*
X504186Y491020D01*
X504809Y490982D01*
X505430Y490929D01*
X506049Y490860D01*
X506667Y490776D01*
X507282Y490677D01*
X507895Y490563D01*
X508505Y490434D01*
X509112Y490290D01*
X509715Y490131D01*
X510313Y489957D01*
X510908Y489769D01*
X511497Y489566D01*
X512081Y489349D01*
X512660Y489118D01*
X513233Y488872D01*
X513800Y488612D01*
X514360Y488339D01*
X514913Y488052D01*
X515460Y487751D01*
X515998Y487437D01*
X516529Y487110D01*
X517051Y486770D01*
X517566Y486418D01*
X518071Y486052D01*
X518567Y485675D01*
X519054Y485285D01*
X519531Y484884D01*
X519998Y484471D01*
X520454Y484047D01*
X520901Y483612D01*
X521336Y483165D01*
X521760Y482709D01*
X522173Y482242D01*
X522574Y481765D01*
X522964Y481278D01*
X523341Y480782D01*
X523707Y480277D01*
X524059Y479762D01*
X524399Y479240D01*
X524726Y478709D01*
X525040Y478171D01*
X525341Y477624D01*
X525628Y477071D01*
X525901Y476511D01*
X526161Y475944D01*
X526407Y475371D01*
X526638Y474792D01*
X526855Y474208D01*
X527058Y473619D01*
X527246Y473024D01*
X527420Y472426D01*
X527579Y471823D01*
X527723Y471216D01*
X527852Y470606D01*
X527966Y469993D01*
X528065Y469378D01*
X528149Y468760D01*
X528218Y468141D01*
X528271Y467520D01*
X528309Y466897D01*
X528332Y466274D01*
X528340Y465651D01*
X528332Y465028D01*
X528309Y464405D01*
X528271Y463782D01*
X528218Y463161D01*
X528149Y462542D01*
X528065Y461924D01*
X527966Y461309D01*
X527852Y460696D01*
X527723Y460086D01*
X527579Y459479D01*
X527420Y458876D01*
X527246Y458278D01*
X527058Y457683D01*
X526855Y457094D01*
X526638Y456510D01*
X526407Y455931D01*
X526161Y455358D01*
X525901Y454791D01*
X525628Y454231D01*
X525341Y453678D01*
X525040Y453131D01*
X524726Y452593D01*
X524399Y452062D01*
X524059Y451540D01*
X523707Y451025D01*
X523341Y450520D01*
X522964Y450024D01*
X522574Y449537D01*
X522173Y449060D01*
X521760Y448593D01*
X521336Y448137D01*
X520901Y447690D01*
X520454Y447255D01*
X519998Y446831D01*
X519531Y446418D01*
X519054Y446017D01*
X518567Y445627D01*
X518071Y445250D01*
X517566Y444884D01*
X517051Y444532D01*
X516529Y444192D01*
X515998Y443865D01*
X515460Y443551D01*
X514913Y443250D01*
X514360Y442963D01*
X513800Y442690D01*
X513233Y442430D01*
X512660Y442184D01*
X512081Y441953D01*
X511497Y441736D01*
X510908Y441533D01*
X510313Y441345D01*
X509715Y441171D01*
X509112Y441012D01*
X508505Y440868D01*
X507895Y440739D01*
X507282Y440625D01*
X506667Y440526D01*
X506049Y440442D01*
X505430Y440373D01*
X504809Y440320D01*
X504186Y440282D01*
X503563Y440259D01*
X502940Y440251D01*
X502317Y440259D01*
X501694Y440282D01*
X501071Y440320D01*
X500450Y440373D01*
X499831Y440442D01*
X499213Y440526D01*
X498598Y440625D01*
X497985Y440739D01*
X497375Y440868D01*
X496768Y441012D01*
X496165Y441171D01*
X495567Y441345D01*
X494972Y441533D01*
X494383Y441736D01*
X493799Y441953D01*
X493220Y442184D01*
X492647Y442430D01*
X492080Y442690D01*
X491520Y442963D01*
X490967Y443250D01*
X490420Y443551D01*
X489882Y443865D01*
X489351Y444192D01*
X488829Y444532D01*
X488314Y444884D01*
X487809Y445250D01*
X487313Y445627D01*
X486826Y446017D01*
X486349Y446418D01*
X485882Y446831D01*
X485426Y447255D01*
X484979Y447690D01*
X484544Y448137D01*
X484120Y448593D01*
X483707Y449060D01*
X483306Y449537D01*
X482916Y450024D01*
X482539Y450520D01*
X482173Y451025D01*
X481821Y451540D01*
X481481Y452062D01*
X481154Y452593D01*
X480840Y453131D01*
X480539Y453678D01*
X480252Y454231D01*
X479979Y454791D01*
X479719Y455358D01*
X479473Y455931D01*
X479242Y456510D01*
X479025Y457094D01*
X478822Y457683D01*
X478634Y458278D01*
X478460Y458876D01*
X478301Y459479D01*
X478157Y460086D01*
X478028Y460696D01*
X477914Y461309D01*
X477815Y461924D01*
X477731Y462542D01*
X477662Y463161D01*
X477609Y463782D01*
X477571Y464405D01*
X477548Y465028D01*
X477540Y465651D01*
X714177Y125708D02*
X714177Y111308D01*
X730177Y111308D02*
X730177Y125708D01*
D13*
X732477Y140963D02*
X732477Y148201D01*
X729260Y148201D01*
X729260Y144984D02*
X732477Y144984D01*
X726493Y146592D02*
X724482Y148201D01*
X724482Y140963D01*
X726493Y140963D02*
X722471Y140963D01*
M02*
